<svg width="220" height="210" viewBox="0 0 220 210" fill="none" xmlns="http://www.w3.org/2000/svg">
<path d="M207.852 204.335C207.852 204.43 166.074 204.504 114.554 204.504C63.0342 204.504 21.2422 204.43 21.2422 204.335C21.2422 204.241 63.0072 204.16 114.554 204.16C166.101 204.16 207.852 204.241 207.852 204.335Z" fill="#2A2A30"/>
<path d="M203.757 8.92188H18.1387V173.24H203.757V8.92188Z" fill="#F0F9F0"/>
<path d="M92 52H44V168H92V52Z" fill="#B9E1AB"/>
<path d="M59.3243 66.082H51.8496V73.5526H59.3243V66.082Z" fill="#FAFAFA"/>
<path d="M71.6426 66.082H64.168V73.5526H71.6426V66.082Z" fill="#FAFAFA"/>
<path d="M83.9669 66.082H76.4922V73.5526H83.9669V66.082Z" fill="#FAFAFA"/>
<path d="M59.3243 77.3359H51.8496V84.8065H59.3243V77.3359Z" fill="#FAFAFA"/>
<path d="M71.6426 77.3359H64.168V84.8065H71.6426V77.3359Z" fill="#FAFAFA"/>
<path d="M83.9669 77.3359H76.4922V84.8065H83.9669V77.3359Z" fill="#FAFAFA"/>
<path d="M59.3243 88.582H51.8496V96.0526H59.3243V88.582Z" fill="#FAFAFA"/>
<path d="M71.6426 88.582H64.168V96.0526H71.6426V88.582Z" fill="#FAFAFA"/>
<path d="M83.9669 88.582H76.4922V96.0526H83.9669V88.582Z" fill="#FAFAFA"/>
<path d="M59.3243 99.8359H51.8496V107.306H59.3243V99.8359Z" fill="#FAFAFA"/>
<path d="M71.6426 99.8359H64.168V107.306H71.6426V99.8359Z" fill="#FAFAFA"/>
<path d="M83.9669 99.8359H76.4922V107.306H83.9669V99.8359Z" fill="#FAFAFA"/>
<path d="M59.3243 111.088H51.8496V118.558H59.3243V111.088Z" fill="#FAFAFA"/>
<path d="M71.6426 111.088H64.168V118.558H71.6426V111.088Z" fill="#FAFAFA"/>
<path d="M83.9669 111.088H76.4922V118.558H83.9669V111.088Z" fill="#FAFAFA"/>
<path d="M59.3243 122.342H51.8496V129.812H59.3243V122.342Z" fill="#FAFAFA"/>
<path d="M71.6426 122.342H64.168V129.812H71.6426V122.342Z" fill="#FAFAFA"/>
<path d="M83.9669 122.342H76.4922V129.812H83.9669V122.342Z" fill="#FAFAFA"/>
<path d="M59.3243 133.594H51.8496V141.064H59.3243V133.594Z" fill="#FAFAFA"/>
<path d="M71.6426 133.594H64.168V141.064H71.6426V133.594Z" fill="#FAFAFA"/>
<path d="M83.9669 133.594H76.4922V141.064H83.9669V133.594Z" fill="#FAFAFA"/>
<path d="M59.3243 144.848H51.8496V152.318H59.3243V144.848Z" fill="#FAFAFA"/>
<path d="M71.6426 144.848H64.168V152.318H71.6426V144.848Z" fill="#FAFAFA"/>
<path d="M83.9669 144.848H76.4922V152.318H83.9669V144.848Z" fill="#FAFAFA"/>
<path d="M59.3243 156.1H51.8496V163.57H59.3243V156.1Z" fill="#FAFAFA"/>
<path d="M71.6426 156.1H64.168V163.57H71.6426V156.1Z" fill="#FAFAFA"/>
<path d="M83.9669 156.1H76.4922V163.57H83.9669V156.1Z" fill="#FAFAFA"/>
<path d="M123.776 90.207H91.5293V168.021H123.776V90.207Z" fill="#B9E1AB"/>
<path d="M101.804 99.6797H96.7109V104.77H101.804V99.6797Z" fill="#FAFAFA"/>
<path d="M110.197 99.6797H105.104V104.77H110.197V99.6797Z" fill="#FAFAFA"/>
<path d="M118.587 99.6797H113.494V104.77H118.587V99.6797Z" fill="#FAFAFA"/>
<path d="M101.804 107.346H96.7109V112.436H101.804V107.346Z" fill="#FAFAFA"/>
<path d="M110.197 107.346H105.104V112.436H110.197V107.346Z" fill="#FAFAFA"/>
<path d="M118.587 107.346H113.494V112.436H118.587V107.346Z" fill="#FAFAFA"/>
<path d="M101.804 115.012H96.7109V120.102H101.804V115.012Z" fill="#FAFAFA"/>
<path d="M110.197 115.012H105.104V120.102H110.197V115.012Z" fill="#FAFAFA"/>
<path d="M118.587 115.012H113.494V120.102H118.587V115.012Z" fill="#FAFAFA"/>
<path d="M101.804 122.686H96.7109V127.776H101.804V122.686Z" fill="#FAFAFA"/>
<path d="M110.197 122.686H105.104V127.776H110.197V122.686Z" fill="#FAFAFA"/>
<path d="M118.587 122.686H113.494V127.776H118.587V122.686Z" fill="#FAFAFA"/>
<path d="M101.804 130.352H96.7109V135.442H101.804V130.352Z" fill="#FAFAFA"/>
<path d="M110.197 130.352H105.104V135.442H110.197V130.352Z" fill="#FAFAFA"/>
<path d="M118.587 130.352H113.494V135.442H118.587V130.352Z" fill="#FAFAFA"/>
<path d="M101.804 138.018H96.7109V143.108H101.804V138.018Z" fill="#FAFAFA"/>
<path d="M110.197 138.018H105.104V143.108H110.197V138.018Z" fill="#FAFAFA"/>
<path d="M118.587 138.018H113.494V143.108H118.587V138.018Z" fill="#FAFAFA"/>
<path d="M101.804 145.684H96.7109V150.774H101.804V145.684Z" fill="#FAFAFA"/>
<path d="M110.197 145.684H105.104V150.774H110.197V145.684Z" fill="#FAFAFA"/>
<path d="M118.587 145.684H113.494V150.774H118.587V145.684Z" fill="#FAFAFA"/>
<path d="M101.804 153.35H96.7109V158.44H101.804V153.35Z" fill="#FAFAFA"/>
<path d="M110.197 153.35H105.104V158.44H110.197V153.35Z" fill="#FAFAFA"/>
<path d="M118.587 153.35H113.494V158.44H118.587V153.35Z" fill="#FAFAFA"/>
<path d="M101.804 161.016H96.7109V166.106H101.804V161.016Z" fill="#FAFAFA"/>
<path d="M110.197 161.016H105.104V166.106H110.197V161.016Z" fill="#FAFAFA"/>
<path d="M118.587 161.016H113.494V166.106H118.587V161.016Z" fill="#FAFAFA"/>
<path d="M45 107H23V168H45V107Z" fill="#B9E1AB"/>
<path d="M28.0288 114.109H24.1094V118.027H28.0288V114.109Z" fill="#FAFAFA"/>
<path d="M34.4917 114.109H30.5723V118.027H34.4917V114.109Z" fill="#FAFAFA"/>
<path d="M40.9546 114.109H37.0352V118.027H40.9546V114.109Z" fill="#FAFAFA"/>
<path d="M28.0288 120.008H24.1094V123.925H28.0288V120.008Z" fill="#FAFAFA"/>
<path d="M34.4917 120.008H30.5723V123.925H34.4917V120.008Z" fill="#FAFAFA"/>
<path d="M40.9546 120.008H37.0352V123.925H40.9546V120.008Z" fill="#FAFAFA"/>
<path d="M28.0288 125.914H24.1094V129.831H28.0288V125.914Z" fill="#FAFAFA"/>
<path d="M34.4917 125.914H30.5723V129.831H34.4917V125.914Z" fill="#FAFAFA"/>
<path d="M40.9546 125.914H37.0352V129.831H40.9546V125.914Z" fill="#FAFAFA"/>
<path d="M28.0288 131.814H24.1094V135.732H28.0288V131.814Z" fill="#FAFAFA"/>
<path d="M34.4917 131.814H30.5723V135.732H34.4917V131.814Z" fill="#FAFAFA"/>
<path d="M40.9546 131.814H37.0352V135.732H40.9546V131.814Z" fill="#FAFAFA"/>
<path d="M28.0288 137.721H24.1094V141.638H28.0288V137.721Z" fill="#FAFAFA"/>
<path d="M34.4917 137.721H30.5723V141.638H34.4917V137.721Z" fill="#FAFAFA"/>
<path d="M40.9546 137.721H37.0352V141.638H40.9546V137.721Z" fill="#FAFAFA"/>
<path d="M28.0288 143.621H24.1094V147.538H28.0288V143.621Z" fill="#FAFAFA"/>
<path d="M34.4917 143.621H30.5723V147.538H34.4917V143.621Z" fill="#FAFAFA"/>
<path d="M40.9546 143.621H37.0352V147.538H40.9546V143.621Z" fill="#FAFAFA"/>
<path d="M28.0288 149.527H24.1094V153.445H28.0288V149.527Z" fill="#FAFAFA"/>
<path d="M34.4917 149.527H30.5723V153.445H34.4917V149.527Z" fill="#FAFAFA"/>
<path d="M40.9546 149.527H37.0352V153.445H40.9546V149.527Z" fill="#FAFAFA"/>
<path d="M28.0288 155.426H24.1094V159.343H28.0288V155.426Z" fill="#FAFAFA"/>
<path d="M34.4917 155.426H30.5723V159.343H34.4917V155.426Z" fill="#FAFAFA"/>
<path d="M40.9546 155.426H37.0352V159.343H40.9546V155.426Z" fill="#FAFAFA"/>
<path d="M28.0288 161.326H24.1094V165.243H28.0288V161.326Z" fill="#FAFAFA"/>
<path d="M34.4917 161.326H30.5723V165.243H34.4917V161.326Z" fill="#FAFAFA"/>
<path d="M40.9546 161.326H37.0352V165.243H40.9546V161.326Z" fill="#FAFAFA"/>
<path d="M109.967 167.878H110.467V167.378V13.5177V13.0177H109.967H23.4076H22.9076V13.5177V167.378V167.878H23.4076H109.967ZM204.776 167.878H205.276V167.378V13.5177V13.0177H204.776H118.224H117.724V13.5177V167.378V167.878H118.224H204.776ZM213.444 175.677H15.6504V6.5H213.444V175.677Z" stroke="#2A2A30"/>
<path d="M130.064 64.2688L131.082 64.8284L130.057 65.388C129.52 65.6775 129.077 66.1151 128.782 66.6488L128.215 67.6737L127.662 66.6488C127.372 66.1084 126.931 65.6634 126.394 65.3678L125.375 64.8082L126.4 64.2486C126.938 63.9591 127.38 63.5214 127.675 62.9877L128.242 61.9629L128.795 62.9945C129.088 63.5315 129.528 63.9737 130.064 64.2688V64.2688Z" fill="#FAFAFA"/>
<path d="M39.4217 28.0297L40.157 28.441L39.415 28.8388C39.0277 29.0504 38.7092 29.3687 38.4975 29.7558L38.086 30.4907L37.688 29.749C37.4781 29.3605 37.1592 29.0418 36.7705 28.8321L36.0352 28.4208L36.7772 28.023C37.1635 27.8077 37.4832 27.4905 37.7014 27.106L38.1062 26.3711L38.5042 27.1128C38.7181 27.4983 39.036 27.816 39.4217 28.0297Z" fill="#FAFAFA"/>
<path d="M100.577 28.0297L101.319 28.441L100.577 28.8388C100.186 29.0482 99.8652 29.3668 99.6528 29.7558L99.2481 30.4907L98.8433 29.749C98.634 29.3624 98.3178 29.0441 97.9326 28.8321L97.1973 28.4208L97.9326 28.023C98.3204 27.8097 98.6405 27.492 98.8568 27.106L99.2616 26.3711L99.6663 27.1128C99.8757 27.4994 100.192 27.8177 100.577 28.0297V28.0297Z" fill="#FAFAFA"/>
<path d="M102.525 63.4532L102.93 63.6757L102.525 63.8914C102.31 64.0057 102.133 64.1818 102.019 64.3971L101.797 64.7949L101.574 64.3904C101.46 64.1788 101.286 64.0053 101.075 63.8914L100.67 63.6622L101.081 63.4464C101.292 63.3307 101.465 63.1577 101.581 62.9475L101.803 62.543L102.026 62.9475C102.142 63.1595 102.315 63.3347 102.525 63.4532Z" fill="#FAFAFA"/>
<path d="M33.9782 67.0548L34.383 67.2773L33.9782 67.493C33.7645 67.6065 33.5887 67.7799 33.4723 67.9919L33.2496 68.3965L33.027 67.9919C32.9114 67.7799 32.7384 67.6047 32.5278 67.4863L32.123 67.2638L32.5346 67.048C32.7449 66.9323 32.918 66.7593 33.0338 66.5491L33.2564 66.1445L33.479 66.5491C33.5972 66.7592 33.7696 66.9338 33.9782 67.0548Z" fill="#FAFAFA"/>
<path d="M169.42 25.1105L169.824 25.333L169.42 25.5555C169.206 25.669 169.03 25.8424 168.914 26.0544L168.691 26.459L168.468 26.0544C168.357 25.8394 168.183 25.6631 167.969 25.5488L167.564 25.3263L167.969 25.1105C168.183 24.9943 168.359 24.8187 168.475 24.6048L168.698 24.207L168.92 24.6116C169.036 24.8218 169.209 24.9948 169.42 25.1105V25.1105Z" fill="#FAFAFA"/>
<path d="M68.7547 22.2579L69.1594 22.4804L68.7547 22.7029C68.5444 22.821 68.3697 22.9933 68.2487 23.2018L68.0261 23.6063L67.8102 23.2018C67.6967 22.9882 67.5232 22.8124 67.311 22.6961L66.9062 22.4736L67.311 22.2511C67.5212 22.133 67.696 21.9607 67.817 21.7522L68.0396 21.3477L68.2555 21.7522C68.369 21.9658 68.5425 22.1416 68.7547 22.2579Z" fill="#FAFAFA"/>
<path d="M198.334 35.6683C198.59 33.8412 196.006 32.3376 194.07 32.1825C193.144 32.2211 192.216 32.1396 191.311 31.9398C189.408 31.2656 188.653 28.8316 186.804 28.0495C185.415 27.4696 183.823 27.9888 182.48 28.663C181.138 29.3373 179.816 30.1868 178.318 30.2812C177.009 30.3688 175.619 29.8834 174.452 30.5172C173.602 30.9959 173.157 31.9735 172.375 32.5399C171.563 33.0347 170.627 33.2896 169.676 33.2748C168.722 33.2486 167.772 33.4042 166.877 33.7333C166.43 33.9043 166.052 34.216 165.799 34.6211C165.546 35.0262 165.431 35.5027 165.473 35.9785L198.334 35.6683Z" fill="#FAFAFA"/>
<path d="M170.027 95.305C170.263 93.5991 167.848 92.19 166.034 92.0417C165.167 92.0769 164.298 92.0022 163.45 91.8192C161.669 91.1989 160.961 88.9065 159.227 88.1783C157.932 87.6322 156.441 88.1176 155.179 88.7514C153.918 89.3852 152.676 90.174 151.273 90.2684C150.052 90.3426 148.73 89.8909 147.657 90.4842C146.861 90.9292 146.45 91.8327 145.715 92.3923C144.949 92.8564 144.066 93.0905 143.171 93.0665C142.278 93.0428 141.387 93.1868 140.547 93.4913C140.13 93.6538 139.777 93.9462 139.54 94.3252C139.303 94.7042 139.195 95.1495 139.232 95.5949L170.027 95.305Z" fill="#B9E1AB"/>
<path d="M88.3117 39.2616C88.5478 37.549 86.1327 36.1466 84.318 35.9983C83.4508 36.0332 82.5827 35.9584 81.7342 35.7758C79.96 35.1555 79.2517 32.8631 77.5179 32.1282C76.2227 31.582 74.725 32.0742 73.4703 32.7013C72.2155 33.3283 70.9742 34.1306 69.571 34.2183C68.35 34.2992 67.021 33.8475 65.9551 34.4408C65.1591 34.8858 64.7408 35.7893 64.0055 36.3421C63.2403 36.8067 62.3572 37.0408 61.4622 37.0164C60.5686 36.9926 59.6785 37.1367 58.838 37.4411C58.4214 37.6036 58.0684 37.8961 57.8314 38.2751C57.5945 38.654 57.4861 39.0993 57.5225 39.5448L88.3117 39.2616Z" fill="#B9E1AB"/>
<path d="M186.959 12.3667C186.959 12.4611 175.531 12.542 161.431 12.542C147.332 12.542 135.904 12.4611 135.904 12.3667C135.904 12.2723 147.332 12.1914 161.431 12.1914C175.531 12.1914 186.959 12.2723 186.959 12.3667Z" fill="white"/>
<path d="M86.8415 12.3667C86.8415 12.4611 75.4136 12.542 61.3143 12.542C47.215 12.542 35.7871 12.4611 35.7871 12.3667C35.7871 12.2723 47.215 12.1914 61.3143 12.1914C75.4136 12.1914 86.8415 12.2723 86.8415 12.3667Z" fill="white"/>
<path d="M163.734 128.162L151.348 147.203L135.191 140.325L126.017 135.532L114.791 136.765L130.644 146.528L146.113 161.051C147.109 162.212 148.37 163.116 149.789 163.686C151.208 164.256 152.744 164.476 154.266 164.327C155.788 164.178 157.252 163.665 158.534 162.831C159.816 161.996 160.877 160.866 161.629 159.534L174.211 137.177L163.734 128.162Z" fill="#FFBE9D"/>
<path d="M132.553 139.583C128.03 137.964 123.379 136.729 118.649 135.889C118.359 136.192 118.743 137.237 119.094 137.487C119.495 137.788 119.955 138.002 120.443 138.114C120.91 138.166 121.365 138.291 121.793 138.484C122.388 138.878 122.857 139.435 123.142 140.089C124.39 142.112 127.331 143.46 130.212 143.265" fill="#FFBE9D"/>
<path d="M130.204 143.244C130.107 143.27 130.007 143.283 129.907 143.284C129.622 143.303 129.335 143.303 129.05 143.284C127.989 143.233 126.947 142.989 125.974 142.563C125.298 142.27 124.668 141.879 124.105 141.403C123.795 141.131 123.511 140.83 123.255 140.506C122.999 140.162 122.79 139.771 122.581 139.414C122.377 139.046 122.066 138.747 121.69 138.558C121.256 138.393 120.803 138.284 120.341 138.234C119.85 138.103 119.391 137.873 118.992 137.56C118.789 137.374 118.634 137.143 118.54 136.886C118.427 136.629 118.376 136.349 118.391 136.07C118.408 135.949 118.457 135.835 118.533 135.739L118.594 135.672H118.688C122.048 136.239 125.361 137.057 128.598 138.119C129.839 138.517 130.831 138.861 131.513 139.11C131.874 139.223 132.226 139.365 132.565 139.535C132.193 139.467 131.827 139.368 131.472 139.239L128.524 138.349C125.266 137.375 121.949 136.611 118.594 136.063L118.742 136.009C118.721 136.052 118.705 136.097 118.695 136.144C118.693 136.588 118.859 137.017 119.16 137.344C119.529 137.62 119.949 137.819 120.395 137.931C120.872 137.994 121.338 138.116 121.785 138.295C122.216 138.515 122.573 138.857 122.81 139.279C123.491 140.659 124.638 141.755 126.048 142.374C126.99 142.809 127.998 143.082 129.03 143.183C129.792 143.244 130.204 143.244 130.204 143.244Z" fill="#EB996E"/>
<path d="M144.904 146.022C144.402 145.604 143.929 145.154 143.487 144.673C142.624 143.824 141.402 142.651 139.972 141.525C138.542 140.399 137.159 139.421 136.147 138.76C135.583 138.431 135.04 138.066 134.521 137.668C135.139 137.893 135.727 138.19 136.275 138.551C139.015 140.162 141.504 142.166 143.662 144.498C144.132 144.957 144.549 145.469 144.904 146.022V146.022Z" fill="white"/>
<path d="M67.4659 190.473L52.7392 198.099L50.3309 200.856C49.9814 201.259 49.5556 201.589 49.0781 201.827C48.6006 202.065 48.0808 202.206 47.5485 202.242C47.0162 202.279 46.482 202.209 45.9766 202.039C45.4712 201.868 45.0045 201.599 44.6034 201.247L23.9941 183.279C23.9941 183.279 24.8307 180.36 26.9152 181.041C28.9997 181.722 45.3995 186.664 45.3995 186.664L59.1143 178.195L67.4659 190.473Z" fill="#59B039"/>
<g opacity="0.3">
<path opacity="0.3" d="M67.4659 190.473L52.7392 198.099L50.3309 200.856C49.9814 201.259 49.5556 201.589 49.0781 201.827C48.6006 202.065 48.0808 202.206 47.5485 202.242C47.0162 202.279 46.482 202.209 45.9766 202.039C45.4712 201.868 45.0045 201.599 44.6034 201.247L23.9941 183.279C23.9941 183.279 24.8307 180.36 26.9152 181.041C28.9997 181.722 45.3995 186.664 45.3995 186.664L59.1143 178.195L67.4659 190.473Z" fill="#2A2A30"/>
</g>
<path d="M44.9343 186.329C44.7051 186.329 44.4773 186.292 44.2596 186.221C43.8481 186.133 43.2545 185.985 42.5192 185.789C41.0553 185.405 39.0449 184.832 36.8457 184.131C34.6465 183.429 32.6766 182.728 31.2599 182.189C30.5853 181.926 29.9849 181.697 29.5937 181.515C29.3846 181.443 29.1853 181.345 29 181.225C29.7962 181.407 30.5785 181.646 31.3409 181.939L36.9536 183.773L42.5934 185.533C43.3905 185.746 44.1725 186.012 44.9343 186.329Z" fill="white"/>
<path d="M106.19 147.289C106.19 147.289 97.676 147.963 94.6335 149.925C91.5911 151.887 53.4824 178.992 53.4824 178.992L62.8797 193.73L89.1895 181.392L106.19 147.289Z" fill="#2A2A30"/>
<path d="M87.157 190.064L83.5613 196.617V204.337H52.1515C52.1515 204.337 50.863 201.593 52.8801 200.73C54.8972 199.867 70.5076 192.821 70.5076 192.821L77.0244 183.193L87.157 190.064Z" fill="#59B039"/>
<g opacity="0.3">
<path opacity="0.3" d="M87.1589 190.062L83.5633 196.615V204.335H52.1535C52.1535 204.335 50.865 201.591 52.8821 200.728C54.8991 199.865 70.5096 192.819 70.5096 192.819L77.0263 183.191L87.1589 190.062Z" fill="#2A2A30"/>
</g>
<path d="M197.133 180.328C197.133 180.328 193.901 194.52 193.085 196.705C191.911 199.779 179.843 206.758 165.089 202.982C149.856 199.092 113.583 169.634 113.583 169.634L109.953 172.298L87.2728 193.354C87.2728 193.354 74.2461 187.96 74.2461 182.6C74.2461 182.6 101.817 140.555 104.334 139.759C106.85 138.963 109.42 138.181 112.476 138.822C115.532 139.462 161.379 164.598 161.379 164.598L197.133 180.328Z" fill="#2A2A30"/>
<path d="M101.986 162.244C102.068 162.43 102.118 162.628 102.134 162.831C102.233 163.358 102.387 163.873 102.593 164.368C102.674 164.523 102.748 164.685 102.829 164.847C102.91 165.009 102.91 165.015 102.957 165.096L103.119 165.339L103.47 165.845L103.902 166.33C104.576 167.032 105.365 167.614 106.236 168.049C107.837 168.836 109.567 169.324 111.343 169.492C112.692 169.64 113.562 169.587 113.562 169.647C113.368 169.708 113.165 169.738 112.962 169.735C112.416 169.776 111.868 169.776 111.322 169.735C109.499 169.636 107.715 169.166 106.081 168.353C105.175 167.902 104.359 167.289 103.672 166.546L103.227 166.033L102.876 165.494L102.714 165.231L102.593 164.968C102.516 164.793 102.442 164.624 102.37 164.462C102.172 163.946 102.049 163.403 102.006 162.851C101.973 162.65 101.966 162.446 101.986 162.244V162.244Z" fill="#2A2A30"/>
<path d="M113.563 169.647C113.374 169.575 113.196 169.475 113.037 169.35C112.699 169.141 112.241 168.811 111.687 168.386C110.231 167.264 109.008 165.87 108.085 164.28C107.198 162.67 106.645 160.897 106.459 159.068C106.389 158.523 106.349 157.973 106.338 157.423C106.312 157.222 106.312 157.018 106.338 156.816C106.399 156.816 106.459 157.673 106.675 159.035C106.935 160.813 107.506 162.531 108.362 164.112C109.284 165.66 110.463 167.039 111.849 168.191C112.895 169.094 113.597 169.6 113.563 169.647Z" fill="#2A2A30"/>
<path d="M87.253 193.367C87.1441 193.344 87.0379 193.31 86.9359 193.265L86.0387 192.928C84.9078 192.493 83.804 191.991 82.7331 191.425C81.0475 190.569 79.4635 189.526 78.0108 188.317C77.1214 187.574 76.3058 186.748 75.5755 185.849C74.7362 184.862 74.0743 183.737 73.6191 182.525V182.464L73.6596 182.404L82.5712 169.242C87.8129 161.549 92.6903 154.665 96.2793 149.75C98.0872 147.289 99.5713 145.321 100.603 143.965L101.811 142.415L102.135 142.017C102.167 141.969 102.205 141.926 102.25 141.889C102.25 141.889 102.25 141.943 102.162 142.037L101.865 142.455C101.588 142.846 101.19 143.372 100.711 144.046L96.4816 149.892C92.9197 154.841 88.0962 161.745 82.8545 169.445L73.916 182.586V182.457C74.3498 183.634 74.9843 184.727 75.7914 185.687C76.5052 186.579 77.3026 187.401 78.1728 188.141C79.5971 189.35 81.1462 190.403 82.7938 191.283C83.8529 191.861 84.9404 192.386 86.0522 192.854L86.9292 193.238L87.253 193.367Z" fill="#2A2A30"/>
<g opacity="0.3">
<path opacity="0.3" d="M157.377 162.258C159.604 165.683 164.481 169.674 167.942 174.138C171.2 178.345 172.968 183.071 177.056 185.33C182.547 188.384 190.467 188.331 195.945 185.33C188.261 183.914 180.166 180.206 174.6 174.718C172.273 172.425 170.229 169.836 167.726 167.739C165.223 165.642 160.609 162.312 157.344 162.453" fill="#2A2A30"/>
</g>
<path d="M193.577 101.582C194.346 102.33 202.819 102.789 203.757 117.271C204.006 121.202 196.282 185.14 196.282 185.14L195.088 185.484C191.648 186.49 187.983 186.426 184.58 185.303C181.176 184.18 178.195 182.049 176.03 179.193L174.007 176.496C172.389 174.34 170.445 172.447 168.245 170.887L157.418 162.648L165.324 155.379L164.555 147.356C164.555 147.356 161.088 135.051 163.017 128.895C164.947 122.74 175.747 106.902 175.747 106.902L175.869 108.338L193.577 101.582Z" fill="#59B039"/>
<g opacity="0.3">
<path opacity="0.3" d="M169.19 169.182L168.785 168.912L169.19 169.182Z" fill="#2A2A30"/>
</g>
<path d="M180.192 134.871L173.695 150.588L145.328 145.14C145.328 145.14 133.185 135.7 132.787 135.397L129.286 135.882L123.565 135.727L118.479 138.472L117.615 138.62L141.281 153.271L168.771 168.913C170.579 170.122 172.656 170.869 174.819 171.09C176.983 171.311 179.168 170.999 181.184 170.181C182.901 169.484 184.455 168.435 185.744 167.104C187.034 165.772 188.031 164.186 188.672 162.447L197.523 138.411L180.192 134.871Z" fill="#FFBE9D"/>
<path d="M118.789 138.301C119.286 138.116 119.802 137.985 120.327 137.91C121.285 137.715 122.614 137.465 124.091 137.236L125.441 137H125.481H125.522C126.628 137.344 127.579 137.674 128.254 137.897C128.625 137.994 128.982 138.141 129.313 138.335C128.932 138.301 128.556 138.222 128.193 138.099C127.518 137.917 126.534 137.647 125.42 137.317H125.501L124.152 137.56C122.682 137.816 121.346 138.032 120.374 138.166C119.852 138.269 119.321 138.314 118.789 138.301V138.301Z" fill="#EB996E"/>
<path d="M120.254 140.149C121.8 139.955 123.358 139.877 124.915 139.913H126.029H126.069C127.167 140.366 128.225 140.909 129.233 141.538C128.099 141.19 126.996 140.75 125.934 140.223H126.002H124.895C123.349 140.318 121.797 140.293 120.254 140.149V140.149Z" fill="#EB996E"/>
<path d="M180.192 134.871C180.169 134.975 180.135 135.077 180.091 135.174L179.767 136.031C179.457 136.806 179.018 137.892 178.479 139.26L173.837 150.662L173.79 150.776H173.669L160.035 148.181L145.301 145.268H145.261L136.214 138.155L133.691 136.132L133.017 135.586C132.936 135.53 132.864 135.465 132.801 135.39C132.888 135.434 132.97 135.488 133.044 135.552L133.718 136.058L136.295 138.006L145.423 145.012H145.355L160.102 147.823L173.723 150.459L173.554 150.547L178.276 139.206L179.625 136.017L179.996 135.174C180.05 135.067 180.116 134.965 180.192 134.871Z" fill="#EB996E"/>
<path d="M177.669 161.841C177.505 161.269 177.376 160.688 177.285 160.101C177.012 158.696 176.631 157.314 176.145 155.968C175.658 154.625 175.067 153.322 174.377 152.071C174.065 151.564 173.781 151.039 173.527 150.5C173.943 150.932 174.299 151.417 174.586 151.943C175.351 153.175 175.984 154.483 176.475 155.847C176.968 157.21 177.321 158.619 177.528 160.054C177.654 160.641 177.702 161.241 177.669 161.841Z" fill="#EB996E"/>
<path d="M212.143 99.1018C211.623 95.3261 212.305 91.5099 212.514 87.7005C212.723 83.8911 212.366 79.8659 210.139 76.7576C208.048 73.9056 204.52 72.1998 202.941 69.0309C201.032 65.1877 202.503 60.158 200.081 56.6115C199.344 55.5685 198.325 54.7563 197.144 54.2693C195.963 53.7823 194.668 53.6406 193.409 53.8606C190.913 54.3393 187.736 55.0338 185.988 58.5263C186.197 79.4276 192.977 100.545 196.613 121.149C197.045 123.59 197.558 126.145 199.157 128.04C200.755 129.935 203.818 130.825 205.761 129.281C208.298 127.258 207.11 123.212 208.136 120.104C209.087 117.178 211.994 115.277 213.222 112.445C215.064 108.278 212.764 103.599 212.143 99.1018Z" fill="#2A2A30"/>
<path d="M193.476 101.947L192.221 72.7595C192.083 70.9552 191.584 69.197 190.752 67.5896C189.921 65.9823 188.774 64.5587 187.38 63.4036C185.986 62.2485 184.374 61.3856 182.64 60.8662C180.906 60.3468 179.085 60.1816 177.285 60.3805C173.794 60.7733 170.583 62.4746 168.298 65.1411C166.013 67.8076 164.825 71.2409 164.973 74.7485C165.23 81.0323 165.648 87.3567 166.093 89.5817C167.503 96.324 172.036 98.1579 173.824 98.6299C174.451 98.7232 175.087 98.7526 175.72 98.7176C175.732 98.7176 175.744 98.7225 175.753 98.7314C175.762 98.7402 175.767 98.7522 175.767 98.7647V110.308L193.476 101.947Z" fill="#FFBE9D"/>
<path d="M174.736 84.8277C174.094 84.6662 173.434 84.5847 172.773 84.585C172.469 84.585 172.172 84.5243 172.098 84.322C172.059 84.0107 172.118 83.6951 172.267 83.4186C172.516 82.6769 172.786 81.9015 173.063 81.0857C174.169 77.7685 174.958 75.0176 174.823 75.0176C174.688 75.0176 173.677 77.6336 172.57 80.9509C172.307 81.7734 172.051 82.5488 171.808 83.2972C171.633 83.6679 171.597 84.0889 171.707 84.4839C171.756 84.5874 171.829 84.6782 171.919 84.7495C172.009 84.8207 172.114 84.8706 172.226 84.8951C172.399 84.9322 172.576 84.9481 172.752 84.9423C173.416 84.9874 174.082 84.9489 174.736 84.8277V84.8277Z" fill="#2A2A30"/>
<path d="M166.768 78.5172C166.778 78.8045 166.902 79.0761 167.111 79.273C167.321 79.4699 167.6 79.5763 167.887 79.569C168.029 79.5735 168.17 79.5497 168.303 79.499C168.435 79.4483 168.556 79.3718 168.658 79.2739C168.761 79.1759 168.842 79.0585 168.899 78.9286C168.955 78.7987 168.985 78.6588 168.987 78.5172C168.976 78.2298 168.853 77.9583 168.643 77.7613C168.434 77.5644 168.155 77.4581 167.867 77.4654C167.726 77.4609 167.584 77.4847 167.452 77.5353C167.32 77.586 167.199 77.6626 167.096 77.7605C166.994 77.8585 166.912 77.9758 166.856 78.1057C166.799 78.2357 166.769 78.3755 166.768 78.5172V78.5172Z" fill="#2A2A30"/>
<path d="M166.776 75.9279C166.884 76.0492 167.774 75.9953 168.908 76.3796C170.041 76.7639 170.783 77.3505 170.932 77.3168C171.08 77.2831 170.932 77.1213 170.588 76.8583C170.11 76.4815 169.568 76.1937 168.989 76.0088C168.437 75.8117 167.853 75.7225 167.268 75.7458C166.877 75.7795 166.722 75.8739 166.776 75.9279Z" fill="#2A2A30"/>
<path d="M178.521 78.5183C178.534 78.805 178.658 79.0756 178.867 79.2721C179.076 79.4687 179.354 79.5756 179.641 79.5701C179.782 79.5746 179.923 79.551 180.055 79.5007C180.187 79.4505 180.307 79.3745 180.41 79.2773C180.512 79.1801 180.594 79.0635 180.651 78.9344C180.708 78.8052 180.738 78.6661 180.741 78.525C180.73 78.2377 180.607 77.9661 180.397 77.7692C180.188 77.5723 179.909 77.4659 179.621 77.4732C179.48 77.4687 179.339 77.4923 179.208 77.5425C179.076 77.5928 178.955 77.6687 178.853 77.766C178.75 77.8632 178.668 77.9798 178.612 78.1089C178.555 78.238 178.524 78.3772 178.521 78.5183V78.5183Z" fill="#2A2A30"/>
<path d="M179.013 76.914C179.188 76.914 179.836 76.2398 181.003 75.66C182.17 75.0801 183.189 74.9857 183.277 74.8576C183.364 74.7295 183.115 74.7295 182.663 74.77C182.013 74.8478 181.381 75.0347 180.794 75.3228C180.222 75.5884 179.703 75.9563 179.263 76.4084C178.979 76.7252 178.925 76.914 179.013 76.914Z" fill="#2A2A30"/>
<path d="M175.756 98.7453C175.756 98.7453 180.397 98.8802 186.017 95.1719C186.017 95.1719 184.472 101.24 175.756 100.91V98.7453Z" fill="#EB996E"/>
<path d="M175.37 87.6397C175.587 87.3455 175.874 87.1101 176.205 86.9547C176.536 86.7993 176.9 86.7288 177.266 86.7497C177.531 86.7648 177.791 86.8321 178.031 86.9478C178.271 87.0635 178.485 87.2253 178.662 87.4239C178.83 87.6128 178.935 87.8492 178.963 88.1004C178.991 88.3516 178.94 88.6053 178.817 88.8263C178.633 89.0472 178.387 89.209 178.111 89.2917C177.835 89.3744 177.541 89.3743 177.266 89.2915C176.693 89.1265 176.158 88.8492 175.694 88.4757C175.556 88.3875 175.435 88.2756 175.336 88.1453C175.292 88.081 175.268 88.0045 175.268 87.9262C175.268 87.8479 175.292 87.7714 175.336 87.7071" fill="#EB996E"/>
<path d="M178.291 85.463C178.095 85.463 178.156 86.7373 177.083 87.7015C176.011 88.6656 174.621 88.5982 174.621 88.7735C174.621 88.9488 174.938 89.0095 175.525 88.9893C176.285 88.9645 177.012 88.676 177.583 88.1734C178.126 87.6938 178.46 87.0212 178.514 86.299C178.541 85.7597 178.379 85.4563 178.291 85.463Z" fill="#2A2A30"/>
<path d="M178.202 72.1664C178.37 72.4631 179.551 72.1057 180.941 72.0315C182.33 71.9574 183.531 72.1327 183.673 71.8158C183.727 71.6675 183.484 71.4045 182.998 71.1753C182.333 70.8973 181.612 70.7817 180.893 70.8381C180.169 70.8761 179.465 71.0839 178.836 71.445C178.343 71.7349 178.128 72.0248 178.202 72.1664Z" fill="#2A2A30"/>
<path d="M166.794 72.3486C167.017 72.6048 167.826 72.2879 168.818 72.2205C169.81 72.153 170.66 72.3081 170.842 72.0182C170.916 71.8834 170.774 71.6204 170.397 71.3844C169.889 71.1024 169.308 70.9802 168.73 71.0338C168.149 71.07 167.593 71.2842 167.138 71.6474C166.801 71.944 166.693 72.2205 166.794 72.3486Z" fill="#2A2A30"/>
<path d="M176.232 58.8508C176.555 58.3097 176.984 57.8399 177.495 57.4701C178.005 57.1003 178.585 56.8383 179.2 56.7C184.462 55.5875 190.817 57.6709 195.391 63.4424C198.73 67.6361 200.707 80.3455 193.063 92.6975L190.925 81.3838C186.783 81.0602 178.195 68.0204 175.503 62.1816C175.051 61.1837 175.672 59.761 176.232 58.8508Z" fill="#2A2A30"/>
<path d="M167.254 60.8326C169.52 58.3514 174.155 54.2049 181.63 57.5558C182.304 58.8571 175.774 61.4327 174.614 62.3901C172.914 63.7925 171.436 64.7297 170.323 65.7613C168.063 67.784 165.257 71.1552 164.967 74.9646C164.967 75.2073 165.189 78.8684 164.967 78.828C164.744 78.7875 163.739 76.8592 163.408 74.7826C162.693 70.3394 164.987 63.3138 167.254 60.8326Z" fill="#2A2A30"/>
<path d="M190.818 78.1938C190.94 78.1264 195.878 76.2857 196.094 81.4436C196.31 86.6015 191.081 85.752 191.068 85.6037C191.054 85.4553 190.818 78.1938 190.818 78.1938Z" fill="#FFBE9D"/>
<path d="M192.559 83.5805C192.559 83.5805 192.654 83.6411 192.809 83.7086C193.025 83.7956 193.267 83.7956 193.483 83.7086C194.016 83.4861 194.441 82.6028 194.428 81.6858C194.423 81.2438 194.319 80.8086 194.124 80.4115C194.074 80.2535 193.986 80.1098 193.869 79.9924C193.752 79.8751 193.608 79.7877 193.45 79.7373C193.345 79.7147 193.236 79.7294 193.141 79.7786C193.047 79.8278 192.972 79.9086 192.93 80.007C192.87 80.1486 192.93 80.2565 192.876 80.2632C192.822 80.27 192.762 80.1823 192.795 79.9665C192.821 79.8389 192.887 79.7229 192.984 79.6362C193.052 79.5793 193.131 79.5363 193.215 79.5097C193.3 79.4831 193.388 79.4734 193.477 79.4811C193.69 79.5148 193.891 79.6026 194.061 79.7359C194.231 79.8692 194.365 80.0438 194.448 80.243C194.687 80.6795 194.814 81.1681 194.819 81.6656C194.819 82.7107 194.34 83.6883 193.605 83.9513C193.468 83.9967 193.322 84.0113 193.179 83.9938C193.035 83.9763 192.897 83.9272 192.775 83.8502C192.579 83.7086 192.546 83.5939 192.559 83.5805Z" fill="#EB996E"/>
<path d="M169.123 110.792C169.325 112.464 169.98 114.413 168.833 115.653C168.233 116.327 167.302 116.509 166.499 116.887C165.637 117.304 164.896 117.933 164.344 118.715C163.791 119.497 163.447 120.406 163.342 121.357C163.16 123.252 162.708 124.85 164.246 125.982C167.828 120.831 172.051 115.37 175.748 110.313V100.092C172.037 100.914 168.678 107.003 169.123 110.792Z" fill="#2A2A30"/>
<path d="M141.983 156.264C142.149 156.002 142.262 155.71 142.315 155.404C142.368 155.098 142.359 154.785 142.289 154.482C142.22 154.18 142.09 153.894 141.909 153.642C141.728 153.39 141.498 153.177 141.234 153.014L113.744 136.158L108.738 101.772C108.67 101.3 108.432 100.869 108.068 100.561C107.703 100.253 107.238 100.089 106.761 100.1V100.1C106.487 100.106 106.217 100.17 105.969 100.287C105.721 100.405 105.501 100.573 105.322 100.781C105.143 100.988 105.01 101.232 104.932 101.494C104.853 101.757 104.831 102.033 104.866 102.305L109.682 138.444L141.983 156.264Z" fill="#2A2A30"/>
<path d="M197.288 105.271C197.288 105.271 186.495 102.689 183.796 113.025C181.845 120.135 179.45 127.115 176.625 133.926L201.316 139.111C201.316 139.111 209.391 111.73 197.288 105.271Z" fill="#59B039"/>
<path d="M201.329 139.117C201.163 139.109 200.999 139.087 200.837 139.049L199.427 138.78L194.205 137.734L176.612 134.094L176.416 134.053L176.49 133.864C176.996 132.57 177.489 131.167 177.974 129.785C179.29 125.929 180.41 122.2 181.26 118.775C181.476 117.919 181.651 117.069 181.88 116.26C182.11 115.451 182.373 114.669 182.649 113.934C182.926 113.199 183.209 112.484 183.499 111.81C183.75 111.149 184.066 110.514 184.444 109.916C185.143 108.916 186.018 108.052 187.028 107.367C187.778 106.838 188.592 106.406 189.449 106.079C189.988 105.864 190.553 105.723 191.129 105.661C191.329 105.642 191.53 105.642 191.73 105.661C191.533 105.696 191.335 105.721 191.136 105.735C190.573 105.831 190.023 105.992 189.497 106.214C188.661 106.568 187.87 107.021 187.142 107.562C186.167 108.248 185.323 109.105 184.653 110.091C184.288 110.682 183.983 111.307 183.742 111.958C183.466 112.633 183.182 113.307 182.919 114.069C182.656 114.831 182.393 115.579 182.177 116.381C181.961 117.184 181.786 118.027 181.57 118.89C180.734 122.335 179.62 126.07 178.298 129.94C177.819 131.349 177.313 132.732 176.807 134.033L176.686 133.804L194.226 137.552L199.427 138.699L200.823 139.022C200.994 139.042 201.163 139.074 201.329 139.117V139.117Z" fill="#2A2A30"/>
<path d="M202.065 134.809C202.085 134.494 202.14 134.182 202.227 133.879C202.362 133.292 202.53 132.429 202.713 131.364C203.68 125.808 203.639 120.124 202.591 114.582C202.389 113.517 202.207 112.661 202.065 112.074C201.98 111.772 201.919 111.463 201.883 111.15C202.018 111.435 202.122 111.733 202.193 112.04C202.375 112.62 202.598 113.47 202.827 114.528C204.013 120.08 204.056 125.815 202.955 131.384C202.74 132.45 202.53 133.306 202.355 133.886C202.286 134.201 202.189 134.511 202.065 134.809Z" fill="#2A2A30"/>
<path d="M196.283 185.141C196.135 185.208 195.982 185.262 195.825 185.303C195.521 185.404 195.062 185.532 194.475 185.674C192.793 186.08 191.066 186.277 189.335 186.261C186.746 186.223 184.202 185.571 181.914 184.359C180.566 183.658 179.305 182.8 178.157 181.804C177.551 181.275 176.981 180.708 176.45 180.105C175.903 179.491 175.424 178.824 174.912 178.17C173.028 175.692 170.936 173.38 168.658 171.259C166.694 169.64 164.64 168.134 162.506 166.748C161.072 165.787 159.7 164.738 158.397 163.606C157.952 163.195 157.608 162.865 157.392 162.629C157.274 162.515 157.165 162.391 157.068 162.258C157.2 162.353 157.325 162.459 157.439 162.575C157.669 162.797 158.026 163.107 158.492 163.505C159.818 164.592 161.203 165.604 162.641 166.539C164.804 167.903 166.883 169.396 168.867 171.009C171.171 173.136 173.284 175.459 175.182 177.954C175.701 178.628 176.173 179.302 176.706 179.876C177.226 180.469 177.785 181.028 178.379 181.548C179.504 182.531 180.74 183.38 182.063 184.076C184.299 185.277 186.784 185.94 189.321 186.011C191.034 186.048 192.744 185.892 194.421 185.546C195.022 185.418 195.481 185.317 195.771 185.236C195.937 185.185 196.109 185.153 196.283 185.141Z" fill="#2A2A30"/>
<path d="M188.214 116.336L188.268 117.32C188.43 117.705 188.699 118.035 189.044 118.271L189.961 118.561L189.01 118.622C188.625 118.784 188.295 119.053 188.059 119.397L187.843 120.294L187.708 119.363C187.543 118.982 187.274 118.655 186.932 118.419L186.021 118.123L186.966 118.062C187.349 117.9 187.677 117.63 187.91 117.287L188.214 116.336Z" fill="white"/>
<path d="M192.922 123.408L192.881 124.399C193.004 124.794 193.238 125.146 193.556 125.411L194.44 125.788H193.489C193.092 125.912 192.739 126.146 192.47 126.462L192.173 127.332L192.126 126.388C191.999 125.993 191.766 125.641 191.451 125.37L190.574 124.999H191.519C191.914 124.878 192.266 124.643 192.531 124.325L192.922 123.408Z" fill="white"/>
<path d="M199.508 119.801V120.387C199.584 120.62 199.724 120.825 199.912 120.981L200.439 121.21H199.872C199.638 121.285 199.429 121.426 199.271 121.614L199.096 122.127V121.574C199.021 121.34 198.88 121.132 198.691 120.974L198.172 120.758H198.732C198.964 120.682 199.17 120.542 199.325 120.354L199.508 119.801Z" fill="white"/>
<path d="M198.584 130.623V131.203C198.662 131.436 198.802 131.644 198.989 131.803L199.515 132.025H198.949C198.717 132.101 198.511 132.242 198.355 132.43L198.18 132.942L198.146 132.39C198.072 132.154 197.932 131.946 197.741 131.789L197.229 131.567H197.782C198.018 131.496 198.227 131.355 198.382 131.162L198.584 130.623Z" fill="white"/>
<path d="M184.031 127.736V128.316C184.102 128.552 184.243 128.761 184.435 128.916L184.955 129.139H184.395C184.16 129.212 183.951 129.353 183.795 129.543L183.619 130.056L183.585 129.503C183.512 129.268 183.371 129.059 183.181 128.903L182.668 128.68H183.221C183.454 128.603 183.662 128.463 183.822 128.276L184.031 127.736Z" fill="white"/>
<path d="M194.562 110.354V110.94C194.638 111.174 194.778 111.382 194.967 111.54L195.493 111.763H194.927C194.692 111.838 194.484 111.978 194.326 112.167L194.151 112.68V112.127C194.075 111.895 193.934 111.689 193.746 111.533L193.227 111.311H193.786C194.019 111.235 194.225 111.095 194.38 110.906L194.562 110.354Z" fill="white"/>
<path d="M201.328 135.619C201.328 135.713 196.039 134.628 189.563 133.199C183.087 131.769 177.845 130.502 177.865 130.427C177.886 130.353 183.161 131.419 189.637 132.855C196.113 134.291 201.348 135.525 201.328 135.619Z" fill="white"/>
<path d="M200.795 136.966C200.795 137.061 195.506 135.975 189.03 134.539C182.554 133.103 177.312 131.842 177.332 131.775C177.352 131.707 182.621 132.766 189.104 134.202C195.587 135.638 200.815 136.872 200.795 136.966Z" fill="white"/>
<path d="M154.861 148.153C153.446 148.046 152.042 147.821 150.665 147.479C149.264 147.251 147.886 146.906 146.543 146.447C147.955 146.558 149.356 146.784 150.732 147.121C152.134 147.354 153.515 147.699 154.861 148.153V148.153Z" fill="white"/>
<path d="M197.288 105.271C197.288 105.271 186.495 102.689 183.796 113.025C181.845 120.135 179.45 127.115 176.625 133.926L201.316 139.111C201.316 139.111 209.391 111.73 197.288 105.271Z" fill="#59B039"/>
<path d="M201.329 139.117C201.163 139.109 200.999 139.087 200.837 139.049L199.427 138.78L194.205 137.734L176.612 134.094L176.416 134.053L176.49 133.864C176.996 132.57 177.489 131.167 177.974 129.785C179.29 125.929 180.41 122.2 181.26 118.775C181.476 117.919 181.651 117.069 181.88 116.26C182.11 115.451 182.373 114.669 182.649 113.934C182.926 113.199 183.209 112.484 183.499 111.81C183.75 111.149 184.066 110.514 184.444 109.916C185.143 108.916 186.018 108.052 187.028 107.367C187.778 106.838 188.592 106.406 189.449 106.079C189.988 105.864 190.553 105.723 191.129 105.661C191.329 105.642 191.53 105.642 191.73 105.661C191.533 105.696 191.335 105.721 191.136 105.735C190.573 105.831 190.023 105.992 189.497 106.214C188.661 106.568 187.87 107.021 187.142 107.562C186.167 108.248 185.323 109.105 184.653 110.091C184.288 110.682 183.983 111.307 183.742 111.958C183.466 112.633 183.182 113.307 182.919 114.069C182.656 114.831 182.393 115.579 182.177 116.381C181.961 117.184 181.786 118.027 181.57 118.89C180.734 122.335 179.62 126.07 178.298 129.94C177.819 131.349 177.313 132.732 176.807 134.033L176.686 133.804L194.226 137.552L199.427 138.699L200.823 139.022C200.994 139.042 201.163 139.074 201.329 139.117V139.117Z" fill="#2A2A30"/>
<path d="M180.192 134.871L173.695 150.588L145.328 145.14C145.328 145.14 133.185 135.7 132.787 135.397L129.286 135.882L123.565 135.727L118.479 138.472L117.615 138.62L141.281 153.271L168.771 168.913C170.579 170.122 172.656 170.869 174.819 171.09C176.983 171.311 179.168 170.999 181.184 170.181C182.901 169.484 184.455 168.435 185.744 167.104C187.034 165.772 188.031 164.186 188.672 162.447L197.523 138.411L180.192 134.871Z" fill="#FFBE9D"/>
<path d="M118.789 138.301C119.286 138.116 119.802 137.985 120.327 137.91C121.285 137.715 122.614 137.465 124.091 137.236L125.441 137H125.481H125.522C126.628 137.344 127.579 137.674 128.254 137.897C128.625 137.994 128.982 138.141 129.313 138.335C128.932 138.301 128.556 138.222 128.193 138.099C127.518 137.917 126.534 137.647 125.42 137.317H125.501L124.152 137.56C122.682 137.816 121.346 138.032 120.374 138.166C119.852 138.269 119.321 138.314 118.789 138.301V138.301Z" fill="#EB996E"/>
<path d="M120.254 140.149C121.8 139.955 123.358 139.877 124.915 139.913H126.029H126.069C127.167 140.366 128.225 140.909 129.233 141.538C128.099 141.19 126.996 140.75 125.934 140.223H126.002H124.895C123.349 140.318 121.797 140.293 120.254 140.149V140.149Z" fill="#EB996E"/>
<path d="M180.192 134.871C180.169 134.975 180.135 135.077 180.091 135.174L179.767 136.031C179.457 136.806 179.018 137.892 178.479 139.26L173.837 150.662L173.79 150.776H173.669L160.035 148.181L145.301 145.268H145.261L136.214 138.155L133.691 136.132L133.017 135.586C132.936 135.53 132.864 135.465 132.801 135.39C132.888 135.434 132.97 135.488 133.044 135.552L133.718 136.058L136.295 138.006L145.423 145.012H145.355L160.102 147.823L173.723 150.459L173.554 150.547L178.276 139.206L179.625 136.017L179.996 135.174C180.05 135.067 180.116 134.965 180.192 134.871Z" fill="#EB996E"/>
<rect x="15" y="204" width="194" height="1" fill="#D7D9DB"/>
</svg>
