<svg width="233" height="174" viewBox="0 0 233 174" fill="none" xmlns="http://www.w3.org/2000/svg">
<path d="M72.3896 0.5L127.306 57.7823V172.347M72.3896 0.5H190.21L232.146 48.3183V172.347H127.306M72.3896 0.5L24.9619 56.288V172.347H127.306" stroke="#2A2A30"/>
<path d="M87.3663 50.8086C87.3663 59.3344 80.4387 66.248 71.8907 66.248C63.3426 66.248 56.415 59.3344 56.415 50.8086C56.415 42.2827 63.3426 35.3691 71.8907 35.3691C80.4387 35.3691 87.3663 42.2827 87.3663 50.8086Z" stroke="#2A2A30"/>
<path d="M167.231 24.5547C165.639 25.3052 164.86 27.1706 164.746 28.9055C164.631 30.6403 165.04 32.4024 165.138 34.159C165.236 35.9156 164.953 37.8245 163.726 39.0536C162.314 40.5111 159.774 41.0006 159.218 42.9475C158.662 44.8945 160.445 46.7164 160.107 48.6307C159.9 49.8109 158.93 50.7137 157.927 51.35C156.924 51.9863 155.746 52.4105 154.814 53.1555C153.998 53.8188 153.372 54.6847 152.998 55.6661C152.624 56.6474 152.515 57.7097 152.683 58.7463C152.917 60.0678 153.593 61.2643 154.084 62.5097C154.574 63.7551 154.88 65.1854 154.356 66.4199C153.473 68.5083 150.781 69.0576 149.102 70.5858C148.183 71.4731 147.598 72.6491 147.447 73.9159C147.295 75.1827 147.585 76.463 148.268 77.5416C148.911 78.4987 149.903 79.4396 149.701 80.5708C149.44 81.9358 147.679 82.3002 146.289 82.3655L155.092 89.7183C155.092 89.7183 160.587 88.2118 161.884 85.5252C163.181 82.8386 165.094 82.0827 165.094 82.0827C165.094 82.0827 163.067 92.2961 158.973 92.9596L174.061 100.704L187.067 51.5621L167.231 24.5547Z" fill="#2A2A30"/>
<path d="M216.187 46.3125C217.277 49.4831 214.83 52.2567 216.552 55.0684C217.381 56.4172 218.597 57.5755 219.022 59.0983C219.627 61.2737 218.477 63.6231 219.065 65.7876C219.774 68.4198 222.728 69.8284 223.917 72.2811C225.35 75.2505 223.846 78.7474 222.227 81.6244C220.608 84.5013 218.804 87.7263 219.692 90.897C215.423 90.5061 211.181 89.8687 206.986 88.9881C210.256 77.4015 211.348 65.3113 210.208 53.3281" fill="#2A2A30"/>
<path d="M150.301 45.2246L145.908 8.01467L145.303 0.172415L118.011 0.128906C118.011 0.128906 118.801 0.960988 119.324 1.4015C119.848 1.84202 135.459 4.72984 135.459 4.72984V6.53541V48.3517C135.458 50.0313 135.865 51.6862 136.643 53.1756C137.421 54.665 138.548 55.9449 139.928 56.9064L174.814 81.1837L185.17 66.3367L150.301 45.2246Z" fill="#FFBE9D"/>
<path d="M174.378 84.6958L161.498 75.3036L167.112 55.4043L186.299 65.4111L174.378 84.6958Z" fill="#59B039"/>
<path d="M54.6989 143.34L41.2626 153.357C41.2626 153.357 27.5593 142.421 24.9102 144.031L42.4345 171.397L64.0088 156.642L54.6989 143.34Z" fill="#59B039"/>
<path d="M42.4187 171.397L44.5991 169.912L26.7476 144.069C26.4234 143.882 26.0576 143.78 25.6835 143.77C25.3094 143.761 24.9388 143.845 24.6055 144.014L42.4187 171.397Z" fill="#2A2A30"/>
<path d="M88.0905 156.132L84.0624 163.463V172.099H48.8664C48.8664 172.099 47.422 169.026 49.6786 168.069C51.9353 167.112 69.4324 159.221 69.4324 159.221L76.7365 148.447L88.0905 156.132Z" fill="#59B039"/>
<path d="M84.063 172.099V169.766L48.4092 170.929L48.867 172.099H84.063Z" fill="#2A2A30"/>
<path d="M109.268 106.08C109.268 106.08 99.729 106.82 96.3222 109.055C92.9155 111.29 50.4863 144.128 50.4863 144.128L61.388 159.611L90.1901 144.612L109.268 106.08Z" fill="#2A2A30"/>
<path d="M210.352 146.566C210.352 146.566 206.727 162.435 205.789 164.882C204.476 168.325 190.952 176.129 174.425 171.909C157.348 167.558 116.707 134.601 116.707 134.601L112.64 137.581L87.2233 161.135C87.2233 161.135 72.626 155.153 72.626 149.111C72.626 149.111 103.521 102.068 106.339 101.182C109.157 100.295 112.041 99.4198 115.464 100.138C118.887 100.856 170.261 128.961 170.261 128.961L210.352 146.566Z" fill="#2A2A30"/>
<path d="M116.505 127.346C116.39 127.28 115.616 128.896 115.693 131.049C115.769 133.203 116.619 134.764 116.728 134.693C116.837 134.622 116.254 133.061 116.183 131.033C116.112 129.004 116.652 127.389 116.505 127.346Z" fill="#455A64"/>
<path d="M112.937 128.717C112.811 128.766 113.291 130.229 114.234 131.866C115.177 133.503 116.207 134.65 116.311 134.585C116.414 134.52 115.602 133.231 114.675 131.626C113.749 130.022 113.073 128.657 112.937 128.717Z" fill="#455A64"/>
<path d="M201.633 24.2927C198.907 18.4572 194.127 14.6612 184.441 13.8509C174.139 12.9916 157.857 24.7604 168.595 39.8141L199.06 50.4843C202.09 49.5217 203.655 46.1825 204.282 43.0771C205.552 36.774 204.358 30.1227 201.633 24.2927Z" fill="#2A2A30"/>
<path d="M184.003 72.351C182.34 64.487 181.408 59.799 181.413 59.8425C181.419 59.886 174.398 60.0329 171.264 51.4619C169.711 47.1981 168.539 39.9378 167.748 33.9664C167.051 28.5986 169.307 21.3981 174.714 20.9141L192.081 21.8821C192.874 21.8132 193.664 22.0437 194.295 22.5281C194.926 23.0125 195.351 23.7155 195.487 24.498L201.085 58.8799" fill="#FFBE9D"/>
<path d="M170.301 39.5631C170.352 39.8586 170.516 40.1226 170.76 40.2984C171.003 40.4743 171.306 40.548 171.604 40.5039C171.75 40.4906 171.892 40.4478 172.022 40.3781C172.151 40.3084 172.265 40.2132 172.357 40.0984C172.449 39.9835 172.516 39.8514 172.555 39.7098C172.594 39.5683 172.604 39.4203 172.585 39.2748C172.534 38.9803 172.37 38.7173 172.128 38.5416C171.885 38.3659 171.584 38.2914 171.287 38.334C171.14 38.3466 170.997 38.389 170.867 38.4584C170.737 38.5278 170.623 38.6228 170.53 38.7377C170.438 38.8526 170.37 38.985 170.331 39.1269C170.291 39.2688 170.281 39.4172 170.301 39.5631Z" fill="#2A2A30"/>
<path d="M182.177 37.4318C182.226 37.7269 182.39 37.9909 182.633 38.1668C182.875 38.3428 183.177 38.4167 183.474 38.3726C183.621 38.3593 183.764 38.3164 183.894 38.2463C184.024 38.1763 184.138 38.0807 184.23 37.9652C184.321 37.8498 184.389 37.7169 184.427 37.5747C184.466 37.4326 184.476 37.284 184.455 37.1381C184.404 36.8436 184.24 36.5806 183.998 36.4049C183.756 36.2292 183.454 36.1547 183.158 36.1973C183.011 36.2106 182.868 36.2535 182.738 36.3236C182.608 36.3936 182.494 36.4893 182.402 36.6047C182.31 36.7202 182.243 36.853 182.204 36.9952C182.165 37.1373 182.156 37.2859 182.177 37.4318Z" fill="#2A2A30"/>
<path d="M170.137 36.9736C170.3 37.0987 171.063 36.321 172.317 36.1306C173.571 35.9403 174.552 36.408 174.661 36.234C174.715 36.1578 174.53 35.9131 174.089 35.6901C173.498 35.4054 172.833 35.3104 172.186 35.4182C171.546 35.5184 170.954 35.8193 170.497 36.2775C170.142 36.631 170.055 36.9301 170.137 36.9736Z" fill="#2A2A30"/>
<path d="M181.806 35.0167C181.974 35.1363 182.71 34.326 183.931 34.0867C185.152 33.8474 186.177 34.2825 186.281 34.0867C186.33 34.0051 186.133 33.7658 185.686 33.5429C185.084 33.283 184.416 33.2147 183.773 33.3471C183.145 33.4767 182.573 33.8001 182.138 34.2716C181.8 34.6686 181.724 34.9623 181.806 35.0167Z" fill="#2A2A30"/>
<path d="M179.447 45.23C178.761 45.1533 178.069 45.1624 177.386 45.2572C177.07 45.2844 176.759 45.2844 176.667 45.0777C176.575 44.7618 176.585 44.4254 176.694 44.1151C176.841 43.3048 176.994 42.4509 177.157 41.559C177.784 37.9316 178.171 34.973 178.024 34.9513C177.877 34.9295 177.25 37.8446 176.628 41.4774C176.481 42.3693 176.34 43.2232 176.203 44.0335C176.08 44.4482 176.107 44.893 176.28 45.2898C176.347 45.3914 176.436 45.4764 176.541 45.5386C176.646 45.6008 176.763 45.6384 176.885 45.6487C177.067 45.6613 177.25 45.6504 177.43 45.6161C178.116 45.572 178.793 45.4422 179.447 45.23Z" fill="#2A2A30"/>
<path d="M181.414 59.8428C185.599 59.1031 189.498 57.2206 192.675 54.4043C192.675 54.4043 190.871 61.1371 181.834 62.0181L181.414 59.8428Z" fill="#EB996E"/>
<path d="M186.87 29.9814C186.75 29.6442 185.502 29.791 184.041 29.6007C182.58 29.4103 181.403 29.0024 181.206 29.3016C181.119 29.4484 181.321 29.7693 181.795 30.101C182.425 30.515 183.144 30.7741 183.894 30.8569C184.64 30.9543 185.399 30.8723 186.107 30.6177C186.646 30.4056 186.913 30.1445 186.87 29.9814Z" fill="#2A2A30"/>
<path d="M173.227 30.9097C172.9 30.7629 172.273 31.4155 171.363 31.8995C170.453 32.3835 169.581 32.6065 169.537 32.96C169.537 33.1286 169.777 33.319 170.24 33.3788C170.845 33.4367 171.453 33.3056 171.979 33.0035C172.513 32.7181 172.944 32.2731 173.211 31.7309C173.402 31.3013 173.374 30.9913 173.227 30.9097Z" fill="#2A2A30"/>
<path d="M196.225 36.3867C196.345 36.2996 200.585 33.3629 201.648 38.6545C202.711 43.9461 197.189 43.9352 197.151 43.783C197.113 43.6307 196.225 36.3867 196.225 36.3867Z" fill="#FFBE9D"/>
<path d="M198.361 41.4663C198.361 41.4663 198.47 41.5153 198.639 41.5534C198.878 41.6018 199.125 41.557 199.332 41.4283C199.877 41.1074 200.138 40.123 199.969 39.1659C199.884 38.7083 199.698 38.2755 199.424 37.8987C199.338 37.7478 199.217 37.6196 199.071 37.525C198.925 37.4304 198.758 37.372 198.585 37.3549C198.473 37.3489 198.362 37.382 198.271 37.4484C198.181 37.5149 198.116 37.6106 198.089 37.7192C198.051 37.8824 198.089 37.9803 198.089 37.9966C198.089 38.0129 197.958 37.9313 197.958 37.7029C197.962 37.5656 198.012 37.4334 198.1 37.3277C198.222 37.1894 198.395 37.1052 198.579 37.0938C198.806 37.0914 199.029 37.1471 199.228 37.2557C199.426 37.3643 199.593 37.5221 199.713 37.7138C200.033 38.1254 200.246 38.6091 200.335 39.1224C200.52 40.2101 200.176 41.2977 199.457 41.6784C199.323 41.7491 199.176 41.7887 199.025 41.7944C198.874 41.8 198.723 41.7715 198.585 41.7111C198.394 41.5969 198.361 41.4827 198.361 41.4663Z" fill="#EB996E"/>
<path d="M182.035 48.7055C181.768 48.2938 181.57 47.8421 181.446 47.3676C181.389 47.1301 181.389 46.8823 181.447 46.6449C181.505 46.4074 181.618 46.1872 181.779 46.0025C181.949 45.8526 182.15 45.7414 182.367 45.6766C182.584 45.6118 182.813 45.595 183.038 45.6273C183.429 45.6636 183.805 45.7907 184.137 45.9985C184.47 46.2063 184.748 46.4889 184.951 46.8238C185.174 47.158 185.26 47.5649 185.191 47.9604C184.886 48.542 184.375 48.9897 183.758 49.2167C182.76 49.4342 182.438 48.8849 182.035 48.7055Z" fill="#EB996E"/>
<path d="M181.693 49.4825C181.889 49.5151 182.047 48.199 183.29 47.3995C184.532 46.6001 185.922 46.9046 185.955 46.7197C185.982 46.6436 185.672 46.4261 185.078 46.3445C184.305 46.2392 183.52 46.4128 182.865 46.8339C182.234 47.2347 181.784 47.8647 181.611 48.5906C181.496 49.1344 181.605 49.477 181.693 49.4825Z" fill="#2A2A30"/>
<path d="M172.289 20.1098C179.936 26.1915 189.123 30.0393 198.829 31.226C199.347 27.6529 197.614 23.9657 194.834 21.6597C192.054 19.3538 188.358 18.3151 184.739 18.2933C181.119 18.2716 177.56 19.2016 174.164 20.4687" fill="#2A2A30"/>
<path d="M196.727 26.3535L191.222 27.8328C191.222 32.9232 191.325 38.3671 194.329 42.571C195.015 43.5282 195.855 44.4309 196.176 45.5567C196.901 48.1073 194.694 50.7015 195.054 53.3228C195.061 53.4676 195.096 53.6095 195.159 53.7403C195.222 53.871 195.31 53.988 195.419 54.0842C195.893 54.4268 196.569 54.0081 196.94 53.5404C198.575 51.6043 198.689 48.9231 198.673 46.4704C198.622 39.7205 197.971 32.9885 196.727 26.3535Z" fill="#2A2A30"/>
<path d="M176.708 39.4154C176.661 38.9654 176.586 38.5186 176.485 38.0776C176.163 36.8826 175.447 35.8308 174.452 35.0919C173.777 34.5811 172.991 34.2364 172.157 34.0858C171.2 33.9148 170.215 33.9992 169.301 34.3305C168.81 34.5075 168.349 34.7568 167.933 35.0701C167.492 35.3911 167.106 35.7803 166.788 36.2231C166.105 37.1489 165.736 38.2685 165.736 39.4182C165.736 40.5678 166.105 41.6874 166.788 42.6133C167.106 43.056 167.492 43.4452 167.933 43.7662C168.349 44.0795 168.81 44.3288 169.301 44.5058C170.215 44.8371 171.2 44.9216 172.157 44.7506C172.991 44.6 173.777 44.2552 174.452 43.7445C175.447 43.0056 176.163 41.9537 176.485 40.7587C176.587 40.316 176.662 39.8674 176.708 39.4154C176.743 39.8757 176.702 40.3385 176.589 40.7859C176.3 42.0271 175.589 43.1301 174.577 43.9076C173.826 44.486 172.941 44.8664 172.003 45.0137C171.066 45.161 170.107 45.0705 169.214 44.7506C168.696 44.5689 168.209 44.3104 167.769 43.9837C167.305 43.6491 166.898 43.2413 166.565 42.7764C165.843 41.8048 165.453 40.6275 165.453 39.4182C165.453 38.2088 165.843 37.0315 166.565 36.0599C166.898 35.595 167.305 35.1872 167.769 34.8526C168.209 34.5259 168.696 34.2674 169.214 34.0858C170.107 33.7658 171.066 33.6753 172.003 33.8226C172.941 33.9699 173.826 34.3503 174.577 34.9287C175.59 35.7053 176.301 36.8087 176.589 38.0504C176.702 38.4959 176.743 38.957 176.708 39.4154Z" fill="#455A64"/>
<path d="M190.184 36.6048C190.137 36.1529 190.063 35.7043 189.961 35.2615C189.636 34.0691 188.923 33.0185 187.933 32.2758C187.207 31.7289 186.354 31.3729 185.454 31.2408C184.554 31.1087 183.635 31.2047 182.782 31.5199C182.287 31.6917 181.824 31.9414 181.408 32.2595C180.966 32.577 180.58 32.9647 180.264 33.407C179.58 34.3329 179.212 35.4524 179.212 36.6021C179.212 37.7518 179.58 38.8713 180.264 39.7972C180.896 40.6632 181.773 41.3219 182.782 41.6898C183.636 42.0025 184.554 42.0971 185.454 41.9651C186.353 41.8331 187.206 41.4785 187.933 40.9338C188.924 40.1903 189.638 39.1375 189.961 37.9427C190.063 37.5017 190.137 37.0549 190.184 36.6048C190.218 37.0633 190.178 37.5243 190.064 37.9699C189.777 39.2116 189.066 40.315 188.053 41.0916C187.357 41.6355 186.543 42.0082 185.676 42.1792C184.677 42.3673 183.646 42.2866 182.689 41.9454C182.172 41.7638 181.685 41.5052 181.245 41.1786C180.78 40.8439 180.373 40.4361 180.04 39.9712C179.318 38.9997 178.929 37.8223 178.929 36.613C178.929 35.4036 179.318 34.2263 180.04 33.2547C180.375 32.7928 180.782 32.387 181.245 32.0528C181.683 31.7222 182.17 31.4617 182.689 31.2806C183.646 30.9383 184.678 30.8594 185.676 31.0522C186.543 31.2229 187.358 31.5956 188.053 32.1399C189.065 32.9173 189.775 34.0204 190.064 35.2615C190.175 35.7002 190.215 36.1536 190.184 36.6048Z" fill="#455A64"/>
<path d="M178.958 36.2457C178.449 36.2956 177.946 36.3902 177.454 36.5285C176.992 36.7485 176.553 37.0107 176.14 37.3117C176.069 37.3117 176.467 36.5883 177.35 36.262C177.6 36.1412 177.874 36.0771 178.152 36.0743C178.43 36.0715 178.705 36.13 178.958 36.2457Z" fill="#455A64"/>
<path d="M206.719 58.4609C207.58 59.2985 216.814 61.7947 218.76 74.1183C219.452 78.469 209.755 151.932 209.755 151.932L208.414 152.318C204.559 153.442 200.453 153.371 196.639 152.114C192.825 150.858 189.484 148.474 187.058 145.28L184.807 142.262C182.993 139.837 180.81 137.71 178.337 135.959L166.203 126.741L175.055 118.659L174.194 109.68C174.194 109.68 170.313 95.9156 172.466 89.0142C174.619 82.1128 185.003 67.6519 185.003 67.6519L190.187 61.8817L206.719 58.4609Z" fill="#59B039"/>
<path d="M215.706 65.8203L226.362 90.5979L205.278 102.274L197.958 84.1588L215.706 65.8203Z" fill="#59B039"/>
<path d="M217.831 56.7863C217.027 55.5681 216.055 54.4695 214.942 53.5232L214.397 53.0175C216.419 50.8421 216.839 47.8237 215.7 44.3159C215.024 42.233 213.901 40.955 209.704 37.4254C206.248 34.4396 203.73 30.5208 202.454 26.1406L201.424 33.3629L203.882 40.9767L202.531 46.0454L201.25 46.8938L198.622 43.7068C197.925 47.9923 196.442 49.5749 193.886 52.1854C191.329 54.7959 188.713 55.6171 187.694 60.566C187.694 60.6531 187.666 60.7292 187.65 60.8162C187.634 60.9032 187.601 61.0501 187.585 61.1697C187.278 62.767 187.119 64.3891 187.11 66.0154C187.017 66.707 186.803 67.377 186.478 67.995C185.72 69.3383 184.069 69.9311 183.153 71.171C182.237 72.411 182.194 73.8903 182.221 75.375C182.215 76.8372 182.06 78.295 181.758 79.7257C181.038 83.723 177.299 85.1152 175.931 84.5823L182.504 90.6516L186.151 88.2913L183.774 91.2661L185.955 93.3001L188.893 91.5109C190.145 90.0594 190.784 88.1801 190.675 86.2682C190.621 84.4028 190.255 82.4341 191.057 80.7482C191.727 79.3287 193.117 78.3716 193.858 76.9902C194.867 75.1031 194.496 72.8189 194.371 70.6816C194.346 70.2505 194.346 69.8183 194.371 69.3872C194.729 68.4828 195.192 67.6232 195.75 66.8257C198.475 63.1167 200.47 60.9685 204.607 60.5225C207.584 60.4736 209.388 60.0929 211.835 61.7897C212.991 62.5892 214.157 63.6116 215.564 63.6061C216.294 63.5552 216.988 63.2729 217.546 62.8003C218.104 62.3278 218.496 61.6898 218.665 60.9794C218.812 60.2602 218.814 59.5191 218.671 58.7991C218.528 58.0792 218.242 57.3949 217.831 56.7863Z" fill="#2A2A30"/>
<path d="M181.116 74.8932C181.182 74.9367 179.661 77.2752 177.726 80.1196C175.791 82.9639 174.161 85.2263 174.096 85.1828C174.03 85.1393 175.551 82.8007 177.492 79.9564C179.432 77.1121 181.051 74.8497 181.116 74.8932Z" fill="#2A2A30"/>
<path d="M197.336 67.3867C197.286 67.5007 197.226 67.6099 197.156 67.713C196.97 68.0179 196.812 68.3382 196.682 68.6702C196.249 69.907 196.04 71.2108 196.066 72.5206C196 75.8435 196.932 80.3901 198.426 85.2357C199.728 89.373 201.26 93.4345 203.015 97.4016C203.691 98.9298 204.264 100.148 204.651 100.986L205.114 101.954C205.172 102.065 205.222 102.182 205.261 102.302C205.184 102.201 205.116 102.094 205.059 101.981C204.94 101.769 204.765 101.437 204.552 101.034C204.116 100.208 203.511 99.0005 202.819 97.4831C201.003 93.5308 199.441 89.4674 198.142 85.3173C196.643 80.4608 195.733 75.8761 195.848 72.5152C195.839 71.1853 196.083 69.866 196.567 68.6267C196.714 68.2943 196.897 67.9788 197.112 67.6858C197.175 67.5781 197.25 67.4778 197.336 67.3867Z" fill="#2A2A30"/>
<path d="M232.247 112.118L224.959 91.4844L207.195 101.399L218.179 122.826L221.367 158.899C221.269 159.095 220.822 159.987 220.136 161.075L217.372 164.452C217.372 164.452 212.057 164.751 210.749 165.703C209.441 166.655 207.849 169.945 207.849 169.945C207.848 169.958 207.848 169.97 207.849 169.983L206.792 170.424C206.1 170.723 206.699 171.908 207.719 171.908C208.553 171.908 213.987 169.858 215.769 169.118C214.854 169.635 213.115 170.75 212.564 171.12C211.343 171.919 211.322 173.137 214.587 171.925C215.622 171.538 220.713 169.363 220.713 169.363C220.713 169.363 217.334 171.506 218.075 171.908C218.655 172.144 219.297 172.182 219.901 172.017L225.706 168.379C227.467 167.177 228.977 166.894 229.751 166.056C230.525 165.219 230.754 162.086 230.776 161.118L232.247 112.118ZM212.368 167.09L214.363 167.133C213.36 167.617 212.248 168.123 211.18 168.591C211.607 168.116 212.004 167.615 212.368 167.09Z" fill="#FFBE9D"/>
<path d="M226.362 90.5977C226.111 90.7878 225.843 90.9552 225.561 91.098L223.321 92.4032L215.913 96.5908C213.019 98.2224 210.386 99.6799 208.467 100.708C207.508 101.219 206.729 101.632 206.184 101.904C205.908 102.062 205.62 102.196 205.322 102.307C205.578 102.12 205.848 101.953 206.129 101.806L208.369 100.534L215.804 96.3189C218.693 94.6874 221.326 93.2244 223.25 92.202C224.209 91.6854 224.989 91.2775 225.534 91.0001C225.801 90.8487 226.078 90.7143 226.362 90.5977Z" fill="#2A2A30"/>
<path d="M118.13 119.052C118.076 119.123 117.612 118.845 117.1 118.432C116.588 118.019 116.211 117.632 116.266 117.562C116.321 117.491 116.811 117.768 117.302 118.182C117.792 118.595 118.185 119.003 118.13 119.052Z" fill="#2A2A30"/>
<path d="M132.176 98.1253C132.264 96.1675 132.318 94.1607 131.697 92.3062C131.075 90.4516 129.642 88.7331 127.718 88.3361C125.537 87.8847 123.275 89.2661 122.049 91.1369C120.822 93.0077 120.414 95.2755 120.032 97.4781C117.529 112.692 116.606 128.123 117.279 143.526L126.257 144.782C130.225 128.717 131.462 114.664 132.176 98.1253Z" fill="#455A64"/>
<path d="M126.474 88.27C126.466 88.3187 126.451 88.3663 126.431 88.4114L126.284 88.8193C126.137 89.1945 125.94 89.7112 125.684 90.3638C125.559 90.701 125.395 91.0653 125.259 91.4841C125.123 91.9029 124.981 92.3543 124.823 92.8383C124.665 93.3223 124.501 93.8498 124.321 94.3991L123.858 96.1775C123.11 99.0967 122.531 102.056 122.125 105.042C121.64 108.409 121.318 112.139 121.067 116.06C120.609 123.914 120.522 131.038 120.337 136.183C120.239 138.761 120.152 140.844 120.053 142.285C120.004 142.981 119.966 143.536 119.939 143.916C119.939 144.09 119.939 144.232 119.901 144.351C119.906 144.398 119.906 144.446 119.901 144.493C119.892 144.444 119.892 144.395 119.901 144.346C119.901 144.232 119.901 144.09 119.901 143.916C119.901 143.508 119.933 142.954 119.955 142.285C120.015 140.844 120.07 138.761 120.135 136.183C120.282 131.033 120.315 123.908 120.773 116.06C121.029 112.134 121.356 108.392 121.863 105.015C122.284 102.021 122.888 99.0547 123.673 96.134C123.842 95.514 124.005 94.9212 124.158 94.3556C124.31 93.79 124.523 93.2679 124.703 92.8002C124.883 92.3325 125.025 91.8648 125.166 91.446C125.308 91.0273 125.482 90.6683 125.619 90.3583C125.897 89.7112 126.115 89.2054 126.273 88.8301L126.453 88.4331C126.442 88.3081 126.469 88.2645 126.474 88.27Z" fill="#2A2A30"/>
<path d="M127.304 88.2695C127.768 88.823 128.137 89.4497 128.394 90.124C129.079 91.9761 129.358 93.9529 129.212 95.9214C128.972 100.87 128.531 107.69 127.937 115.223C127.342 122.755 126.688 129.564 126.154 134.491C125.893 136.949 125.664 138.94 125.495 140.316C125.407 140.979 125.342 141.507 125.288 141.893C125.288 142.061 125.244 142.192 125.228 142.306C125.224 142.353 125.213 142.399 125.195 142.442C125.188 142.395 125.188 142.347 125.195 142.301C125.195 142.186 125.195 142.05 125.228 141.887C125.26 141.496 125.309 140.968 125.369 140.299C125.506 138.891 125.696 136.906 125.914 134.464C126.389 129.537 127.005 122.728 127.604 115.201C128.204 107.674 128.694 100.849 128.967 95.916C129.136 93.9733 128.895 92.0167 128.258 90.173C127.997 89.5116 127.678 88.8746 127.304 88.2695Z" fill="#2A2A30"/>
<path d="M133.535 111.438C132.945 111.394 132.367 111.245 131.829 110.997C131.258 110.848 130.719 110.598 130.237 110.258C130.826 110.303 131.402 110.452 131.938 110.698C132.51 110.85 133.05 111.1 133.535 111.438Z" fill="#2A2A30"/>
<path d="M134.613 102.328C134.126 102.721 133.572 103.025 132.978 103.225C132.435 103.528 131.843 103.734 131.229 103.835C131.716 103.442 132.27 103.138 132.864 102.937C133.407 102.635 133.999 102.429 134.613 102.328Z" fill="#2A2A30"/>
<path d="M134.04 94.878C133.607 95.0047 133.149 95.0271 132.705 94.9434C132.252 94.964 131.8 94.8781 131.386 94.6926C132.273 94.5425 133.183 94.606 134.04 94.878Z" fill="#2A2A30"/>
<path d="M124.775 90.1028C124.698 90.1517 124.306 89.6623 123.897 89.0151C123.488 88.3679 123.216 87.8023 123.292 87.7534C123.368 87.7044 123.761 88.1939 124.17 88.8411C124.579 89.4882 124.862 90.0538 124.775 90.1028Z" fill="#2A2A30"/>
<path d="M121.722 94.6061C121.722 94.6987 121.149 94.7587 120.446 94.7423C119.743 94.726 119.176 94.6442 119.182 94.5516C119.59 94.405 120.028 94.3601 120.457 94.4207C121.16 94.4371 121.727 94.5188 121.722 94.6061Z" fill="#2A2A30"/>
<path d="M119.523 103.623C119.055 103.603 118.596 103.479 118.182 103.259C117.474 102.97 116.929 102.677 116.961 102.595C116.994 102.514 117.594 102.677 118.302 102.96C119.011 103.242 119.556 103.542 119.523 103.623Z" fill="#2A2A30"/>
<path d="M119.292 111.204C119.292 111.291 118.796 111.47 118.147 111.606C117.499 111.742 116.959 111.786 116.943 111.699C116.926 111.612 117.433 111.432 118.082 111.296C118.471 111.166 118.887 111.134 119.292 111.204Z" fill="#2A2A30"/>
<path d="M118.232 123.608C118.232 123.695 117.687 123.864 117.022 123.989C116.61 124.113 116.174 124.135 115.752 124.054C115.752 123.967 116.297 123.793 116.962 123.674C117.373 123.547 117.81 123.524 118.232 123.608Z" fill="#2A2A30"/>
<path d="M117.567 130.471C117.611 130.547 117.158 130.868 116.559 131.184C115.959 131.499 115.436 131.695 115.398 131.619C115.36 131.543 115.807 131.216 116.406 130.901C117.006 130.586 117.529 130.373 117.567 130.471Z" fill="#2A2A30"/>
<path d="M123.172 138.228C123.096 138.271 122.703 137.728 122.289 137.015C121.995 136.603 121.791 136.134 121.689 135.639C121.766 135.596 122.158 136.14 122.572 136.852C122.866 137.264 123.071 137.733 123.172 138.228Z" fill="#2A2A30"/>
<path d="M124.775 125.31C124.835 125.376 124.399 125.903 123.794 126.496C123.189 127.089 122.649 127.513 122.584 127.453C122.518 127.393 122.965 126.86 123.565 126.267C124.164 125.675 124.726 125.25 124.775 125.31Z" fill="#2A2A30"/>
<path d="M124.432 118.535C124.367 118.595 123.958 118.263 123.522 117.79C123.086 117.317 122.78 116.887 122.846 116.827C122.911 116.767 123.32 117.105 123.756 117.572C124.192 118.04 124.497 118.475 124.432 118.535Z" fill="#2A2A30"/>
<path d="M125.543 109.877C125.608 109.937 125.243 110.453 124.725 111.03C124.207 111.606 123.733 112.025 123.668 111.965C123.602 111.905 123.968 111.394 124.485 110.818C125.003 110.241 125.477 109.806 125.543 109.877Z" fill="#2A2A30"/>
<path d="M126.17 103.595C126.104 103.66 125.597 103.258 125.025 102.703C124.453 102.148 124.049 101.643 124.109 101.577C124.169 101.512 124.682 101.914 125.254 102.475C125.826 103.035 126.23 103.535 126.17 103.595Z" fill="#2A2A30"/>
<path d="M127.397 95.121C127.474 95.17 127.217 95.7356 126.825 96.3936C126.432 97.0517 126.051 97.5466 125.975 97.4813C126.074 97.0208 126.271 96.5868 126.552 96.2087C126.956 95.5507 127.321 95.0558 127.397 95.121Z" fill="#2A2A30"/>
<path d="M129.712 87.2311C129.641 87.6878 129.468 88.1226 129.205 88.5037C128.846 89.1672 128.491 89.6676 128.415 89.6241C128.485 89.1671 128.659 88.7319 128.922 88.3514C129.282 87.6934 129.631 87.1876 129.712 87.2311Z" fill="#2A2A30"/>
<path d="M132.334 90.8105C132.372 90.8867 132.012 91.1368 131.533 91.3544C131.053 91.5719 130.628 91.7024 130.59 91.6263C130.552 91.5502 130.911 91.2945 131.391 91.0824C131.871 90.8703 132.296 90.7289 132.334 90.8105Z" fill="#2A2A30"/>
<path d="M132.405 119.052C131.792 119.061 131.187 118.915 130.645 118.628C130.063 118.438 129.54 118.103 129.124 117.654C129.69 117.826 130.238 118.054 130.759 118.334C131.331 118.518 131.882 118.759 132.405 119.052Z" fill="#2A2A30"/>
<path d="M131.315 125.062C131.315 125.149 130.77 125.323 130.105 125.459C129.695 125.589 129.259 125.617 128.835 125.54C128.835 125.453 129.38 125.274 130.045 125.143C130.455 125.013 130.891 124.985 131.315 125.062Z" fill="#2A2A30"/>
<path d="M130.007 135.323C129.451 135.054 128.979 134.641 128.639 134.126C128.218 133.678 127.922 133.126 127.783 132.527C128.186 132.963 128.551 133.432 128.873 133.93C129.288 134.364 129.667 134.829 130.007 135.323Z" fill="#2A2A30"/>
<path d="M115.573 140.022C115.518 139.951 115.883 139.549 116.39 139.114C116.897 138.679 117.355 138.385 117.41 138.45C117.464 138.516 117.104 138.924 116.598 139.359C116.091 139.794 115.633 140.087 115.573 140.022Z" fill="#2A2A30"/>
<path d="M111.425 117.615C110.842 115.793 109.741 113.672 107.828 113.645C107.258 113.676 106.708 113.86 106.234 114.176C105.76 114.493 105.381 114.931 105.135 115.445C104.611 116.462 104.359 117.597 104.405 118.74C104.64 126.848 106.027 134.881 108.525 142.599H115.535C115.451 134.11 114.065 125.685 111.425 117.615Z" fill="#455A64"/>
<path d="M98.7478 106.152C97.7666 102.241 94.845 100.131 91.4491 99.9355C88.3476 100.479 87.1484 103.519 86.7778 106.641C86.4071 109.763 87.3828 112.857 88.3422 115.848C91.4164 125.446 94.4925 135.053 97.5704 144.672L106.292 143.721C103.517 130.837 101.942 118.916 98.7478 106.152Z" fill="#455A64"/>
<path d="M107.828 113.645C107.605 113.959 107.406 114.29 107.234 114.634C106.874 115.624 106.762 116.686 106.907 117.729C107.043 119.056 107.196 120.655 107.419 122.411C107.643 124.168 107.964 126.093 108.357 128.105C109.152 132.119 110.041 135.719 110.608 138.357C110.897 139.668 111.115 140.733 111.251 141.473C111.311 141.816 111.355 142.099 111.398 142.327C111.412 142.428 111.412 142.53 111.398 142.631C111.354 142.54 111.323 142.443 111.306 142.343C111.251 142.115 111.186 141.837 111.098 141.5C110.913 140.723 110.662 139.678 110.363 138.406C109.741 135.795 108.809 132.195 108.013 128.165C107.621 126.148 107.31 124.217 107.098 122.449C106.983 121.563 106.912 120.72 106.841 119.931C106.77 119.143 106.689 118.419 106.651 117.756C106.528 116.682 106.68 115.595 107.092 114.596C107.265 114.229 107.516 113.905 107.828 113.645Z" fill="#2A2A30"/>
<path d="M91.5725 99.6855C91.1872 100.13 90.8356 100.603 90.5205 101.1C89.7145 102.489 89.2581 104.053 89.1905 105.657C89.0597 107.68 89.5121 110.084 90.2807 112.662C91.0492 115.24 91.9159 118.1 92.7717 121.075C94.5105 127.057 96.0803 132.436 97.2359 136.384C97.781 138.32 98.2334 139.903 98.5496 141.034C98.6913 141.578 98.8057 141.986 98.893 142.301C98.9409 142.448 98.9738 142.599 98.9911 142.753C98.9257 142.614 98.8728 142.471 98.833 142.323C98.7294 142.008 98.5986 141.589 98.4296 141.072L97.0179 136.45C95.8405 132.507 94.238 127.123 92.461 121.167C91.5889 118.176 90.7549 115.332 89.9972 112.743C89.2396 110.155 88.8089 107.702 88.9779 105.641C89.0665 104.009 89.5631 102.425 90.4224 101.034C90.728 100.524 91.1167 100.068 91.5725 99.6855Z" fill="#2A2A30"/>
<path d="M104.389 142.768C104.309 142.636 104.243 142.495 104.193 142.349C104.079 142.072 103.893 141.664 103.692 141.125C103.278 140.038 102.743 138.482 102.193 136.503C101.642 134.523 101.103 132.152 100.558 129.487C100.012 126.822 99.5001 123.902 98.9223 120.829C98.3445 117.756 97.6414 114.847 96.8564 112.28C96.1756 109.985 95.3247 107.743 94.3109 105.574C93.6265 104.113 92.8415 102.701 91.9616 101.348C91.6618 100.859 91.3893 100.511 91.2258 100.261C91.1342 100.137 91.0522 100.006 90.9805 99.8691C91.0927 99.976 91.1932 100.094 91.2803 100.223C91.4601 100.462 91.749 100.805 92.0652 101.283C92.989 102.618 93.809 104.022 94.5181 105.482C95.5684 107.648 96.445 109.894 97.1399 112.198C97.9844 115.019 98.683 117.882 99.233 120.775C99.8108 123.842 100.356 126.757 100.868 129.438C101.381 132.119 101.882 134.469 102.427 136.454C102.972 138.439 103.446 140.01 103.828 141.087C104.008 141.631 104.171 142.044 104.27 142.333C104.323 142.474 104.363 142.619 104.389 142.768Z" fill="#2A2A30"/>
<path d="M88.4933 114.412C88.4933 114.499 88.0409 114.684 87.4358 114.831C86.8308 114.978 86.3184 115.027 86.2966 114.945C86.2748 114.864 86.7545 114.668 87.3868 114.521C88.0191 114.374 88.4715 114.325 88.4933 114.412Z" fill="#2A2A30"/>
<path d="M87.5725 108.474C87.0943 108.609 86.5968 108.663 86.1008 108.632C85.6077 108.702 85.1063 108.688 84.6182 108.589C85.5695 108.257 86.5983 108.217 87.5725 108.474Z" fill="#2A2A30"/>
<path d="M88.5524 103.047C88.4925 103.118 88.0074 102.808 87.495 102.362C86.9826 101.916 86.5847 101.503 86.6447 101.432C86.7046 101.361 87.1897 101.671 87.7021 102.117C88.2145 102.563 88.607 102.982 88.5524 103.047Z" fill="#2A2A30"/>
<path d="M91.2134 98.0262C91.3006 98.0262 91.2788 98.4722 91.2625 98.9834C91.2461 99.4946 91.2625 99.9188 91.1589 99.9297C91.0553 99.9405 90.9245 99.5218 90.9408 98.9725C90.9572 98.4232 91.1316 98.0044 91.2134 98.0262Z" fill="#2A2A30"/>
<path d="M96.6488 100.391C96.7251 100.44 96.5125 100.87 96.1745 101.349C95.8366 101.827 95.5095 102.175 95.4387 102.121C95.3678 102.066 95.5749 101.642 95.9129 101.164C96.2508 100.685 96.5779 100.342 96.6488 100.391Z" fill="#2A2A30"/>
<path d="M100.18 106.512C100.213 106.593 99.7605 106.854 99.1718 107.094C98.5831 107.333 98.0816 107.464 98.038 107.382C97.9944 107.3 98.4577 107.039 99.0464 106.795C99.6351 106.55 100.147 106.43 100.18 106.512Z" fill="#2A2A30"/>
<path d="M102.317 112.803C101.471 113.376 100.439 113.609 99.4277 113.455C99.889 113.27 100.373 113.148 100.867 113.091C101.335 112.931 101.823 112.835 102.317 112.803Z" fill="#2A2A30"/>
<path d="M92.4941 111.013C92.4069 110.986 92.4668 110.551 92.6303 110.039C92.7939 109.528 92.9847 109.142 93.0719 109.169C93.1591 109.197 93.0719 109.626 92.9356 110.137C92.7993 110.649 92.5758 111.04 92.4941 111.013Z" fill="#2A2A30"/>
<path d="M93.8633 118.916C93.8932 118.455 94.0274 118.007 94.2557 117.605C94.5555 116.92 94.8662 116.393 94.948 116.425C94.9164 116.887 94.7804 117.335 94.5501 117.736C94.2503 118.421 93.945 118.949 93.8633 118.916Z" fill="#2A2A30"/>
<path d="M90.4771 121.075C90.0432 121.071 89.6146 120.978 89.2179 120.803C88.5529 120.59 88.0133 120.4 88.0297 120.313C88.046 120.226 88.6292 120.28 89.3161 120.493C90.0029 120.705 90.5098 120.993 90.4771 121.075Z" fill="#2A2A30"/>
<path d="M92.4284 127.519C92.4774 127.59 92.1068 127.944 91.5944 128.308C91.082 128.672 90.6241 128.912 90.5696 128.852C90.5151 128.792 90.8967 128.428 91.4091 128.063C91.9214 127.699 92.3739 127.443 92.4284 127.519Z" fill="#2A2A30"/>
<path d="M93.9924 133.936C93.9924 134.023 93.5509 134.208 92.9622 134.355C92.3735 134.502 91.8721 134.545 91.8721 134.458C91.8721 134.371 92.3081 134.186 92.9023 134.045C93.4964 133.903 93.9706 133.854 93.9924 133.936Z" fill="#2A2A30"/>
<path d="M102.492 118.165C102.536 118.241 102.144 118.556 101.566 118.768C100.988 118.98 100.476 119.008 100.476 118.926C100.476 118.845 100.912 118.676 101.457 118.469C102.002 118.263 102.427 118.089 102.492 118.165Z" fill="#2A2A30"/>
<path d="M103.708 128.156C103.669 128.238 103.201 128.096 102.656 127.841C102.11 127.585 101.702 127.297 101.74 127.232C101.778 127.166 102.247 127.297 102.792 127.552C103.337 127.808 103.746 128.074 103.708 128.156Z" fill="#2A2A30"/>
<path d="M105.849 135.307C105.364 135.284 104.89 135.155 104.459 134.932C103.993 134.812 103.559 134.589 103.189 134.279C103.674 134.303 104.149 134.431 104.579 134.655C105.31 134.921 105.882 135.22 105.849 135.307Z" fill="#2A2A30"/>
<path d="M94.3372 140.903C94.2936 140.827 94.8823 140.441 95.5255 139.919C96.1687 139.396 96.6974 138.94 96.7683 138.999C96.8392 139.059 96.414 139.636 95.7272 140.174C95.3409 140.541 94.8595 140.794 94.3372 140.903Z" fill="#2A2A30"/>
<path d="M100.005 137.271C99.9126 137.271 99.7873 136.803 99.5692 136.243C99.3512 135.683 99.1223 135.243 99.1986 135.194C99.2749 135.145 99.6347 135.525 99.869 136.129C100.103 136.733 100.087 137.266 100.005 137.271Z" fill="#2A2A30"/>
<path d="M98.5013 128.672C98.4523 128.742 98.0816 128.568 97.6837 128.285C97.2858 128.003 97.0024 127.709 97.0514 127.633C97.1005 127.557 97.4711 127.736 97.869 128.024C98.2669 128.313 98.5504 128.601 98.5013 128.672Z" fill="#2A2A30"/>
<path d="M111.692 115.196C111.747 115.272 111.387 115.62 110.896 115.984C110.406 116.349 109.959 116.582 109.91 116.528C109.861 116.474 110.215 116.104 110.706 115.739C111.196 115.375 111.654 115.125 111.692 115.196Z" fill="#2A2A30"/>
<path d="M113.698 120.627C113.309 120.803 112.872 120.847 112.455 120.752C111.769 120.682 111.245 120.448 111.273 120.366C111.3 120.285 111.818 120.366 112.493 120.437C113.169 120.507 113.693 120.535 113.698 120.627Z" fill="#2A2A30"/>
<path d="M105.152 121.847C105.152 121.929 104.656 122.114 103.991 122.158C103.326 122.202 102.787 122.087 102.792 122C102.797 121.913 103.337 121.88 103.969 121.836C104.602 121.793 105.152 121.771 105.152 121.847Z" fill="#2A2A30"/>
<path d="M105.877 116.713C105.877 116.795 105.332 116.811 104.786 116.544C104.241 116.278 103.887 115.881 103.947 115.821C104.007 115.761 104.399 116.022 104.923 116.256C105.446 116.49 105.888 116.621 105.877 116.713Z" fill="#2A2A30"/>
<path d="M114.419 126.454C114.37 126.53 113.836 126.28 113.225 125.91C112.615 125.54 112.135 125.154 112.2 125.078C112.266 125.002 112.784 125.257 113.394 125.622C114.005 125.986 114.479 126.383 114.419 126.454Z" fill="#2A2A30"/>
<path d="M135.311 141.693H89.666V149.764H135.311V141.693Z" fill="#59B039"/>
<path d="M93.0723 148.158L98.6212 172.283H125.826L131.898 148.158H93.0723Z" fill="#59B039"/>
<path d="M135.284 149.775C135.284 149.862 124.988 149.933 112.293 149.933C99.5979 149.933 89.2959 149.862 89.2959 149.775C89.2959 149.688 99.587 149.611 112.293 149.611C124.999 149.611 135.284 149.688 135.284 149.775Z" fill="#2A2A30"/>
<path d="M109.898 122.021C109.822 122.07 109.511 121.706 109.201 121.211C108.89 120.716 108.699 120.276 108.776 120.232C108.852 120.189 109.163 120.548 109.473 121.042C109.784 121.537 109.975 121.972 109.898 122.021Z" fill="#2A2A30"/>
<path d="M109.916 128.515C109.893 128.093 109.975 127.673 110.156 127.291C110.368 126.638 110.614 126.138 110.701 126.165C110.721 126.586 110.639 127.006 110.461 127.389C110.243 128.041 109.998 128.542 109.916 128.515Z" fill="#2A2A30"/>
<path d="M112.146 135.334C112.064 135.372 111.72 134.828 111.382 134.116C111.129 133.704 110.967 133.242 110.908 132.762C110.99 132.724 111.333 133.267 111.671 133.98C111.926 134.392 112.088 134.854 112.146 135.334Z" fill="#2A2A30"/>
<path d="M107.332 140.807C107.267 140.753 107.539 140.328 107.942 139.866C108.346 139.404 108.727 139.072 108.793 139.132C108.858 139.192 108.586 139.611 108.182 140.078C107.779 140.546 107.392 140.878 107.332 140.807Z" fill="#2A2A30"/>
<path d="M106.312 130.858C106.312 130.945 105.854 130.94 105.33 130.858C104.807 130.777 104.387 130.619 104.404 130.532C104.42 130.445 104.856 130.45 105.385 130.532C105.914 130.614 106.322 130.771 106.312 130.858Z" fill="#2A2A30"/>
</svg>
