<svg width="220" height="210" viewBox="0 0 220 210" fill="none" xmlns="http://www.w3.org/2000/svg">
<g clip-path="url(#clip0)">
<path d="M45.786 66.438L45.1912 66.9843L45.1968 66.9903L45.786 66.438ZM84.4514 66.438L85.0405 66.9904L85.0461 66.9843L84.4514 66.438ZM84.4514 27.3366L83.8565 27.8828L83.8622 27.8889L84.4514 27.3366ZM45.786 27.3366L46.3751 27.8889L46.3808 27.8828L45.786 27.3366ZM105.528 64.6937L104.79 64.3657L104.785 64.3773L105.528 64.6937ZM96.2254 77.9214L95.6844 77.3218L95.6844 77.3218L96.2254 77.9214ZM82.271 86.2068L82.5347 86.9702L82.547 86.9657L82.271 86.2068ZM47.9664 86.2068L47.6903 86.9658L47.7027 86.9701L47.9664 86.2068ZM34.0119 77.9214L33.4709 78.5209L33.4709 78.5209L34.0119 77.9214ZM24.5636 64.6937L23.8206 65.0102L23.8257 65.0217L24.5636 64.6937ZM24.5636 28.9355L23.8256 28.6075L23.8206 28.6191L24.5636 28.9355ZM47.9664 7.56779L48.2301 8.33118L48.2423 8.32672L47.9664 7.56779ZM82.271 7.56779L81.995 8.32682L82.0073 8.33108L82.271 7.56779ZM96.2254 15.7079L95.6844 16.3074L95.6844 16.3074L96.2254 15.7079ZM105.528 28.9355L104.785 29.252L104.79 29.2635L105.528 28.9355ZM38.4373 46.8146C38.4373 55.2898 40.6573 62.0473 45.1912 66.9843L46.3808 65.8918C42.1932 61.332 40.0524 55.0073 40.0524 46.8146H38.4373ZM45.1968 66.9903C49.7567 71.8543 56.4463 74.2228 65.1187 74.2228V72.6077C56.7356 72.6077 50.5367 70.3248 46.3751 65.8857L45.1968 66.9903ZM65.1187 74.2228C73.791 74.2228 80.4806 71.8543 85.0405 66.9903L83.8622 65.8857C79.7006 70.3248 73.5017 72.6077 65.1187 72.6077V74.2228ZM85.0461 66.9843C89.5801 62.0473 91.8001 55.2898 91.8001 46.8146H90.185C90.185 55.0073 88.0442 61.332 83.8566 65.8918L85.0461 66.9843ZM91.8001 46.8146C91.8001 38.3405 89.5804 31.6268 85.0405 26.7842L83.8622 27.8889C88.0438 32.3492 90.185 38.621 90.185 46.8146H91.8001ZM85.0461 26.7903C80.4873 21.8263 73.7958 19.4064 65.1187 19.4064V21.0215C73.4969 21.0215 79.6939 23.3501 83.8566 27.8828L85.0461 26.7903ZM65.1187 19.4064C56.4415 19.4064 49.75 21.8263 45.1912 26.7903L46.3808 27.8828C50.5435 23.3501 56.7404 21.0215 65.1187 21.0215V19.4064ZM45.1968 26.7842C40.6569 31.6268 38.4373 38.3405 38.4373 46.8146H40.0524C40.0524 38.621 42.1935 32.3492 46.3751 27.8889L45.1968 26.7842ZM108.209 46.8146C108.209 53.4069 107.063 59.252 104.79 64.3657L106.266 65.0217C108.645 59.6697 109.825 53.5953 109.825 46.8146H108.209ZM104.785 64.3773C102.6 69.5092 99.565 73.8198 95.6844 77.3218L96.7664 78.5209C100.832 74.8519 103.999 70.3441 106.271 65.0102L104.785 64.3773ZM95.6844 77.3218C91.793 80.8335 87.2329 83.5432 81.995 85.4479L82.547 86.9657C87.9687 84.9942 92.7115 82.1802 96.7664 78.5209L95.6844 77.3218ZM82.0073 85.4435C76.769 87.2531 71.1414 88.1611 65.1187 88.1611V89.7762C71.3061 89.7762 77.1133 88.8429 82.5347 86.9701L82.0073 85.4435ZM65.1187 88.1611C59.0959 88.1611 53.4683 87.2531 48.23 85.4435L47.7027 86.9701C53.124 88.8429 58.9313 89.7762 65.1187 89.7762V88.1611ZM48.2423 85.4479C43.0044 83.5432 38.4443 80.8335 34.553 77.3218L33.4709 78.5209C37.5258 82.1802 42.2687 84.9942 47.6904 86.9657L48.2423 85.4479ZM34.553 77.3218C30.6695 73.8173 27.5847 69.5027 25.3016 64.3657L23.8257 65.0217C26.194 70.3506 29.4081 74.8544 33.4709 78.5209L34.553 77.3218ZM25.3066 64.3773C23.1272 59.2604 22.0279 53.4112 22.0279 46.8146H20.4128C20.4128 53.591 21.5424 59.6612 23.8206 65.0102L25.3066 64.3773ZM22.0279 46.8146C22.0279 40.218 23.1272 34.3688 25.3066 29.252L23.8206 28.6191C21.5424 33.968 20.4128 40.0382 20.4128 46.8146H22.0279ZM25.3016 29.2635C27.5847 24.1265 30.6695 19.812 34.553 16.3074L33.4709 15.1084C29.4081 18.7748 26.194 23.2787 23.8257 28.6075L25.3016 29.2635ZM34.553 16.3074C38.4413 12.7984 42.9971 10.1388 48.23 8.33108L47.7027 6.8045C42.2759 8.67919 37.5288 11.4463 33.4709 15.1084L34.553 16.3074ZM48.2423 8.32672C53.4771 6.42315 59.1005 5.46816 65.1187 5.46816V3.85307C58.9267 3.85307 53.1152 4.8362 47.6904 6.80886L48.2423 8.32672ZM65.1187 5.46816C71.1368 5.46816 76.7602 6.42315 81.995 8.32672L82.547 6.80886C77.1221 4.8362 71.3106 3.85307 65.1187 3.85307V5.46816ZM82.0073 8.33108C87.2402 10.1388 91.796 12.7984 95.6844 16.3074L96.7664 15.1084C92.7085 11.4463 87.9614 8.67919 82.5347 6.8045L82.0073 8.33108ZM95.6844 16.3074C99.565 19.8094 102.6 24.12 104.785 29.252L106.271 28.6191C103.999 23.2852 100.832 18.7773 96.7664 15.1084L95.6844 16.3074ZM104.79 29.2635C107.063 34.3773 108.209 40.2223 108.209 46.8146H109.825C109.825 40.0339 108.645 33.9596 106.266 28.6075L104.79 29.2635ZM157.324 48.9223L158.023 49.3258L158.466 48.5586L157.661 48.1886L157.324 48.9223ZM134.139 89.114L133.802 89.8477L134.471 90.1553L134.839 89.5175L134.139 89.114ZM127.816 86.2068L127.116 85.8033L126.674 86.5705L127.479 86.9405L127.816 86.2068ZM151.001 46.0151L151.338 45.2814L150.669 44.9739L150.301 45.6116L151.001 46.0151ZM153.835 87.079L154.144 86.3328L154.137 86.33L154.13 86.3273L153.835 87.079ZM150.274 84.8259L149.689 85.3828L149.703 85.3971L149.717 85.4107L150.274 84.8259ZM147.948 81.2646L147.193 81.551L147.199 81.567L147.206 81.5827L147.948 81.2646ZM147.948 72.2524L147.202 71.9436L147.199 71.9503L147.196 71.9571L147.948 72.2524ZM150.274 68.6184L149.703 68.0474L149.696 68.0543L149.689 68.0615L150.274 68.6184ZM153.835 66.2927L154.13 67.0443L154.137 67.0416L154.144 67.0389L153.835 66.2927ZM162.847 66.2927L162.529 67.0349L162.541 67.0398L162.552 67.0443L162.847 66.2927ZM166.336 68.6184L165.751 69.1753L165.758 69.1825L165.765 69.1894L166.336 68.6184ZM168.662 72.2524L167.907 72.5388L167.913 72.5548L167.919 72.5705L168.662 72.2524ZM168.662 81.2646L167.916 80.9558L167.913 80.9626L167.91 80.9693L168.662 81.2646ZM166.336 84.8259L166.907 85.3969L166.907 85.3969L166.336 84.8259ZM162.847 87.079L162.552 86.3273L162.541 86.3318L162.529 86.3367L162.847 87.079ZM161.684 80.4651L162.169 81.1112L162.179 81.1036L162.189 81.0957L161.684 80.4651ZM161.684 73.0518L161.18 73.6824L161.19 73.6903L161.2 73.6979L161.684 73.0518ZM155.071 73.0518L155.54 73.709L155.55 73.7017L155.56 73.6942L155.071 73.0518ZM155.071 80.4651L154.581 81.1075L154.591 81.115L154.601 81.1223L155.071 80.4651ZM122.946 68.473L122.628 69.2153L122.644 69.222L122.66 69.2281L122.946 68.473ZM119.385 66.0746L118.8 66.6316L118.807 66.6387L118.814 66.6457L119.385 66.0746ZM117.059 62.5133L116.304 62.7997L116.31 62.8157L116.317 62.8315L117.059 62.5133ZM117.059 53.5011L116.313 53.1923L116.31 53.1991L116.308 53.2058L117.059 53.5011ZM119.385 49.9398L119.956 50.5108L119.956 50.5108L119.385 49.9398ZM122.946 47.6141L123.242 48.3657L123.248 48.3631L123.255 48.3603L122.946 47.6141ZM131.886 47.6141L131.568 48.3563L131.584 48.3631L131.6 48.3691L131.886 47.6141ZM135.447 49.9398L134.862 50.4968L134.876 50.511L134.89 50.5246L135.447 49.9398ZM137.773 53.5011L137.018 53.7875L137.024 53.8035L137.031 53.8192L137.773 53.5011ZM137.773 62.5133L137.027 62.2046L137.024 62.2113L137.021 62.2181L137.773 62.5133ZM135.447 66.0746L134.876 65.5036L134.869 65.5106L134.862 65.5177L135.447 66.0746ZM131.886 68.473L132.181 69.2247L132.188 69.222L132.195 69.2192L131.886 68.473ZM130.723 61.7139L130.254 61.0567L130.246 61.0622L130.239 61.0678L130.723 61.7139ZM130.723 54.3006L130.219 54.9312L130.236 54.9449L130.254 54.9577L130.723 54.3006ZM124.037 54.3006L124.521 54.9466L124.526 54.9429L124.037 54.3006ZM124.037 61.7139L123.552 62.3599L123.56 62.3655L123.567 62.371L124.037 61.7139ZM156.624 48.5188L133.44 88.7105L134.839 89.5175L158.023 49.3258L156.624 48.5188ZM134.476 88.3803L128.153 85.4731L127.479 86.9405L133.802 89.8477L134.476 88.3803ZM128.515 86.6103L151.7 46.4187L150.301 45.6116L127.116 85.8033L128.515 86.6103ZM150.663 46.7489L156.986 49.656L157.661 48.1886L151.338 45.2814L150.663 46.7489ZM158.414 87.1436C156.864 87.1436 155.443 86.8704 154.144 86.3328L153.526 87.8251C155.037 88.4504 156.669 88.7587 158.414 88.7587V87.1436ZM154.13 86.3273C152.867 85.8311 151.77 85.1355 150.831 84.2411L149.717 85.4107C150.813 86.4544 152.09 87.2609 153.54 87.8306L154.13 86.3273ZM150.859 84.269C149.959 83.3245 149.236 82.2193 148.69 80.9465L147.206 81.5827C147.823 83.0232 148.65 84.2922 149.689 85.3828L150.859 84.269ZM148.703 80.9782C148.208 79.673 147.956 78.2448 147.956 76.6858H146.341C146.341 78.4216 146.622 80.046 147.193 81.551L148.703 80.9782ZM147.956 76.6858C147.956 75.1781 148.207 73.8015 148.7 72.5477L147.196 71.9571C146.623 73.4166 146.341 74.9956 146.341 76.6858H147.956ZM148.694 72.5611C149.241 71.2404 149.964 70.1151 150.859 69.1753L149.689 68.0615C148.646 69.1568 147.818 70.4541 147.202 71.9436L148.694 72.5611ZM150.845 69.1894C151.783 68.2515 152.876 67.5372 154.13 67.0443L153.54 65.541C152.081 66.1141 150.8 66.9503 149.703 68.0474L150.845 69.1894ZM154.144 67.0389C155.443 66.5012 156.864 66.2281 158.414 66.2281V64.613C156.669 64.613 155.037 64.9213 153.526 65.5465L154.144 67.0389ZM158.414 66.2281C159.913 66.2281 161.281 66.5001 162.529 67.0349L163.165 65.5504C161.7 64.9224 160.113 64.613 158.414 64.613V66.2281ZM162.552 67.0443C163.803 67.5359 164.866 68.2463 165.751 69.1753L166.921 68.0615C165.867 66.9555 164.605 66.1154 163.143 65.541L162.552 67.0443ZM165.765 69.1894C166.698 70.1226 167.412 71.2356 167.907 72.5388L169.417 71.966C168.845 70.4589 168.009 69.1493 166.907 68.0474L165.765 69.1894ZM167.919 72.5705C168.454 73.8185 168.726 75.187 168.726 76.6858H170.341C170.341 74.9867 170.032 73.3996 169.404 71.9343L167.919 72.5705ZM168.726 76.6858C168.726 78.2362 168.453 79.6565 167.916 80.9558L169.408 81.5734C170.033 80.0624 170.341 78.4303 170.341 76.6858H168.726ZM167.91 80.9693C167.417 82.224 166.703 83.3169 165.765 84.2549L166.907 85.3969C168.004 84.2998 168.84 83.0185 169.413 81.5599L167.91 80.9693ZM165.765 84.2549C164.879 85.1405 163.812 85.8323 162.552 86.3273L163.143 87.8306C164.596 87.2596 165.854 86.4494 166.907 85.3969L165.765 84.2549ZM162.529 86.3367C161.281 86.8716 159.913 87.1436 158.414 87.1436V88.7587C160.113 88.7587 161.7 88.4492 163.165 87.8212L162.529 86.3367ZM158.414 82.3629C159.8 82.3629 161.06 81.9428 162.169 81.1112L161.2 79.8191C160.371 80.4411 159.451 80.7478 158.414 80.7478V82.3629ZM162.189 81.0957C163.419 80.112 163.946 78.5708 163.946 76.6858H162.331C162.331 78.2894 161.889 79.2678 161.18 79.8345L162.189 81.0957ZM163.946 76.6858C163.946 74.8441 163.415 73.3401 162.169 72.4058L161.2 73.6979C161.892 74.2172 162.331 75.1359 162.331 76.6858H163.946ZM162.189 72.4213C161.081 71.5345 159.813 71.0814 158.414 71.0814V72.6965C159.437 72.6965 160.35 73.0187 161.18 73.6824L162.189 72.4213ZM158.414 71.0814C157.015 71.0814 155.731 71.5335 154.581 72.4095L155.56 73.6942C156.445 73.0197 157.39 72.6965 158.414 72.6965V71.0814ZM154.601 72.3947C153.301 73.3236 152.737 74.8302 152.737 76.6858H154.352C154.352 75.1497 154.805 74.2337 155.54 73.709L154.601 72.3947ZM152.737 76.6858C152.737 78.5839 153.296 80.1284 154.581 81.1075L155.56 79.8228C154.81 79.2514 154.352 78.2764 154.352 76.6858H152.737ZM154.601 81.1223C155.751 81.9435 157.029 82.3629 158.414 82.3629V80.7478C157.377 80.7478 156.425 80.4403 155.54 79.808L154.601 81.1223ZM127.453 68.465C125.945 68.465 124.541 68.2141 123.233 67.718L122.66 69.2281C124.162 69.798 125.762 70.0801 127.453 70.0801V68.465ZM123.265 67.7308C122 67.1888 120.899 66.4466 119.956 65.5036L118.814 66.6457C119.906 67.7377 121.18 68.5945 122.628 69.2153L123.265 67.7308ZM119.97 65.5177C119.07 64.5733 118.347 63.4681 117.802 62.1952L116.317 62.8315C116.934 64.272 117.762 65.541 118.8 66.6316L119.97 65.5177ZM117.814 62.2269C117.318 60.919 117.067 59.5146 117.067 58.0072H115.452C115.452 59.6977 115.734 61.2974 116.304 62.7997L117.814 62.2269ZM117.067 58.0072C117.067 56.4478 117.319 55.0476 117.811 53.7964L116.308 53.2058C115.733 54.668 115.452 56.2718 115.452 58.0072H117.067ZM117.806 53.8099C118.351 52.4921 119.07 51.397 119.956 50.5108L118.814 49.3688C117.762 50.4207 116.931 51.6999 116.313 53.1923L117.806 53.8099ZM119.956 50.5108C120.894 49.5729 121.987 48.8586 123.242 48.3657L122.651 46.8625C121.192 47.4355 119.911 48.2717 118.814 49.3688L119.956 50.5108ZM123.255 48.3603C124.557 47.8214 125.954 47.5495 127.453 47.5495V45.9344C125.753 45.9344 124.146 46.2439 122.638 46.8679L123.255 48.3603ZM127.453 47.5495C128.951 47.5495 130.32 47.8215 131.568 48.3563L132.204 46.8718C130.739 46.2438 129.152 45.9344 127.453 45.9344V47.5495ZM131.6 48.3691C132.9 48.8623 133.983 49.5728 134.862 50.4968L136.032 49.3829C134.974 48.2718 133.683 47.4318 132.172 46.859L131.6 48.3691ZM134.89 50.5246C135.814 51.4046 136.525 52.4874 137.018 53.7875L138.528 53.2147C137.955 51.7046 137.115 50.4132 136.004 49.3551L134.89 50.5246ZM137.031 53.8192C137.564 55.0643 137.838 56.4565 137.838 58.0072H139.453C139.453 56.2632 139.145 54.6513 138.515 53.183L137.031 53.8192ZM137.838 58.0072C137.838 59.5058 137.566 60.9023 137.027 62.2046L138.519 62.8221C139.143 61.3141 139.453 59.7066 139.453 58.0072H137.838ZM137.021 62.2181C136.528 63.4728 135.814 64.5657 134.876 65.5036L136.018 66.6457C137.115 65.5486 137.952 64.2673 138.525 62.8086L137.021 62.2181ZM134.862 65.5177C133.977 66.447 132.887 67.185 131.577 67.7269L132.195 69.2192C133.695 68.5983 134.979 67.7373 136.032 66.6316L134.862 65.5177ZM131.591 67.7214C130.337 68.214 128.96 68.465 127.453 68.465V70.0801C129.143 70.0801 130.722 69.798 132.181 69.2247L131.591 67.7214ZM127.453 63.6116C128.839 63.6116 130.099 63.1915 131.208 62.3599L130.239 61.0678C129.409 61.6898 128.489 61.9965 127.453 61.9965V63.6116ZM131.192 62.371C132.499 61.438 133.057 59.9015 133.057 58.0072H131.442C131.442 59.6016 130.983 60.5362 130.254 61.0567L131.192 62.371ZM133.057 58.0072C133.057 56.113 132.499 54.5765 131.192 53.6435L130.254 54.9577C130.983 55.4783 131.442 56.4129 131.442 58.0072H133.057ZM131.228 53.67C130.119 52.7832 128.852 52.3302 127.453 52.3302V53.9453C128.476 53.9453 129.389 54.2674 130.219 54.9312L131.228 53.67ZM127.453 52.3302C126.013 52.3302 124.703 52.7776 123.547 53.6582L124.526 54.9429C125.405 54.2731 126.373 53.9453 127.453 53.9453V52.3302ZM123.552 53.6545C122.301 54.5929 121.775 56.1266 121.775 58.0072H123.391C123.391 56.3993 123.834 55.4619 124.521 54.9466L123.552 53.6545ZM121.775 58.0072C121.775 59.8879 122.301 61.4216 123.552 62.3599L124.521 61.0678C123.834 60.5526 123.391 59.6152 123.391 58.0072H121.775ZM123.567 62.371C124.723 63.1964 126.026 63.6116 127.453 63.6116V61.9965C126.36 61.9965 125.385 61.6849 124.506 61.0567L123.567 62.371Z" fill="#2A2A30"/>
<path d="M37.6296 46.8146C37.6296 55.1485 39.81 61.6896 44.1707 66.438C48.5315 71.0895 54.9757 73.4152 63.5034 73.4152C72.0311 73.4152 78.4754 71.0895 82.8361 66.438C87.1969 61.6896 89.3773 55.1485 89.3773 46.8146C89.3773 38.4807 87.1969 31.988 82.8361 27.3366C78.4754 22.5882 72.0311 20.214 63.5034 20.214C54.9757 20.214 48.5315 22.5882 44.1707 27.3366C39.81 31.988 37.6296 38.4807 37.6296 46.8146ZM107.402 46.8146C107.402 53.5011 106.239 59.4608 103.913 64.6937C101.684 69.9266 98.5833 74.3358 94.6102 77.9214C90.637 81.5069 85.9856 84.2687 80.6557 86.2068C75.3259 88.048 69.6085 88.9686 63.5034 88.9686C57.3984 88.9686 51.6809 88.048 46.3511 86.2068C41.0213 84.2687 36.3698 81.5069 32.3967 77.9214C28.4236 74.3358 25.2741 69.9266 22.9484 64.6937C20.7195 59.4608 19.6051 53.5011 19.6051 46.8146C19.6051 40.1281 20.7195 34.1684 22.9484 28.9355C25.2741 23.7026 28.4236 19.2934 32.3967 15.7079C36.3698 12.1224 41.0213 9.409 46.3511 7.56779C51.6809 5.62967 57.3984 4.66061 63.5034 4.66061C69.6085 4.66061 75.3259 5.62967 80.6557 7.56779C85.9856 9.409 90.637 12.1224 94.6102 15.7079C98.5833 19.2934 101.684 23.7026 103.913 28.9355C106.239 34.1684 107.402 40.1281 107.402 46.8146ZM155.708 48.9223L132.524 89.114L126.201 86.2068L149.385 46.0151L155.708 48.9223ZM156.799 87.9511C155.151 87.9511 153.625 87.6604 152.22 87.079C150.863 86.546 149.676 85.795 148.659 84.8259C147.69 83.8084 146.914 82.6213 146.333 81.2646C145.8 79.8595 145.533 78.3332 145.533 76.6858C145.533 75.0869 145.8 73.6091 146.333 72.2524C146.914 70.8472 147.69 69.6359 148.659 68.6184C149.676 67.6009 150.863 66.8257 152.22 66.2927C153.625 65.7112 155.151 65.4205 156.799 65.4205C158.398 65.4205 159.875 65.7112 161.232 66.2927C162.589 66.8257 163.752 67.6009 164.721 68.6184C165.738 69.6359 166.513 70.8472 167.046 72.2524C167.628 73.6091 167.919 75.0869 167.919 76.6858C167.919 78.3332 167.628 79.8595 167.046 81.2646C166.513 82.6213 165.738 83.8084 164.721 84.8259C163.752 85.795 162.589 86.546 161.232 87.079C159.875 87.6604 158.398 87.9511 156.799 87.9511ZM156.799 81.5553C158.01 81.5553 159.1 81.1919 160.069 80.4651C161.038 79.6899 161.523 78.4301 161.523 76.6858C161.523 74.99 161.038 73.7786 160.069 73.0518C159.1 72.2766 158.01 71.889 156.799 71.889C155.587 71.889 154.473 72.2766 153.455 73.0518C152.438 73.7786 151.929 74.99 151.929 76.6858C151.929 78.4301 152.438 79.6899 153.455 80.4651C154.473 81.1919 155.587 81.5553 156.799 81.5553ZM125.837 69.2725C124.238 69.2725 122.736 69.006 121.331 68.473C119.974 67.8916 118.787 67.0921 117.77 66.0746C116.801 65.0571 116.026 63.87 115.444 62.5133C114.911 61.1082 114.645 59.6062 114.645 58.0072C114.645 56.3598 114.911 54.8578 115.444 53.5011C116.026 52.096 116.801 50.9089 117.77 49.9398C118.787 48.9223 119.974 48.1471 121.331 47.6141C122.736 47.0327 124.238 46.7419 125.837 46.7419C127.436 46.7419 128.914 47.0327 130.271 47.6141C131.676 48.1471 132.863 48.9223 133.832 49.9398C134.85 50.9089 135.625 52.096 136.158 53.5011C136.739 54.8578 137.03 56.3598 137.03 58.0072C137.03 59.6062 136.739 61.1082 136.158 62.5133C135.625 63.87 134.85 65.0571 133.832 66.0746C132.863 67.0921 131.676 67.8916 130.271 68.473C128.914 69.006 127.436 69.2725 125.837 69.2725ZM125.837 62.8041C127.049 62.8041 128.139 62.4407 129.108 61.7139C130.125 60.9871 130.634 59.7515 130.634 58.0072C130.634 56.2629 130.125 55.0274 129.108 54.3006C128.139 53.5253 127.049 53.1377 125.837 53.1377C124.578 53.1377 123.439 53.5253 122.421 54.3006C121.452 55.0274 120.968 56.2629 120.968 58.0072C120.968 59.7515 121.452 60.9871 122.421 61.7139C123.439 62.4407 124.578 62.8041 125.837 62.8041Z" fill="#B9E1AB"/>
<path d="M121.076 170.426L111.363 376.146L84.7076 376.778L86.8035 198.407L46.913 377.118L24.2168 376.088L59.8087 170.844L121.076 170.426Z" fill="#263238"/>
<path d="M104.502 41.4347C105.589 40.142 106.443 37.8387 105.774 36.2836C107.074 35.613 107.19 34.4565 107.19 32.9986C107.116 31.5326 106.683 30.1075 105.929 28.8487C104.907 26.7098 103.276 24.9211 101.242 23.7074C100.217 23.1189 99.0469 22.834 97.8669 22.8856C96.6868 22.9372 95.5456 23.3233 94.576 23.9989C93.8789 23.1696 93.0227 22.489 92.058 21.9974C91.0934 21.5059 90.04 21.2133 88.9604 21.1372C87.8807 21.061 86.7968 21.2028 85.7729 21.5542C84.749 21.9055 83.806 22.4593 82.9998 23.1825C82.4915 23.7961 81.9004 24.3358 81.2435 24.7862C80.0888 25.4276 78.6721 25.1846 77.3622 25.311C76.289 25.4037 75.2533 25.7507 74.3405 26.3234C73.4276 26.8961 72.6638 27.678 72.1122 28.6047C71.5605 29.5313 71.2368 30.576 71.1677 31.6526C71.0986 32.7293 71.2861 33.8069 71.7148 34.7966C70.7979 35.4415 70.0394 36.2867 69.4964 37.2683C68.9534 38.2499 68.6403 39.3422 68.5806 40.4628C68.4891 42.7013 68.7445 44.9405 69.3375 47.1008C69.9391 49.7929 70.6183 52.6212 72.5202 54.6135C73.8406 55.9822 75.6137 56.8218 77.5077 56.9752C78.8557 57.0653 80.2044 56.8101 81.4267 56.2337C82.649 55.6572 83.7047 54.7786 84.4941 53.6805" fill="#263238"/>
<path d="M76.101 87.2994L97.6619 86.3275C97.7881 84.0338 96.614 69.8053 96.614 69.8053C96.614 69.8053 104.765 68.5419 104.872 60.378C104.978 52.2141 103.552 33.476 103.552 33.476C98.9194 31.4818 93.8396 30.762 88.8367 31.3907C83.8337 32.0194 79.0889 33.9739 75.0919 37.0525L73.8887 38.0244L76.101 87.2994Z" fill="#FFBE9D"/>
<path d="M96.6327 69.7179C92.8536 69.798 89.1368 68.7455 85.959 66.6953C85.959 66.6953 88.4722 72.5267 96.6327 71.8366V69.7179Z" fill="#EB996E"/>
<path d="M74.8878 46.4698C74.752 46.4115 69.2889 44.8078 69.4733 50.3573C69.6577 55.9069 75.208 54.6142 75.208 54.449C75.208 54.2838 74.8878 46.4698 74.8878 46.4698Z" fill="#FFBE9D"/>
<path d="M73.4411 52.417C73.4411 52.417 73.3441 52.4947 73.1791 52.5725C72.9486 52.6645 72.6916 52.6645 72.4611 52.5725C72.0914 52.3566 71.7864 52.0451 71.5782 51.6706C71.3699 51.2962 71.266 50.8725 71.2773 50.4441C71.2469 49.9658 71.3266 49.487 71.5102 49.0445C71.5573 48.8702 71.6453 48.7096 71.7668 48.5761C71.8883 48.4425 72.0398 48.3399 72.2088 48.2767C72.32 48.2439 72.4393 48.2511 72.5457 48.2973C72.6521 48.3435 72.7389 48.4257 72.791 48.5294C72.8686 48.6849 72.8395 48.7918 72.8686 48.8016C72.8977 48.8113 72.9851 48.7044 72.9366 48.4711C72.8978 48.3354 72.8161 48.2161 72.7037 48.131C72.6261 48.0747 72.5381 48.0345 72.4447 48.0128C72.3514 47.9911 72.2547 47.9883 72.1603 48.0046C71.9357 48.0614 71.7291 48.1741 71.5595 48.332C71.3899 48.49 71.2628 48.6883 71.1899 48.9085C70.9655 49.398 70.8655 49.9356 70.8988 50.4732C70.8882 50.9705 71.0243 51.4598 71.2902 51.8799C71.556 52.3 71.9397 52.6322 72.3932 52.8349C72.5441 52.8733 72.7016 52.8775 72.8544 52.8472C73.0071 52.817 73.1512 52.753 73.2762 52.66C73.4314 52.5142 73.4605 52.4267 73.4411 52.417Z" fill="#EB996E"/>
<path d="M101.757 46.2962C101.762 46.5997 101.648 46.8931 101.439 47.1131C101.23 47.3331 100.944 47.4621 100.641 47.4722C100.493 47.4841 100.344 47.4662 100.202 47.4197C100.061 47.3731 99.9308 47.2987 99.8187 47.2009C99.7066 47.1032 99.6152 46.9839 99.5497 46.8503C99.4843 46.7166 99.4461 46.5712 99.4375 46.4226C99.4348 46.1198 99.5497 45.8278 99.7579 45.6084C99.9661 45.3889 100.251 45.2592 100.553 45.2466C100.702 45.2333 100.851 45.2502 100.993 45.2963C101.135 45.3424 101.266 45.4166 101.378 45.5147C101.491 45.6127 101.582 45.7324 101.647 45.8668C101.712 46.0011 101.749 46.1471 101.757 46.2962Z" fill="#263238"/>
<path d="M102.01 44.9824C101.874 45.1379 100.991 44.4771 99.739 44.4868C98.4872 44.4965 97.5654 45.1185 97.4296 44.963C97.2938 44.8075 97.5072 44.6228 97.9051 44.3313C98.4496 43.9545 99.0966 43.7544 99.7584 43.7579C100.41 43.7549 101.045 43.9591 101.573 44.341C101.951 44.6423 102.087 44.9144 102.01 44.9824Z" fill="#263238"/>
<path d="M89.491 46.5864C89.4963 46.8899 89.3822 47.1833 89.1735 47.4033C88.9647 47.6233 88.678 47.7522 88.3751 47.7624C88.227 47.7743 88.0779 47.7564 87.9368 47.7098C87.7956 47.6633 87.6651 47.5889 87.5531 47.4911C87.441 47.3933 87.3495 47.2741 87.2841 47.1405C87.2186 47.0068 87.1805 46.8614 87.1719 46.7128C87.1692 46.4084 87.2854 46.115 87.4957 45.8953C87.706 45.6756 87.9938 45.5469 88.2975 45.5368C88.4452 45.5249 88.5937 45.5428 88.7343 45.5895C88.8749 45.6362 89.0048 45.7107 89.1161 45.8086C89.2274 45.9065 89.3179 46.0258 89.3823 46.1594C89.4468 46.293 89.4837 46.4382 89.491 46.5864V46.5864Z" fill="#263238"/>
<path d="M89.7047 45.2168C89.5592 45.3723 88.6762 44.7114 87.4244 44.7212C86.1727 44.7309 85.2509 45.3529 85.1151 45.1974C84.9792 45.0419 85.1927 44.8572 85.6002 44.5657C86.141 44.1885 86.785 43.9882 87.4439 43.9922C88.0951 43.9893 88.7304 44.1935 89.2584 44.5754C89.6465 44.8767 89.7727 45.1488 89.7047 45.2168Z" fill="#263238"/>
<path d="M94.2462 54.5161C94.9086 54.3132 95.5925 54.1892 96.2839 54.1468C96.6041 54.1468 96.9049 54.0496 96.9631 53.8358C96.9847 53.4981 96.9107 53.1613 96.7497 52.8639L95.7793 50.4244C94.9063 48.3579 94.1958 46.2262 93.6543 44.0488C94.6976 46.0374 95.577 48.1079 96.2839 50.2398L97.196 52.6987C97.3958 53.0844 97.4542 53.528 97.361 53.9524C97.3144 54.0647 97.2431 54.165 97.1523 54.2458C97.0616 54.3265 96.9538 54.3857 96.837 54.4189C96.6605 54.4705 96.4775 54.4967 96.2936 54.4967C95.615 54.5937 94.9266 54.6002 94.2462 54.5161Z" fill="#263238"/>
<path d="M90.5588 55.4297C90.7626 55.4297 90.7723 56.7806 91.9367 57.7525C93.1012 58.7244 94.5469 58.5689 94.5567 58.7244C94.5664 58.8799 94.2267 58.9965 93.5863 59.0062C92.7921 59.0194 92.0187 58.7509 91.403 58.2482C90.8118 57.7611 90.4298 57.0653 90.3356 56.3044C90.3162 55.7115 90.4715 55.4297 90.5588 55.4297Z" fill="#263238"/>
<path d="M90.0242 40.2976C89.898 40.6377 88.656 40.4822 87.1811 40.6572C85.7061 40.8321 84.5223 41.2403 84.3283 40.9293C84.2409 40.7835 84.4447 40.4628 84.9299 40.1324C85.566 39.7206 86.2914 39.4673 87.0452 39.3937C87.7962 39.2994 88.5588 39.3895 89.2673 39.6561C89.8107 39.8797 90.0824 40.1421 90.0242 40.2976Z" fill="#263238"/>
<path d="M101.553 41.3477C101.33 41.6393 100.466 41.3477 99.4279 41.3477C98.3896 41.3477 97.4872 41.5421 97.3125 41.2408C97.2252 41.095 97.3611 40.8132 97.7492 40.5411C98.2648 40.2174 98.865 40.0547 99.4732 40.0738C100.081 40.0928 100.67 40.2927 101.165 40.648C101.533 40.9201 101.65 41.2117 101.553 41.3477Z" fill="#263238"/>
<path d="M73.451 37.6444C73.5577 40.0159 73.0338 42.6691 73.451 45.0017C73.5189 45.3613 74.4213 46.304 74.5184 46.6539C74.9938 48.7143 75.8477 49.5696 77.0801 47.4703C77.5525 46.1696 77.878 44.8199 78.0504 43.4466L79.535 35.9048C81.4479 36.9036 83.5784 37.4112 85.7355 37.382C86.8094 37.3514 87.8579 37.0482 88.7828 36.5008C89.7078 35.9535 90.4789 35.1799 91.0238 34.2525C91.5342 35.1 92.2287 35.8214 93.0557 36.3633C93.8826 36.9051 94.8208 37.2533 95.8006 37.3822C96.7803 37.511 97.7765 37.4172 98.715 37.1075C99.6536 36.7979 100.51 36.2805 101.222 35.5938C101.622 36.153 102.216 36.542 102.888 36.6841C103.559 36.8262 104.26 36.7111 104.851 36.3615C105.423 35.9791 105.859 35.4254 106.098 34.7796C106.337 34.1337 106.366 33.4288 106.18 32.7655C105.618 30.7732 103.483 29.6944 101.503 29.1112C93.7407 26.8273 85.1824 28.6156 78.2153 32.7072C77.1768 33.2724 76.2283 33.9898 75.4014 34.8357C74.6057 35.7007 73.5092 36.7795 73.4607 37.9069" fill="#263238"/>
<path d="M91.9081 51.0571C91.9081 51.0571 92.1992 50.7072 92.5873 50.0172C93.127 49.0409 93.3315 47.914 93.1695 46.8099C93.0415 45.917 92.6678 45.0773 92.0903 44.385C91.5128 43.6927 90.7542 43.1751 89.8996 42.8901C89.0451 42.6051 88.1281 42.5641 87.2516 42.7715C86.375 42.9789 85.5734 43.4267 84.9365 44.0646C84.2996 44.7025 83.8525 45.5054 83.6454 46.3834C83.4383 47.2614 83.4793 48.1798 83.7638 49.0357C84.0483 49.8917 84.5651 50.6514 85.2563 51.2299C85.9475 51.8083 86.7859 52.1826 87.6774 52.3109C88.7787 52.4754 89.9034 52.2739 90.8795 51.7374C91.5685 51.3487 91.8499 51.0182 91.9081 51.0571C91.9663 51.096 91.8499 51.1543 91.7043 51.3098C91.4851 51.5346 91.2409 51.7335 90.9766 51.9027C89.9853 52.5443 88.8002 52.8161 87.6289 52.6705C86.648 52.5482 85.7211 52.1526 84.9537 51.5287C84.1863 50.9047 83.6092 50.0775 83.2882 49.1411C82.9671 48.2048 82.915 47.197 83.1377 46.2324C83.3605 45.2679 83.8491 44.3853 84.548 43.6853C85.247 42.9852 86.1281 42.4958 87.0911 42.2727C88.0541 42.0496 89.0603 42.1018 89.9951 42.4234C90.93 42.745 91.7559 43.323 92.3789 44.0916C93.0018 44.8602 93.3968 45.7886 93.5189 46.7711C93.6665 47.94 93.3985 49.1236 92.762 50.1144C92.5955 50.3838 92.3967 50.6319 92.1701 50.853C92.0148 50.9956 91.9275 51.0636 91.9081 51.0571Z" fill="#455A64"/>
<path d="M104.783 51.0564C104.783 51.0564 105.074 50.7065 105.462 50.0165C105.998 49.0388 106.199 47.9122 106.035 46.8092C105.907 45.9162 105.533 45.0766 104.956 44.3843C104.378 43.6919 103.62 43.1743 102.765 42.8894C101.91 42.6044 100.993 42.5633 100.117 42.7708C99.2403 42.9782 98.4387 43.4259 97.8018 44.0639C97.1649 44.7018 96.7179 45.5047 96.5108 46.3827C96.3037 47.2607 96.3447 48.179 96.6292 49.035C96.9137 49.891 97.4305 50.6507 98.1217 51.2292C98.8129 51.8076 99.6512 52.1819 100.543 52.3101C101.644 52.4746 102.769 52.2732 103.745 51.7367C104.434 51.348 104.715 51.0175 104.783 51.0564C104.851 51.0953 104.725 51.1536 104.579 51.3091C104.359 51.5361 104.111 51.7352 103.842 51.9019C102.854 52.5421 101.672 52.8139 100.504 52.6697C99.5224 52.5493 98.5944 52.1551 97.8256 51.5321C97.0568 50.9091 96.4782 50.0823 96.1557 49.1459C95.8333 48.2096 95.7799 47.2013 96.0017 46.2361C96.2235 45.2708 96.7115 44.3874 97.4102 43.6864C98.1089 42.9854 98.9901 42.4952 99.9535 42.2714C100.917 42.0477 101.924 42.0995 102.859 42.4209C103.794 42.7424 104.621 43.3205 105.244 44.0895C105.867 44.8585 106.262 45.7874 106.384 46.7703C106.532 47.9392 106.264 49.1229 105.627 50.1137C105.461 50.3831 105.262 50.6312 105.035 50.8523C104.9 50.9981 104.783 51.0661 104.783 51.0564Z" fill="#455A64"/>
<path d="M96.2549 47.073C96.2549 47.2188 95.6145 47.3257 94.8189 47.3257C94.0232 47.3257 93.373 47.2188 93.373 47.073C93.373 46.9272 94.0232 46.8203 94.8189 46.8203C95.6145 46.8203 96.2549 46.9369 96.2549 47.073Z" fill="#455A64"/>
<path d="M74.5098 46.6848C75.9674 46.3788 77.4553 46.2418 78.9442 46.2766C80.4282 46.148 81.9219 46.1839 83.398 46.3836C81.9404 46.6888 80.4522 46.8226 78.9636 46.782C77.48 46.9165 75.9861 46.8839 74.5098 46.6848Z" fill="#455A64"/>
<path d="M79.1854 45.1188L72.2184 42.6016L65.6201 44.8952L56.4892 54.4586L50.5508 60.1345L60.2541 64.4497L65.3872 62.399L73.5672 56.8203L78.1957 48.0733C78.1957 48.0733 76.876 47.4513 75.3914 49.5409L74.0038 51.3972L72.6842 46.3433V44.8466L76.779 46.1004C77.1905 46.2343 77.6327 46.2411 78.0481 46.1198C78.4635 45.9984 78.8327 45.7546 79.1078 45.42L79.1854 45.1188Z" fill="#FFBE9D"/>
<path d="M66.1158 52.5156C66.1741 52.5156 66.4555 52.8849 66.7175 53.6236C67.0494 54.5926 67.1868 55.6178 67.1219 56.6403C67.0569 57.6627 66.7909 58.6622 66.339 59.5813C65.98 60.281 65.6501 60.6406 65.6016 60.6018C66.0877 59.3153 66.4136 57.9737 66.5719 56.6073C66.5926 55.2296 66.4394 53.8548 66.1158 52.5156Z" fill="#EB996E"/>
<path d="M66.1851 52.6128C67.0075 52.3292 67.8558 52.1273 68.7177 52.0103V52.0103H68.7759C68.9386 52.1078 69.0664 52.2542 69.1413 52.4287C69.2162 52.6031 69.2344 52.7968 69.1932 52.9821C69.1104 53.3309 68.9622 53.6607 68.7565 53.954C68.663 54.0789 68.5987 54.2232 68.5685 54.3763C68.5383 54.5294 68.5428 54.6874 68.5818 54.8385C68.735 55.1671 68.9728 55.4488 69.2708 55.6548H68.97C69.6778 55.2227 70.281 54.6384 70.736 53.9443C71.4152 52.8655 70.6389 51.7284 70.2217 50.6885C70.1304 50.4545 70.0167 50.2299 69.8821 50.0179C69.8068 49.9575 69.7185 49.9155 69.6241 49.8953C69.5298 49.8751 69.4321 49.8771 69.3387 49.9013L67.9608 50.1151C67.0533 50.3009 66.1311 50.405 65.2051 50.4261C66.0816 50.1216 66.9847 49.9003 67.9026 49.7652L69.2805 49.4931C69.44 49.4522 69.607 49.4503 69.7674 49.4875C69.9278 49.5247 70.0769 49.5999 70.2023 49.7069C70.3856 49.9465 70.5327 50.2117 70.6389 50.4941C70.8718 51.0189 71.1532 51.5243 71.3667 52.1463C71.483 52.48 71.5268 52.8348 71.495 53.1868C71.4632 53.5388 71.3566 53.8799 71.1823 54.1873C70.6862 54.9496 70.0223 55.5879 69.2417 56.0533L69.0864 56.1602L68.9409 56.0339C68.5841 55.7659 68.3059 55.4067 68.1355 54.994C68.0791 54.7817 68.0716 54.5595 68.1137 54.344C68.1557 54.1284 68.2461 53.9253 68.3781 53.7499C68.5674 53.4959 68.7088 53.2093 68.7953 52.9044C68.8295 52.7941 68.8303 52.6761 68.7975 52.5653C68.7647 52.4546 68.6997 52.3561 68.6109 52.2824H68.7177C67.8856 52.4712 67.0377 52.5818 66.1851 52.6128V52.6128Z" fill="#EB996E"/>
<path d="M71.3365 53.351C71.3365 53.351 71.453 53.5551 71.7829 53.662C71.8937 53.6974 72.0105 53.7098 72.1263 53.6983C72.2421 53.6869 72.3543 53.6519 72.456 53.5955C72.5578 53.539 72.647 53.4624 72.7181 53.3702C72.7892 53.278 72.8408 53.1723 72.8697 53.0594C73.0197 52.3145 72.8735 51.5403 72.4621 50.9018C72.1128 50.0854 71.7538 49.1135 71.3365 48.2291C70.9193 47.3447 69.8422 47.4904 68.9689 47.5876C68.0956 47.6848 67.2805 47.7917 66.611 47.8986C65.8934 48.0659 65.1631 48.1732 64.4277 48.2194C65.0966 47.8941 65.8092 47.6682 66.5431 47.5488C67.2126 47.3933 68.018 47.2377 68.9204 47.1211C69.4042 47.0393 69.8958 47.0132 70.3856 47.0434C70.6813 47.0706 70.9648 47.1745 71.2081 47.345C71.4514 47.5154 71.6462 47.7464 71.7732 48.0153C72.2486 48.9872 72.5494 49.9591 72.8988 50.756C73.0709 51.1612 73.2073 51.5807 73.3063 52.0098C73.3996 52.4126 73.3622 52.8348 73.1996 53.2149C73.1384 53.381 73.0415 53.5315 72.9158 53.6558C72.79 53.7801 72.6384 53.8751 72.4718 53.9341C72.3468 53.9772 72.2143 53.9943 72.0825 53.9842C71.9507 53.9742 71.8223 53.9373 71.7053 53.8758C71.3171 53.6425 71.3171 53.3413 71.3365 53.351Z" fill="#EB996E"/>
<path d="M74.0434 51.3868C73.7405 50.7964 73.5155 50.1692 73.3739 49.5208C73.1895 48.8793 72.9857 48.1893 72.7819 47.4701C72.6655 47.0911 72.5588 46.6537 72.4423 46.2747C72.3797 46.0931 72.2788 45.927 72.1466 45.7879C72.0143 45.6487 71.8538 45.5396 71.6758 45.468C70.8748 45.3036 70.0429 45.3849 69.2887 45.7012L67.2219 46.2552C66.5932 46.4617 65.9413 46.589 65.2812 46.6343C65.8622 46.3134 66.4818 46.0684 67.1249 45.9053L69.1529 45.2542C70.006 44.8724 70.9611 44.7836 71.8698 45.0015C72.1121 45.1007 72.3303 45.2511 72.5094 45.4422C72.6886 45.6334 72.8245 45.861 72.9081 46.1094C73.0439 46.5662 73.1216 46.955 73.2283 47.3535L73.7232 49.4333C73.9147 50.0677 74.0224 50.7244 74.0434 51.3868V51.3868Z" fill="#EB996E"/>
<path d="M56.4922 54.46C56.5345 54.3938 56.5832 54.3319 56.6377 54.2754C56.7736 54.1393 56.9191 53.9644 57.1035 53.7603L58.918 51.8165L65.5357 44.8091L72.1341 42.4863H72.1826L79.1593 44.9938H79.2563V45.4506C78.9715 45.8041 78.5855 46.0619 78.1501 46.1892C77.6998 46.2914 77.2323 46.2914 76.782 46.1892L73.9195 45.3145L72.6968 44.9355L72.8909 44.7994C72.8909 45.2951 72.8909 45.7713 72.8909 46.2961V46.2476C73.3373 47.9775 73.7836 49.6686 74.2106 51.3014H73.9486C74.5502 50.5044 75.1033 49.7269 75.7146 48.9688C75.9974 48.5584 76.3956 48.2414 76.8586 48.058C77.3216 47.8746 77.8285 47.833 78.3151 47.9386H78.4509L78.3733 48.0844L73.7254 56.8314L67.7093 60.8745L65.9724 62.0311C65.594 62.2838 65.3902 62.4004 65.3902 62.4004C65.3902 62.4004 65.5746 62.2449 65.9336 61.9825L67.5541 60.8551L73.5119 56.7343L78.1113 47.9872L78.1793 48.1816C77.9778 48.1195 77.7661 48.0978 77.5563 48.1178C77.3465 48.1379 77.1427 48.1992 76.9566 48.2982C76.5572 48.5114 76.2017 48.7983 75.9087 49.1438C75.3362 49.863 74.7637 50.6794 74.1718 51.4666L73.9874 51.7096L73.9098 51.418C73.4731 49.7755 73.0365 48.0941 72.5804 46.3642C72.5804 45.8685 72.5804 45.3923 72.5804 44.8675V44.6634L72.7745 44.7217L73.9971 45.1007L76.8596 45.9754C77.2652 46.0676 77.6863 46.0676 78.0919 45.9754C78.4732 45.8659 78.8119 45.6421 79.0623 45.334V45.4312V45.1396L79.1593 45.2757L72.1923 42.7487H72.2893L65.6813 45.0327L58.986 51.9623L57.1326 53.9061L56.6377 54.4017C56.5911 54.4256 56.5424 54.4452 56.4922 54.46V54.46Z" fill="#EB996E"/>
<path d="M59.3252 115.981L58.8691 82.4018L67.6022 79.4862C70.3482 78.9613 73.0167 77.9603 76.2479 77.8242C79.1958 80.1593 82.8326 81.4514 86.5907 81.4989C90.3489 81.5464 94.017 80.3466 97.0228 78.0866L97.3139 77.8631C98.1484 77.9603 99.2546 78.0672 100.642 78.2324H100.914C104.366 78.666 107.65 79.9776 110.452 82.0422L153.846 107.992L179.327 88.5539L192.232 98.6908C192.232 98.6908 158.853 132.124 155.612 132.921C153.37 133.475 131.101 121.258 117.604 113.755C118.157 121.851 121.174 166.85 121.029 173.041H59.0244L58.9759 144.661V136.935L59.3252 115.981Z" fill="#59B039"/>
<path d="M116.768 94.5586C116.694 95.054 116.678 95.5562 116.72 96.0553C116.72 97.1341 116.797 98.4948 116.836 100.098C116.962 103.519 117.185 108.233 117.467 113.442C117.748 118.652 118.03 123.366 118.272 126.777C118.398 128.38 118.505 129.693 118.583 130.81C118.603 131.311 118.672 131.809 118.786 132.297C118.86 131.805 118.876 131.306 118.835 130.81C118.835 129.722 118.757 128.371 118.709 126.757C118.583 123.336 118.369 118.623 118.088 113.413C117.806 108.204 117.525 103.481 117.282 100.069C117.156 98.4656 117.049 97.1536 116.962 96.0359C116.946 95.5382 116.881 95.0434 116.768 94.5586V94.5586Z" fill="#263238"/>
<path d="M172.503 94.1113C172.358 94.2668 175.162 96.9201 178.743 100.05C182.323 103.179 185.312 105.609 185.428 105.473C185.545 105.337 182.731 102.713 179.15 99.5734C177.365 98.0086 175.725 96.6577 174.522 95.6275C173.898 95.0601 173.222 94.5525 172.503 94.1113Z" fill="#263238"/>
<path d="M169.544 96.3281C169.428 96.4642 172.271 99.1272 175.861 102.315C177.656 103.909 179.306 105.318 180.519 106.319C181.14 106.91 181.831 107.422 182.576 107.845C182.069 107.156 181.479 106.533 180.82 105.989C179.675 104.9 178.074 103.433 176.269 101.839C174.464 100.245 172.824 98.8356 171.602 97.8443C170.982 97.2541 170.291 96.7446 169.544 96.3281V96.3281Z" fill="#263238"/>
<path d="M52.5126 54.5664C52.5126 54.5664 27.7108 77.7849 19.8802 87.2998C16.3385 91.5858 15.5331 97.9906 18.3859 102.753C19.5 104.627 21.1109 106.155 23.0396 107.167C24.9684 108.179 27.1395 108.636 29.3119 108.487L59.1788 106.485L61.4397 81.5947L43.3818 87.2414L64.4187 65.2086L52.5126 54.5664Z" fill="#59B039"/>
<path d="M59.0045 126.184C58.859 126.184 58.8202 120.839 58.9075 114.259C58.9948 107.679 59.1792 102.354 59.3247 102.354C59.4703 102.354 59.4994 107.689 59.4121 114.269C59.3247 120.849 59.1792 126.184 59.0045 126.184Z" fill="#263238"/>
<path d="M51.5598 78.6797C51.3452 79.0288 51.0948 79.3545 50.8127 79.6516L48.6197 82.1105C46.7469 84.1806 44.0979 87.0574 41.0705 90.3133L41.1287 90.2063C40.8376 91.256 40.4786 92.3348 40.071 93.4136C39.2426 95.7589 38.1383 97.997 36.7816 100.081C35.6118 101.758 34.1169 103.183 32.3859 104.27C31.2283 105.02 29.9366 105.538 28.5822 105.796C28.2177 105.867 27.8475 105.906 27.476 105.912C27.2237 105.912 27.0879 105.912 27.0879 105.912C27.0879 105.912 27.6216 105.834 28.5434 105.611C29.8444 105.281 31.0787 104.729 32.1919 103.978C33.8444 102.876 35.2707 101.468 36.3934 99.8281C37.7033 97.7603 38.7805 95.5537 39.6053 93.2484C40.0031 92.1793 40.3524 91.1102 40.6532 90.08V90.0217C43.6904 86.7756 46.3879 83.9474 48.3286 81.9355L50.6186 79.5836C50.9043 79.2543 51.2193 78.9517 51.5598 78.6797V78.6797Z" fill="#263238"/>
<g opacity="0.3">
<path opacity="0.3" d="M27.5938 105.736C29.615 105.767 31.6223 105.396 33.4995 104.645C35.3768 103.894 37.0867 102.777 38.5305 101.36C39.9743 99.943 41.1232 98.2532 41.9108 96.3885C42.6984 94.5238 43.1091 92.5212 43.1191 90.4965C43.1191 89.9814 43.0318 89.3691 42.5758 89.1358C42.3562 89.0575 42.1167 89.0563 41.8963 89.1322C41.6759 89.2081 41.4879 89.3568 41.3628 89.5537C41.1243 89.9543 40.9754 90.402 40.9262 90.8658C40.2621 94.1828 38.8216 97.2946 36.7231 99.9455C34.6247 102.596 31.9282 104.711 28.8552 106.115" fill="black"/>
</g>
<g opacity="0.3">
<path opacity="0.3" d="M146.878 104.997C146.228 105.516 145.71 106.182 145.365 106.94C143.259 110.264 139.096 111.605 136.311 114.375C134.186 116.504 132.488 119.021 132.479 122.034L137.029 124.104L148.868 105.638C148.761 104.792 147.587 104.53 146.878 104.997Z" fill="black"/>
</g>
<path d="M195.996 75.9774C196.021 74.8117 196.357 73.6739 196.969 72.6824C197.582 71.691 198.449 70.8823 199.48 70.3404C199.807 70.1496 200.178 70.0459 200.557 70.0391C200.745 70.0376 200.93 70.091 201.088 70.1929C201.247 70.2947 201.372 70.4405 201.449 70.6125C201.503 70.8065 201.503 71.0115 201.448 71.2052C201.393 71.3989 201.286 71.5738 201.139 71.7108C200.833 71.9824 200.509 72.2324 200.169 72.4591C199.687 72.8593 199.323 73.3817 199.113 73.9717C198.903 74.5617 198.855 75.1974 198.975 75.8122" fill="#FFBE9D"/>
<path d="M177.695 34.2921C173.258 34.6279 169.133 36.7099 166.224 40.0828C163.315 43.4557 161.857 47.8452 162.17 52.2916C163.053 65.4121 162.781 83.2366 156.523 94.0829C145.694 112.86 129.45 116.193 130.692 153.738C131.934 191.282 133.603 195.257 126.112 204.956C118.621 214.656 102.378 209.641 95.2943 231.752C88.2108 253.862 93.208 364.405 81.9618 376.087C81.9618 376.087 72.8018 384.834 63.2246 384.008H117.04C121.618 384.066 126.037 382.321 129.343 379.149C130.708 377.84 131.79 376.266 132.525 374.523C133.259 372.779 133.629 370.904 133.613 369.012C133.613 361.402 136.107 253.881 140.279 244.697C144.452 235.513 166.1 226.153 169.389 204.976C172.679 183.798 171.543 149.529 171.514 143.368C171.514 137.536 172.65 126.087 183.847 112.743C200.848 92.5765 198.528 70.534 198.907 63.0212C199.285 55.5085 195.996 32.8926 195.996 32.8926L177.695 34.2921Z" fill="#EBEBEB"/>
<path d="M162.393 58.5885C162.393 54.5843 163.295 51.0563 164.236 47.1688C165.372 42.4648 168.642 39.034 172.611 38.4217C177.627 37.7025 182.576 44.9528 182.576 44.9528C182.576 44.9528 202.08 42.1149 211.356 41.4249C210.677 39.0049 205.806 32.7653 202.303 32.0072C198.781 31.3866 195.197 31.194 191.629 31.4338C185.225 31.6088 178.597 31.8323 172.814 34.5925C167.031 37.3526 161.073 41.3957 162.48 56.3045" fill="#F5F5F5"/>
<path d="M65.6406 384.134L66.611 384.008C67.5222 383.888 68.4237 383.703 69.3085 383.454C72.7001 382.451 75.8893 380.859 78.7305 378.75C79.7214 378.047 80.6737 377.291 81.5833 376.485C82.5404 375.564 83.2769 374.438 83.7374 373.19C84.8086 370.362 85.5889 367.431 86.0662 364.443C87.2619 357.117 88.0781 349.734 88.5115 342.323C89.6468 325.859 90.1125 306.208 90.7917 284.398C91.1508 273.484 91.5098 262.045 92.4219 250.178C92.6548 247.262 92.9362 244.24 93.3243 241.237C93.6606 238.197 94.2316 235.188 95.0321 232.237C95.5173 230.769 96.0801 229.321 96.6332 227.873L97.6715 225.784L98.1954 224.734C98.3895 224.403 98.6127 224.073 98.8261 223.762C100.454 221.043 102.609 218.677 105.162 216.803C107.73 214.98 110.522 213.497 113.469 212.391C116.362 211.36 119.166 210.092 121.852 208.6L122.823 207.998C123.123 207.774 123.405 207.522 123.696 207.288L124.569 206.579L125.326 205.743C125.569 205.471 125.831 205.199 126.073 204.917L126.743 204.003C127.209 203.411 127.616 202.779 128.024 202.147C128.831 200.9 129.51 199.575 130.052 198.191C130.549 196.804 130.913 195.372 131.138 193.915C131.534 191.017 131.699 188.092 131.633 185.168C131.633 182.252 131.526 179.337 131.429 176.518C131.203 170.81 130.986 165.228 130.779 159.773C130.702 157.042 130.537 154.359 130.566 151.686C130.566 150.355 130.566 149.033 130.566 147.721C130.566 146.409 130.702 145.107 130.76 143.834C130.828 141.239 131.284 138.712 131.585 136.214C132.016 133.776 132.599 131.367 133.331 129.002C134.717 124.499 136.789 120.238 139.474 116.368C142 112.86 144.714 109.492 147.605 106.28C150.189 103.338 152.585 100.234 154.776 96.9883L156.231 94.6655C156.716 93.9074 157.085 93.1007 157.502 92.3329C158.225 90.806 158.85 89.2349 159.375 87.629C161.004 82.2585 161.981 76.7112 162.286 71.1068C162.597 66.5 162.587 62.9138 162.568 60.4937C162.568 59.2886 162.568 58.3653 162.519 57.7238C162.471 57.0824 162.519 56.752 162.519 56.752C162.519 56.752 162.626 58.0251 162.684 60.4549C162.742 62.8846 162.771 66.4806 162.49 71.0874C162.209 76.69 161.252 82.2379 159.637 87.6095C159.117 89.2315 158.495 90.8189 157.774 92.3621C157.357 93.1299 156.988 93.956 156.493 94.7141C155.998 95.4722 155.523 96.2594 155.047 97.0563C152.856 100.321 150.461 103.444 147.877 106.406C144.976 109.622 142.252 112.993 139.716 116.504C137.067 120.345 135.022 124.57 133.652 129.032C132.939 131.382 132.372 133.774 131.953 136.194C131.653 138.673 131.216 141.18 131.148 143.765C131.09 145.048 130.973 146.341 130.954 147.653C130.935 148.965 130.954 150.277 130.954 151.609C130.954 154.252 131.1 156.954 131.177 159.675C131.391 165.131 131.614 170.716 131.847 176.431C131.944 179.278 132.05 182.165 132.05 185.09C132.126 188.047 131.961 191.005 131.556 193.935C131.33 195.425 130.96 196.89 130.449 198.308C129.898 199.727 129.202 201.085 128.373 202.361C127.965 203.002 127.548 203.644 127.082 204.246L126.403 205.16C126.151 205.461 125.879 205.733 125.627 206.025L124.841 206.89L123.948 207.629C123.647 207.862 123.356 208.124 123.036 208.348L122.066 208.97C119.359 210.478 116.532 211.759 113.614 212.799C110.704 213.889 107.948 215.353 105.415 217.153C102.913 218.984 100.802 221.297 99.2046 223.956C99.0008 224.277 98.7776 224.598 98.5835 224.928L98.0693 225.958L97.0989 228.019C96.5555 229.457 95.9928 230.886 95.5173 232.324C94.7258 235.248 94.1581 238.227 93.8192 241.237C93.4311 244.23 93.1497 247.204 92.9071 250.168C91.995 261.996 91.6262 273.445 91.2575 284.35C90.5492 306.159 90.0543 325.82 88.8705 342.294C88.4203 349.733 87.5781 357.142 86.3476 364.492C85.8558 367.509 85.0526 370.466 83.9509 373.317C83.4831 374.599 82.7221 375.754 81.7288 376.689C80.8005 377.494 79.8287 378.247 78.8178 378.944C75.9514 381.051 72.7305 382.624 69.3085 383.59C68.418 383.831 67.5093 384 66.5916 384.095L65.6406 384.134Z" fill="#263238"/>
<path d="M162.452 56.713L162.364 55.4884C162.364 54.6623 162.238 53.4669 162.141 51.8827C162.109 50.9938 162.141 50.1038 162.238 49.2197C162.345 48.2478 162.607 47.1982 162.83 46.061C163.389 43.4173 164.638 40.9692 166.449 38.9662C168.875 36.6159 171.782 34.8219 174.969 33.7083C178.735 32.3538 182.67 31.5232 186.661 31.2397C188.806 31.055 191.028 30.9578 193.328 30.9189C195.709 30.8217 198.091 31.0705 200.401 31.6576C201.608 31.9761 202.783 32.4022 203.914 32.9308C205.063 33.5074 206.136 34.2257 207.106 35.0689C208.123 35.9107 209.047 36.8588 209.862 37.8971C210.281 38.4277 210.648 38.9973 210.959 39.5979C211.309 40.2107 211.515 40.8955 211.56 41.6V41.7653H211.386C207.029 42.1443 202.361 43.1065 197.471 43.7091L197.646 43.4952C198.218 48.2381 198.8 53.2142 199.111 58.2972C199.179 59.5703 199.227 60.8727 199.208 62.1847C199.189 63.4968 199.111 64.7894 199.111 66.0723C199.111 68.7159 199.111 71.3983 198.907 74.1196C198.608 79.7158 197.671 85.2593 196.113 90.6418C194.428 96.2865 191.952 101.663 188.757 106.61C185.536 111.712 181.092 116.018 178.084 121.46C174.832 126.874 172.778 132.922 172.058 139.198C171.823 142.432 171.784 145.677 171.941 148.916C171.98 152.156 172.019 155.441 172.058 158.771C172.106 165.38 172.058 172.077 171.835 178.841C171.563 186.616 171.155 194.391 170.166 201.914C169.777 205.692 168.876 209.4 167.488 212.935C166.015 216.371 164.1 219.599 161.792 222.537C157.241 228.369 151.584 233.005 146.402 237.777L144.568 239.652C143.976 240.294 143.375 240.926 142.802 241.596L142.016 242.626C141.739 242.952 141.498 243.307 141.298 243.686L140.667 244.803C140.505 245.191 140.362 245.587 140.241 245.989C139.529 249.324 139.026 252.699 138.736 256.097C137.446 269.548 136.844 282.396 136.262 294.409C135.68 306.421 135.292 317.618 134.942 327.842C134.593 338.066 134.331 347.28 134.118 355.434C134.027 359.496 133.943 363.267 133.865 366.747C133.91 368.42 133.819 370.094 133.594 371.752C133.331 373.252 132.812 374.695 132.061 376.019C130.782 378.236 128.984 380.107 126.821 381.471C125.24 382.464 123.51 383.196 121.697 383.638C120.587 383.916 119.453 384.085 118.311 384.144C117.544 384.144 117.146 384.144 117.146 384.144H117.438C117.632 384.144 117.923 384.144 118.311 384.095C121.303 383.9 124.198 382.958 126.733 381.354C128.864 379.991 130.632 378.13 131.886 375.931C132.619 374.624 133.124 373.201 133.38 371.723C133.596 370.077 133.677 368.416 133.623 366.757C133.691 363.277 133.759 359.496 133.836 355.434C134.021 347.309 134.263 338.057 134.583 327.832C134.904 317.608 135.302 306.451 135.835 294.399C136.369 282.348 136.99 269.538 138.271 256.058C138.536 252.626 139.019 249.214 139.717 245.843C139.862 245.425 139.979 244.978 140.163 244.58L140.823 243.423C141.03 243.033 141.277 242.665 141.56 242.325L142.366 241.275C142.948 240.605 143.549 239.963 144.151 239.332L146.092 237.485C151.293 232.684 156.921 228.097 161.423 222.294C163.702 219.391 165.594 216.202 167.051 212.809C168.412 209.311 169.3 205.647 169.69 201.914C170.661 194.382 171.078 186.675 171.35 178.88C171.573 172.125 171.621 165.439 171.573 158.83C171.534 155.525 171.495 152.244 171.456 148.984C171.305 145.745 171.347 142.5 171.582 139.266C172.309 132.919 174.391 126.804 177.686 121.334C180.723 115.833 185.196 111.499 188.36 106.464C191.543 101.56 194.01 96.2257 195.686 90.6223C197.236 85.2713 198.174 79.7608 198.48 74.1973C198.635 71.4858 198.674 68.8033 198.694 66.1598C198.694 64.8477 198.752 63.5065 198.791 62.2722C198.829 61.0379 198.791 59.687 198.703 58.3846C198.403 53.2822 197.83 48.345 197.267 43.6021V43.4078H197.461C202.313 42.8052 207 41.8527 211.405 41.464L211.23 41.6486C211.04 40.3547 210.48 39.1433 209.62 38.1596C208.819 37.1422 207.915 36.2107 206.922 35.3799C205.972 34.5575 204.926 33.8527 203.807 33.2806C202.694 32.7624 201.538 32.3397 200.353 32.0172C198.071 31.4378 195.719 31.1891 193.366 31.2785C191.076 31.2785 188.864 31.3952 186.729 31.5798C182.756 31.8417 178.837 32.6529 175.085 33.9901C171.926 35.0774 169.039 36.8381 166.624 39.1509C164.825 41.1249 163.577 43.5383 163.005 46.1485C162.781 47.2759 162.5 48.3158 162.403 49.2877C162.288 50.1639 162.246 51.0481 162.277 51.9313C162.355 53.5057 162.413 54.7109 162.452 55.5273C162.49 56.3437 162.452 56.713 162.452 56.713Z" fill="#263238"/>
<path d="M211.376 41.5997C211.2 41.6622 211.018 41.7014 210.832 41.7163L209.241 41.9495L203.419 42.7173L184.158 45.0693L182.615 45.254H182.46L182.382 45.1276C181.447 43.657 180.361 42.2888 179.141 41.0457C178.032 39.9008 176.623 39.0923 175.075 38.7132C173.67 38.4308 172.216 38.5179 170.854 38.9658C169.667 39.354 168.589 40.0204 167.71 40.9096C166.448 42.2394 165.459 43.8046 164.799 45.5164C164.576 46.119 164.411 46.5952 164.314 46.9256C164.268 47.0906 164.213 47.2528 164.149 47.4116C164.144 47.2373 164.166 47.0633 164.217 46.8965C164.326 46.4066 164.462 45.9231 164.625 45.4484C165.213 43.6765 166.165 42.0477 167.419 40.6666C168.325 39.7183 169.442 38.9988 170.68 38.5674C172.111 38.0745 173.647 37.9672 175.134 38.2564C176.773 38.6337 178.269 39.4774 179.442 40.6861C180.694 41.9453 181.807 43.3368 182.76 44.8361L182.518 44.7292L184.061 44.5445L203.341 42.3383L209.163 41.726L210.755 41.5802C210.962 41.5605 211.17 41.5671 211.376 41.5997V41.5997Z" fill="#263238"/>
<path d="M198.907 77.707C198.898 77.9496 198.817 78.1841 198.676 78.3812C198.534 78.5782 198.338 78.7291 198.111 78.815L192.289 81.0212C191.396 81.3613 190.203 81.614 189.65 80.8365C189.487 80.5526 189.422 80.223 189.464 79.8982C189.506 79.5734 189.653 79.2714 189.883 79.0385C190.354 78.5956 190.917 78.2635 191.532 78.0666C193.774 77.0947 196.229 76.1812 198.499 75.2384C198.551 75.2166 198.608 75.2086 198.664 75.2151C198.721 75.2216 198.774 75.2424 198.82 75.2756C198.866 75.3088 198.902 75.3531 198.926 75.4045C198.95 75.4558 198.96 75.5124 198.955 75.5689L198.907 77.707Z" fill="#FFBE9D"/>
<path d="M199.13 79.6587C199.258 80.2374 199.174 80.8429 198.895 81.3654C198.615 81.8878 198.158 82.2926 197.606 82.5064L192.201 84.5862C191.309 84.9264 190.115 85.1791 189.562 84.4113C189.399 84.1274 189.334 83.7977 189.376 83.473C189.418 83.1482 189.565 82.8462 189.795 82.6133C190.264 82.1677 190.828 81.8352 191.444 81.6414C193.589 80.7473 195.927 79.8434 198.101 78.9493C198.197 78.9082 198.301 78.8891 198.406 78.8931C198.51 78.8971 198.612 78.9243 198.705 78.9726C198.798 79.0209 198.879 79.0892 198.942 79.1725C199.006 79.2559 199.05 79.3522 199.071 79.4547L199.13 79.6587Z" fill="#FFBE9D"/>
<path d="M198.161 82.5661C198.364 83.4143 198.252 84.3076 197.844 85.0786C197.437 85.8497 196.763 86.4456 195.949 86.7549L191.447 88.4752C190.554 88.8153 189.36 89.068 188.807 88.2905C188.648 88.0057 188.584 87.6768 188.626 87.3528C188.668 87.0288 188.813 86.7271 189.04 86.4925C189.516 86.0512 190.082 85.7195 190.699 85.5206C193.096 84.5487 195.745 83.4991 198.132 82.498L198.161 82.5661Z" fill="#FFBE9D"/>
</g>
<defs>
<clipPath id="clip0">
<rect width="220" height="210" fill="white"/>
</clipPath>
</defs>
</svg>
