<svg width="220" height="210" viewBox="0 0 220 210" fill="none" xmlns="http://www.w3.org/2000/svg">
<g clip-path="url(#clip0)">
<path d="M88.1133 97.4395C88.1133 97.4395 71.36 97.4675 63.3463 123.269C53.5736 154.778 47.2679 164.974 48.0683 176.787L77.5075 180.883L88.1133 137.013V97.4395Z" fill="#59B039"/>
<path d="M154.238 210.25L151.445 147.017C151.445 146.975 151.445 147.059 151.445 147.017L143.772 98.285C143.742 98.0655 143.648 97.8598 143.502 97.6935C143.357 97.5272 143.165 97.4077 142.952 97.35C140.239 96.6114 130.462 94.0776 122.983 93.7971C114.211 93.4698 101.53 95.1995 101.53 95.1995C101.53 95.1995 90.1517 96.415 83.8878 98.6637C83.644 98.7506 83.4375 98.9196 83.3035 99.142C83.1695 99.3644 83.1162 99.6265 83.1526 99.8838L86.2333 128.901L94.9357 172.925C96.0665 172.925 76.8328 203.504 74.3105 210.25H154.238Z" fill="#59B039"/>
<g opacity="0.3">
<path opacity="0.3" d="M88.8346 187.18C88.4623 190.892 89.6257 194.66 91.6268 197.797C93.6279 200.934 96.4667 203.473 99.5381 205.567C103.098 207.993 106.919 208.919 111.172 209.499C117.389 210.377 123.724 209.318 129.322 206.465C134.855 203.58 139.858 199.779 145.195 196.549C147.546 195.147 150.128 193.623 151.124 191.056C151.59 189.812 151.59 188.209 150.552 187.353C149.514 186.498 148.16 186.708 146.922 186.951C140.87 188.148 135.019 190.21 129.55 193.076C126.553 194.646 123.556 196.498 120.187 196.816C116.817 197.133 113.42 195.764 110.386 194.123C107.063 192.324 103.957 190.146 101.13 187.634C99.5707 186.231 98.0117 184.717 96.0106 184.17C94.0095 183.623 91.4221 184.534 90.9893 186.573" fill="#2A2A30"/>
</g>
<path d="M155.486 105.945C155.663 105.43 158.432 108.324 159.507 110.769C162.411 117.37 174.263 142.526 174.445 147.323C174.654 152.75 172.891 152.503 172.891 152.503C172.891 152.503 175.515 155.873 174.464 156.916C173.412 157.958 154.201 160.656 154.201 160.656L145.578 130.792L155.486 105.945Z" fill="#59B039"/>
<path d="M173.129 152.936C172.943 153.037 172.749 153.122 172.548 153.188C172.166 153.338 171.617 153.529 170.9 153.74C167.222 154.818 163.366 155.145 159.559 154.703C158.833 154.614 158.247 154.52 157.847 154.436C157.637 154.407 157.431 154.355 157.232 154.282C157.445 154.282 157.657 154.302 157.865 154.343C158.266 154.399 158.852 154.464 159.578 154.53C163.363 154.877 167.18 154.552 170.854 153.571C171.561 153.384 172.124 153.221 172.515 153.104C172.713 153.025 172.919 152.969 173.129 152.936V152.936Z" fill="#2A2A30"/>
<path d="M89.6477 146.438C89.5567 146.203 89.4866 145.96 89.4383 145.713C89.3219 145.246 89.1637 144.558 88.9729 143.708C88.6053 142.015 88.1539 139.664 87.6699 137.065C87.1859 134.465 86.7391 132.147 86.4366 130.403C86.2831 129.585 86.1528 128.907 86.0597 128.388C85.9973 128.144 85.9584 127.895 85.9434 127.645C86.0311 127.88 86.0995 128.122 86.1481 128.369C86.2645 128.837 86.4227 129.524 86.6135 130.37C86.9765 132.067 87.4325 134.419 87.9165 137.018C88.4005 139.617 88.824 141.931 89.1498 143.675L89.5267 145.694C89.5854 145.939 89.6259 146.187 89.6477 146.438Z" fill="#2A2A30"/>
<path d="M93.4414 96.4543C93.4414 96.4543 116.882 151.002 122.392 152.432C132.007 154.933 151.71 123.714 157.523 114.065C158.071 113.163 158.356 112.126 158.347 111.069C158.337 110.013 158.032 108.981 157.467 108.09C155.176 104.471 152.144 101.384 148.572 99.0351C145.001 96.686 140.971 95.1288 136.753 94.4674C123.839 92.3123 108.938 93.5885 100.455 95.1827C96.1592 95.9868 93.4414 96.4543 93.4414 96.4543Z" fill="#59B039"/>
<path d="M103.219 27.9843C108.696 22.3744 117.338 19.0739 124.5 22.2201C129.317 24.3379 132.584 28.8773 136.809 32.0141C139.885 34.3002 143.687 36.0673 145.302 39.5548C146.721 42.6263 146.037 46.2073 145.693 49.5779C145.349 52.9486 143.459 57.6796 144.041 61.0175C144.725 64.9445 149.625 67.8616 150.765 69.2174C155.089 74.3598 156.434 77.8987 154.837 82.7233C153.711 86.122 152.929 93.7562 149.104 99.3941L141.756 95.7711C137.251 94.2143 131.485 93.6019 125.277 93.3261L124.756 92.335L122.429 94.3545L103.219 27.9843Z" fill="#2A2A30"/>
<path d="M100.786 34.0999L100.754 38.2232L99.5949 100.031C99.4925 107.193 106.315 113.293 113.952 113.345C121.667 113.396 124.813 107.576 125.032 100.339C125.265 92.7424 125.646 84.7529 125.646 84.7529C125.646 84.7529 135.419 83.3972 137.802 70.6907C138.979 64.3702 138.946 53.9497 138.644 45.446C138.582 43.6275 138.153 41.8405 137.385 40.1926C136.617 38.5448 135.525 37.0702 134.174 35.8576C132.824 34.6451 131.243 33.7197 129.527 33.1372C127.811 32.5547 125.995 32.3272 124.19 32.4684L100.786 34.0999Z" fill="#FFBE9D"/>
<path d="M134.672 53.6355C134.663 54.0625 134.489 54.4695 134.187 54.7698C133.884 55.0701 133.477 55.2401 133.052 55.2436C132.844 55.255 132.636 55.2242 132.44 55.1532C132.244 55.0821 132.065 54.9723 131.912 54.8301C131.759 54.6879 131.636 54.5164 131.551 54.3256C131.465 54.1348 131.419 53.9288 131.414 53.7196C131.421 53.2929 131.594 52.886 131.896 52.5856C132.198 52.2852 132.604 52.115 133.029 52.1114C133.237 52.1007 133.445 52.1319 133.641 52.2032C133.837 52.2744 134.016 52.3842 134.169 52.5262C134.323 52.6682 134.446 52.8394 134.532 53.0299C134.618 53.2204 134.666 53.4263 134.672 53.6355V53.6355Z" fill="#2A2A30"/>
<path d="M136.247 50.7791C136.042 50.9848 134.851 50.0358 133.078 49.989C131.305 49.9423 130.015 50.7931 129.82 50.5687C129.732 50.4706 129.946 50.1012 130.518 49.6992C131.29 49.1902 132.201 48.9353 133.124 48.9699C134.036 48.9929 134.918 49.3055 135.642 49.8628C136.177 50.2929 136.349 50.6856 136.247 50.7791Z" fill="#2A2A30"/>
<path d="M117.423 53.6355C117.416 54.0621 117.243 54.469 116.941 54.7695C116.639 55.0699 116.233 55.24 115.808 55.2436C115.6 55.255 115.392 55.2242 115.196 55.1532C115 55.0821 114.821 54.9723 114.668 54.8301C114.515 54.6879 114.392 54.5164 114.307 54.3256C114.221 54.1348 114.175 53.9288 114.17 53.7196C114.177 53.2929 114.35 52.886 114.652 52.5856C114.953 52.2852 115.36 52.115 115.785 52.1114C115.993 52.1007 116.2 52.132 116.396 52.2032C116.592 52.2745 116.771 52.3844 116.924 52.5265C117.076 52.6685 117.199 52.8398 117.285 53.0303C117.371 53.2207 117.418 53.4265 117.423 53.6355V53.6355Z" fill="#2A2A30"/>
<path d="M119.006 50.6303C118.801 50.836 117.587 49.8869 115.837 49.8402C114.087 49.7934 112.775 50.6443 112.579 50.4246C112.486 50.3264 112.705 49.9571 113.277 49.5503C114.051 49.0437 114.961 48.789 115.883 48.8211C116.795 48.8441 117.677 49.1567 118.401 49.714C118.932 50.1347 119.104 50.5368 119.006 50.6303Z" fill="#2A2A30"/>
<path d="M125.007 63.8688C125.007 63.7706 126.096 63.6116 127.869 63.434C128.334 63.4013 128.744 63.3218 128.827 63.0179C128.878 62.5545 128.788 62.0864 128.567 61.6762C128.176 60.5729 127.766 59.4229 127.334 58.2121C125.63 53.2847 124.411 49.2362 124.607 49.1707C124.802 49.1053 126.347 53.0416 128.055 57.969L129.228 61.4518C129.381 61.9661 129.66 62.5551 129.409 63.2236C129.34 63.3809 129.236 63.5203 129.106 63.6313C128.975 63.7422 128.821 63.8219 128.655 63.8641C128.405 63.9233 128.149 63.9515 127.892 63.9482C126.114 63.995 125.011 63.9716 125.007 63.8688Z" fill="#2A2A30"/>
<path d="M125.645 84.7509C119.663 84.6746 113.821 82.9334 108.766 79.7207C108.766 79.7207 112.656 88.6031 125.407 87.7616L125.645 84.7509Z" fill="#EB996E"/>
<path d="M124.148 68.0953C123.827 67.6646 123.402 67.3232 122.914 67.1031C122.425 66.8831 121.889 66.7918 121.355 66.8378C120.967 66.8625 120.588 66.9655 120.24 67.1406C119.892 67.3157 119.583 67.5593 119.331 67.8569C119.088 68.1436 118.939 68.4984 118.904 68.8731C118.869 69.2478 118.95 69.6243 119.136 69.9513C119.601 70.6338 120.574 70.8161 121.421 70.6011C122.256 70.3303 123.03 69.8948 123.696 69.3202C123.898 69.1835 124.073 69.0108 124.213 68.8106C124.277 68.7135 124.311 68.5997 124.311 68.4833C124.311 68.367 124.277 68.2532 124.213 68.1561" fill="#EB996E"/>
<path d="M119.813 64.9498C120.097 64.9498 120.051 66.8525 121.642 68.2549C123.234 69.6574 125.263 69.5032 125.272 69.7696C125.272 69.8912 124.807 70.1296 123.955 70.1296C122.839 70.1146 121.765 69.7039 120.921 68.9702C120.118 68.263 119.617 67.2715 119.525 66.2026C119.469 65.3986 119.683 64.9311 119.813 64.9498Z" fill="#2A2A30"/>
<path d="M119.559 45.5067C119.373 45.9742 117.628 45.7031 115.566 45.8947C113.505 46.0864 111.82 46.6053 111.559 46.1705C111.443 45.9602 111.746 45.5161 112.43 45.0719C113.343 44.5262 114.368 44.197 115.427 44.1095C116.486 44.022 117.55 44.1785 118.54 44.567C119.271 44.8943 119.638 45.2823 119.559 45.5067Z" fill="#2A2A30"/>
<path d="M136.312 47.2219C135.926 47.6099 134.451 47.1517 132.701 47.0863C130.951 47.0208 129.443 47.2639 129.094 46.8338C128.95 46.6281 129.197 46.2354 129.862 45.8708C130.78 45.423 131.8 45.2262 132.817 45.3005C133.833 45.3335 134.821 45.6386 135.679 46.184C136.294 46.6094 136.485 47.0302 136.312 47.2219Z" fill="#2A2A30"/>
<path d="M109.857 26.558C104.607 24.2579 97.7991 26.5814 95.0302 31.621C92.8755 35.5433 93.071 40.5034 90.665 44.2667C88.1148 48.2685 83.0237 50.3441 81.1529 54.6918C80.5879 56.1158 80.2913 57.6329 80.278 59.1658C80.1304 62.9371 80.7791 66.6971 82.1814 70.1986C83.2424 72.854 84.0009 76.435 82.4466 79.7215C79.5008 85.9579 79.189 91.1237 80.6224 93.4425C82.0557 95.7612 83.6333 98.3418 83.6333 98.3418L106.478 94.0408C107.344 93.9146 107.744 90.0017 107.283 86.8882C107.175 85.898 107.298 84.8961 107.642 83.9617C108.14 82.7789 108.926 81.7364 109.531 80.6004C111.974 76.0096 110.974 69.8948 107.409 66.1688C106.128 64.8839 105.23 63.2646 104.817 61.4939C104.393 59.4883 104.352 56.9919 105.883 55.0752C108.926 51.2791 109.852 26.558 109.852 26.558L108.172 42.8128" fill="#2A2A30"/>
<path d="M108.469 29.5981C108.971 32.5994 111.331 35.021 114.053 36.3814C116.776 37.7418 119.819 38.214 122.821 38.6534C125.822 39.0929 128.871 39.537 131.602 40.86C133.733 41.9165 135.585 43.4649 137.007 45.3784C138.428 47.292 139.378 49.5163 139.779 51.8695C143.092 48.1295 142.618 42.0942 139.825 37.9615C137.033 33.8289 132.44 31.281 127.847 29.4111C124.854 28.1956 121.736 27.1905 118.539 26.9894C115.342 26.7884 111.964 27.4569 109.325 29.3269" fill="#2A2A30"/>
<path d="M107.231 87.8652C106.896 90.357 107.39 92.8861 107.231 95.3919C107.073 97.8977 105.998 100.633 103.685 101.582C101.577 102.446 99.1292 101.539 97.3236 100.151C95.518 98.7625 94.0939 96.9159 92.293 95.5181C96.6999 92.5109 101.691 90.4762 106.938 89.5482" fill="#2A2A30"/>
<path d="M114.474 121.87C114.474 121.87 121.576 115.021 120.757 114.577C119.938 114.133 116.243 116.185 116.243 116.185C116.243 116.185 116.955 108.238 116.182 107.999C115.41 107.761 114.875 109.192 114.875 109.192C114.875 109.192 114.712 107.99 113.944 108.065C113.097 108.149 112.79 109.72 112.79 109.72C112.79 109.72 112.692 108.373 111.626 108.715C110.747 108.995 110.416 110.748 110.416 110.748C110.416 110.748 110.002 109.21 109.165 110.117C108.327 111.024 108.113 113.198 108.113 113.198L107.834 120.725C107.834 120.725 105.456 132.412 108.206 142.585C109.472 147.372 123.656 149.831 123.656 149.831L125.755 137.882L117.606 134.838L114.474 121.87Z" fill="#FFBE9D"/>
<path d="M108.188 142.596C108.173 142.565 108.162 142.532 108.155 142.498C108.155 142.423 108.109 142.329 108.076 142.208C108.011 141.937 107.913 141.558 107.788 141.067C107.465 139.611 107.221 138.137 107.057 136.654C106.545 131.34 106.767 125.98 107.718 120.726V120.726C107.792 118.8 107.871 116.767 107.951 114.649C107.978 114.116 107.978 113.588 108.025 113.036C108.098 112.486 108.216 111.944 108.379 111.414C108.528 110.854 108.816 110.341 109.216 109.923C109.336 109.806 109.492 109.735 109.658 109.722C109.746 109.719 109.832 109.735 109.913 109.769C109.993 109.803 110.065 109.854 110.124 109.918C110.324 110.149 110.468 110.422 110.547 110.717H110.319C110.388 110.371 110.492 110.032 110.631 109.708C110.762 109.352 110.974 109.031 111.25 108.773C111.406 108.637 111.599 108.551 111.804 108.527C112.009 108.503 112.216 108.541 112.399 108.637C112.558 108.764 112.687 108.923 112.778 109.105C112.868 109.286 112.919 109.486 112.925 109.689H112.688C112.751 109.383 112.851 109.087 112.986 108.805C113.116 108.494 113.334 108.229 113.614 108.043C113.778 107.955 113.965 107.92 114.149 107.945C114.332 107.982 114.497 108.081 114.615 108.226C114.822 108.498 114.953 108.821 114.996 109.161L114.764 109.133C114.89 108.792 115.074 108.475 115.308 108.198C115.432 108.047 115.592 107.931 115.773 107.861C115.879 107.835 115.989 107.835 116.095 107.861C116.156 107.865 116.215 107.884 116.267 107.917C116.341 107.959 116.355 108.011 116.392 108.062C116.526 108.398 116.599 108.756 116.606 109.119C116.634 109.469 116.644 109.815 116.648 110.156C116.648 110.844 116.648 111.526 116.611 112.204C116.551 113.555 116.462 114.887 116.35 116.192L116.174 116.08C117.308 115.429 118.508 114.901 119.752 114.504C119.905 114.462 120.061 114.431 120.218 114.411C120.396 114.384 120.578 114.402 120.748 114.462C120.781 114.474 120.811 114.493 120.835 114.518C120.859 114.543 120.877 114.574 120.888 114.607C120.904 114.663 120.904 114.723 120.888 114.78C120.871 114.868 120.841 114.953 120.799 115.032C120.727 115.178 120.645 115.319 120.553 115.453C120.19 115.96 119.8 116.447 119.385 116.912C117.751 118.749 116.09 120.399 114.503 121.942L114.536 121.844C115.759 126.986 116.811 131.367 117.64 134.817L117.593 134.765L123.657 137.047L125.248 137.664L125.653 137.823L125.788 137.884L125.649 137.841L125.234 137.696L123.633 137.121L117.584 134.906H117.546V134.868L114.377 121.909V121.853L114.419 121.811C115.997 120.268 117.677 118.613 119.273 116.781C119.684 116.324 120.068 115.843 120.422 115.341C120.508 115.217 120.584 115.088 120.65 114.953C120.72 114.822 120.748 114.658 120.697 114.691C120.413 114.632 120.119 114.651 119.845 114.747C118.62 115.143 117.44 115.667 116.323 116.309L116.127 116.411V116.192C116.239 114.887 116.327 113.56 116.383 112.213C116.383 111.54 116.43 110.858 116.42 110.18C116.42 109.838 116.42 109.497 116.383 109.156C116.372 108.829 116.309 108.505 116.197 108.198C116.169 108.104 115.997 108.099 115.862 108.137C115.715 108.19 115.584 108.282 115.485 108.403C115.272 108.655 115.104 108.941 114.987 109.249L114.824 109.651L114.754 109.226C114.716 108.929 114.602 108.648 114.424 108.408C114.342 108.305 114.226 108.235 114.096 108.212C113.967 108.188 113.833 108.213 113.721 108.282C113.485 108.442 113.301 108.668 113.191 108.932C113.069 109.196 112.977 109.474 112.916 109.759L112.758 110.474L112.679 109.745C112.672 109.58 112.632 109.419 112.56 109.27C112.488 109.122 112.386 108.991 112.26 108.885C112.121 108.816 111.964 108.789 111.81 108.809C111.656 108.829 111.511 108.895 111.394 108.997C111.149 109.227 110.96 109.51 110.841 109.824C110.709 110.135 110.608 110.457 110.538 110.788L110.445 111.255L110.31 110.788C110.242 110.531 110.118 110.293 109.947 110.091C109.911 110.048 109.866 110.014 109.815 109.991C109.765 109.968 109.71 109.956 109.654 109.956C109.598 109.956 109.543 109.968 109.492 109.991C109.442 110.014 109.397 110.048 109.361 110.091C108.992 110.487 108.728 110.969 108.593 111.493C108.432 112.007 108.317 112.535 108.248 113.069C108.202 113.597 108.197 114.144 108.169 114.668C108.086 116.79 108.003 118.816 107.923 120.745C106.963 125.986 106.714 131.332 107.183 136.64C107.334 138.12 107.559 139.591 107.857 141.048C107.969 141.516 108.053 141.923 108.113 142.194C108.141 142.32 108.16 142.414 108.174 142.488C108.188 142.563 108.188 142.596 108.188 142.596Z" fill="#EB996E"/>
<path d="M115.401 139.247C115.33 138.995 115.317 138.729 115.363 138.471C115.482 137.208 116.076 136.037 117.025 135.199C117.206 135.01 117.427 134.865 117.672 134.773C116.36 135.906 115.545 137.511 115.401 139.243V139.247Z" fill="#EB996E"/>
<path d="M114.552 113.827C114.413 112.959 114.394 112.077 114.496 111.204C114.518 110.324 114.658 109.452 114.91 108.609C114.897 109.481 114.84 110.352 114.738 111.218C114.635 112.658 114.621 113.827 114.552 113.827Z" fill="#EB996E"/>
<path d="M112.025 114.391C112.029 113.534 112.114 112.679 112.277 111.838C112.362 110.985 112.525 110.141 112.766 109.318C112.762 110.175 112.678 111.03 112.515 111.871C112.43 112.724 112.266 113.568 112.025 114.391V114.391Z" fill="#EB996E"/>
<path d="M110.042 113.971C109.977 113.314 109.991 112.651 110.084 111.998C110.096 111.335 110.191 110.677 110.368 110.039C110.421 111.358 110.312 112.679 110.042 113.971V113.971Z" fill="#EB996E"/>
<path d="M52.9242 141.026C52.9995 140.855 53.1199 140.709 53.2723 140.602C53.4247 140.496 53.6032 140.433 53.7885 140.422C53.9737 140.41 54.1586 140.45 54.3229 140.537C54.4873 140.623 54.6248 140.754 54.7205 140.913C56.0608 143.157 58.8577 147.636 60.0537 147.996C61.6499 148.463 62.0687 147.996 63.0879 147.996C63.9488 147.996 82.5868 144.144 85.621 145.107C88.6552 146.07 104.817 161.156 104.817 161.156L89.9629 187.237C89.9629 187.237 85.1417 181.066 82.5868 174.484C80.032 167.902 79.3991 159.37 79.3991 159.37C79.3991 159.37 55.0975 158.271 53.9806 156.023C52.8637 153.774 53.8177 150.88 53.0219 148.959C52.403 147.426 51.9935 143.358 52.9242 141.026Z" fill="#FFBE9D"/>
<path d="M137.073 143.823C136.166 141.513 135.482 139.068 135.556 136.591C135.631 134.113 136.534 131.579 138.39 129.938C139.693 128.788 141.383 128.134 142.644 126.928C144.156 125.483 144.887 123.403 146.171 121.752C148.396 118.887 152.184 117.545 155.8 117.652C159.416 117.76 162.878 119.214 165.977 121.089V139.891L151.551 150.84L137.073 143.823Z" fill="#FFBE9D"/>
<path d="M147.048 137.69C147.071 137.869 147.112 138.046 147.169 138.218C147.365 138.664 147.728 139.013 148.179 139.19C148.513 139.317 148.871 139.363 149.225 139.324C149.579 139.285 149.919 139.162 150.218 138.966C150.976 138.499 151.614 137.858 152.079 137.096C152.569 136.351 152.831 135.478 152.833 134.586C152.811 133.861 152.547 133.164 152.084 132.608C151.772 132.231 151.368 131.943 150.911 131.771C150.581 131.654 150.385 131.645 150.385 131.622C150.385 131.598 150.436 131.622 150.529 131.622C150.668 131.629 150.805 131.651 150.939 131.687C151.432 131.834 151.874 132.117 152.214 132.505C152.728 133.08 153.026 133.818 153.056 134.59C153.069 135.529 152.799 136.449 152.284 137.232C151.806 138.033 151.138 138.703 150.339 139.181C150.011 139.386 149.64 139.51 149.256 139.543C148.871 139.575 148.485 139.515 148.128 139.368C147.889 139.266 147.674 139.116 147.496 138.927C147.317 138.738 147.179 138.514 147.09 138.269C147.052 138.134 147.033 137.994 147.034 137.853C147.03 137.741 147.039 137.69 147.048 137.69Z" fill="#EB996E"/>
<path d="M148.506 136.509C148.681 136.633 148.878 136.72 149.087 136.766C149.312 136.795 149.541 136.756 149.744 136.654C149.983 136.517 150.168 136.303 150.269 136.046C150.372 135.809 150.418 135.552 150.405 135.294C150.392 135.036 150.32 134.785 150.195 134.559C150.069 134.377 149.911 134.219 149.73 134.092C149.73 134.064 150.046 134.092 150.321 134.466C150.486 134.709 150.587 134.99 150.614 135.283C150.641 135.576 150.593 135.871 150.474 136.14C150.351 136.45 150.119 136.704 149.823 136.855C149.578 136.968 149.303 136.996 149.041 136.934C148.599 136.818 148.478 136.509 148.506 136.509Z" fill="#EB996E"/>
<path d="M145.323 122.797C145.326 122.882 145.317 122.967 145.295 123.049C145.244 123.288 145.174 123.523 145.086 123.751C144.749 124.582 144.278 125.351 143.69 126.027C143.287 126.497 142.848 126.935 142.377 127.336C141.87 127.771 141.275 128.164 140.665 128.589C139.455 129.435 138.077 130.361 137.058 131.721C136.133 133.031 135.626 134.594 135.606 136.2C135.581 137.513 135.738 138.824 136.072 140.094C136.342 141.188 136.621 142.058 136.807 142.656C136.895 142.937 136.965 143.166 137.021 143.353C137.049 143.433 137.07 143.516 137.082 143.6C137.036 143.528 137 143.449 136.975 143.367C136.905 143.189 136.821 142.965 136.719 142.689C136.505 142.095 136.197 141.23 135.904 140.136C135.544 138.853 135.372 137.524 135.392 136.191C135.4 134.536 135.917 132.924 136.872 131.576C137.929 130.174 139.329 129.239 140.549 128.402C141.163 127.981 141.759 127.603 142.256 127.182C142.726 126.794 143.164 126.371 143.569 125.915C144.166 125.262 144.658 124.519 145.025 123.713C145.249 123.138 145.3 122.792 145.323 122.797Z" fill="#EB996E"/>
<path d="M143.871 127.317C143.661 127.438 143.428 127.512 143.188 127.536C142.947 127.559 142.704 127.531 142.475 127.452C142.236 127.414 142.007 127.326 141.804 127.194C141.6 127.062 141.426 126.889 141.293 126.686C141.693 126.894 142.109 127.072 142.536 127.218C142.977 127.287 143.424 127.32 143.871 127.317V127.317Z" fill="#2A2A30"/>
<path d="M153.645 113.582C155.758 113.409 158.727 112.862 162.115 114.199C165.503 115.536 168.286 120.155 168.286 120.155C168.286 120.155 172.795 122.642 174.154 124.55C176.341 127.612 177.1 131.562 176.602 135.302C176.019 139.045 174.471 142.57 172.111 145.526C169.049 149.505 164.581 152.726 159.579 152.945C158.834 152.978 157.996 152.913 157.484 152.366C156.973 151.819 157.145 150.673 157.889 150.589C156.547 151.458 155.112 152.175 153.613 152.726C153.089 152.973 152.502 153.052 151.933 152.95C151.571 152.817 151.255 152.583 151.021 152.276C150.787 151.968 150.645 151.601 150.611 151.216C150.558 150.444 150.653 149.67 150.89 148.934C149.722 149.584 148.163 149.649 147.116 148.822C145.943 147.887 144.817 145.353 145.324 143.951C145.895 142.45 146.95 141.186 148.321 140.36C149.969 139.463 150.946 139.201 151.774 137.962C153.296 135.685 154.38 133.189 150.746 131.632C148.051 130.136 149.238 125.429 149.606 122.362C149.075 123.021 149.289 123.975 149.238 124.821C149.187 125.667 148.396 126.653 147.67 126.223C147.364 125.988 147.162 125.643 147.107 125.26C146.837 124.241 146.66 123.198 146.576 122.147C146.72 123.049 145.701 123.834 144.812 123.652C144.375 123.526 143.987 123.268 143.702 122.912C143.416 122.557 143.246 122.121 143.216 121.665C143.172 120.75 143.403 119.843 143.877 119.061C144.863 117.28 146.336 115.82 148.123 114.855C149.909 113.89 151.934 113.459 153.957 113.615" fill="#2A2A30"/>
<path d="M151.967 149.833C152.04 149.745 152.123 149.665 152.213 149.594L152.939 148.935C153.84 148.145 154.677 147.286 155.443 146.364C156.595 145.013 157.367 143.379 157.682 141.628C157.85 140.602 157.768 139.55 157.444 138.562C157.052 137.51 156.496 136.529 155.797 135.654C155.108 134.719 154.401 133.845 153.782 132.919C153.191 132.034 152.7 131.085 152.32 130.091C151.972 129.193 151.764 128.247 151.706 127.286C151.664 126.442 151.773 125.598 152.027 124.794C152.376 123.618 153.076 122.578 154.033 121.816C154.383 121.54 154.778 121.328 155.201 121.189C154.813 121.392 154.443 121.627 154.094 121.891C153.183 122.665 152.521 123.693 152.19 124.845C151.955 125.633 151.861 126.456 151.911 127.276C151.973 128.219 152.18 129.146 152.525 130.025C152.907 131.001 153.396 131.93 153.982 132.797C154.573 133.732 155.294 134.583 155.992 135.523C156.705 136.418 157.272 137.422 157.672 138.496C158.004 139.523 158.083 140.616 157.9 141.68C157.571 143.465 156.767 145.127 155.573 146.49C154.79 147.408 153.929 148.256 153 149.024C152.674 149.3 152.414 149.492 152.241 149.646C152.154 149.715 152.063 149.777 151.967 149.833V149.833Z" fill="#455A64"/>
<path d="M158.74 149.529C158.809 149.448 158.885 149.375 158.968 149.309C159.117 149.169 159.359 148.982 159.638 148.711C160.449 147.964 161.206 147.161 161.905 146.308C164.563 143.053 166.275 139.124 166.85 134.953C167.424 130.783 166.841 126.534 165.162 122.676C165.018 122.311 164.874 122.045 164.795 121.853C164.744 121.76 164.705 121.661 164.678 121.559C164.739 121.644 164.792 121.735 164.837 121.83C164.93 122.017 165.088 122.297 165.251 122.634C165.724 123.639 166.117 124.68 166.428 125.747C167.476 129.286 167.625 133.032 166.861 136.643C166.097 140.254 164.444 143.616 162.054 146.42C161.343 147.269 160.565 148.058 159.727 148.781C159.438 149.043 159.187 149.216 159.029 149.346C158.939 149.418 158.843 149.479 158.74 149.529V149.529Z" fill="#455A64"/>
<path d="M168.127 142.508C168.089 142.475 168.713 141.862 169.523 140.722C169.99 140.052 170.405 139.347 170.765 138.613C171.638 136.818 172.17 134.874 172.334 132.882C172.399 132.067 172.399 131.247 172.334 130.432C172.231 129.03 172.008 128.198 172.054 128.184C172.135 128.373 172.195 128.57 172.231 128.773C172.292 129.004 172.34 129.238 172.375 129.474C172.417 129.754 172.482 130.068 172.506 130.409C172.589 131.234 172.603 132.064 172.548 132.891C172.473 133.898 172.308 134.897 172.054 135.874C171.778 136.852 171.412 137.802 170.961 138.712C170.588 139.451 170.152 140.156 169.658 140.82C169.458 141.114 169.243 141.348 169.067 141.563C168.921 141.749 168.766 141.927 168.601 142.096C168.459 142.251 168.3 142.389 168.127 142.508Z" fill="#455A64"/>
<path d="M153.204 135.765C153.204 135.765 154.54 130.796 155.89 128.837C157.16 126.995 158.216 126.196 160.171 125.097C163.663 123.27 167.52 122.255 171.456 122.129C167.966 119.001 162.53 118.552 158.361 120.689C154.191 122.825 151.18 127.308 151.655 131.983C152.229 132.414 152.677 132.993 152.95 133.659C153.223 134.325 153.311 135.053 153.204 135.765V135.765Z" fill="#59B039"/>
<path d="M169.356 121.063C169.356 120.96 170.635 120.853 172.688 120.731C173.849 120.717 174.985 120.394 175.982 119.796C176.52 119.445 176.921 118.918 177.118 118.305C177.223 117.996 177.248 117.665 177.191 117.344C177.134 117.023 176.997 116.721 176.792 116.468C176.317 115.974 175.678 115.673 174.996 115.621C174.332 115.557 173.661 115.632 173.027 115.841C171.921 116.194 170.936 116.851 170.184 117.739C169.663 118.344 169.256 119.04 168.983 119.792L168.853 120.151C168.82 120.25 168.797 120.338 168.769 120.418C168.741 120.497 168.686 120.638 168.658 120.633C168.63 120.628 168.625 120.549 168.625 120.395C168.625 120.315 168.625 120.217 168.625 120.105L168.69 119.712C168.878 118.882 169.247 118.105 169.77 117.435C170.54 116.412 171.596 115.642 172.804 115.224C173.525 114.966 174.294 114.868 175.056 114.934C175.923 114.993 176.735 115.38 177.327 116.019C177.628 116.367 177.822 116.796 177.886 117.253C177.95 117.684 177.913 118.124 177.779 118.539C177.529 119.304 177.018 119.956 176.336 120.381C175.75 120.748 175.099 120.997 174.419 121.115C173.849 121.214 173.271 121.263 172.692 121.259C170.631 121.236 169.36 121.161 169.356 121.063Z" fill="#59B039"/>
<path d="M169.08 121.559C169.048 121.601 168.731 121.423 168.182 121.058C167.406 120.538 166.666 119.967 165.967 119.347C164.891 118.428 164.001 117.309 163.347 116.052C162.939 115.283 162.714 114.43 162.691 113.56C162.677 113.062 162.786 112.568 163.01 112.123C163.233 111.679 163.563 111.297 163.97 111.012C164.407 110.739 164.913 110.599 165.427 110.61C165.911 110.618 166.387 110.731 166.823 110.942C167.614 111.354 168.253 112.01 168.647 112.812C169.301 114.09 169.611 115.518 169.546 116.954C169.51 117.908 169.307 118.848 168.945 119.731C168.68 120.343 168.48 120.642 168.419 120.624C168.464 120.286 168.549 119.954 168.675 119.637C168.922 118.763 169.043 117.858 169.034 116.949C169.022 115.619 168.69 114.312 168.066 113.139C167.719 112.479 167.18 111.94 166.521 111.596C166.192 111.406 165.817 111.309 165.438 111.317C165.058 111.325 164.688 111.437 164.367 111.641C164.046 111.845 163.787 112.134 163.618 112.475C163.449 112.817 163.376 113.198 163.407 113.579C163.422 114.342 163.61 115.092 163.956 115.771C164.551 116.973 165.351 118.06 166.321 118.983C167.144 119.796 167.87 120.385 168.359 120.853C168.847 121.32 169.108 121.521 169.08 121.559Z" fill="#59B039"/>
<path d="M155.087 152.793C155.087 152.793 137.626 140.124 131.73 141.129C125.834 142.134 124.284 142.845 120.957 145.696C118.596 147.559 116.133 149.289 113.581 150.876C110.193 153.046 107.037 155.561 104.162 158.38L103.422 159.104L111.012 184.994L112.683 188.014L127.626 190.534L145.403 176.294C148.401 174.102 150.842 171.229 152.525 167.909C154.208 164.59 155.086 160.918 155.087 157.192V152.793Z" fill="#455A64"/>
<path d="M130.112 186.877C130.112 186.877 118.603 201.809 105.819 198.28C93.0358 194.75 89.3594 186.078 89.3594 186.078L103.423 159.104L130.112 186.877Z" fill="#FAFAFA"/>
<path d="M110.599 166.695C110.628 166.81 110.644 166.928 110.646 167.046C110.646 167.275 110.706 167.612 110.715 168.051C110.778 169.287 110.755 170.526 110.646 171.758C110.495 173.591 110.144 175.402 109.599 177.158C108.932 179.316 107.922 181.351 106.606 183.184C105.262 185.001 103.583 186.543 101.659 187.723C100.093 188.69 98.3698 189.374 96.5682 189.743C95.3584 189.996 94.119 190.074 92.8871 189.977C92.553 189.952 92.2205 189.908 91.8913 189.846C91.7753 189.831 91.6603 189.809 91.5469 189.78C91.5469 189.752 92.0122 189.832 92.8918 189.883C94.1146 189.942 95.3399 189.838 96.5356 189.574C98.3081 189.184 100.001 188.493 101.543 187.532C103.433 186.356 105.085 184.832 106.411 183.039C107.711 181.229 108.715 179.221 109.384 177.092C109.934 175.353 110.3 173.561 110.473 171.744C110.597 170.519 110.646 169.287 110.622 168.056C110.622 167.616 110.599 167.28 110.599 167.051C110.59 166.932 110.59 166.814 110.599 166.695V166.695Z" fill="#2A2A30"/>
<path d="M116.955 198.457C116.902 198.207 116.864 197.954 116.843 197.699C116.751 197.015 116.614 196.337 116.434 195.67C115.853 193.46 114.769 191.417 113.265 189.701C111.762 187.986 109.882 186.646 107.773 185.788C107.137 185.522 106.484 185.301 105.819 185.124C105.571 185.071 105.327 185.002 105.088 184.918C105.088 184.918 105.153 184.918 105.283 184.918C105.414 184.918 105.6 184.96 105.842 185.016C106.522 185.161 107.19 185.361 107.838 185.615C109.996 186.444 111.921 187.787 113.447 189.529C114.974 191.271 116.056 193.359 116.601 195.614C116.768 196.291 116.88 196.981 116.936 197.676C116.964 197.924 116.936 198.115 116.964 198.246C116.973 198.316 116.97 198.388 116.955 198.457V198.457Z" fill="#2A2A30"/>
<path d="M122.189 136.799L135.554 141.773L129.258 153.395L116.32 150.211L122.189 136.799Z" fill="#455A64"/>
<path d="M114.9 156.406C114.597 156.549 114.349 156.787 114.193 157.084C114.116 157.239 114.079 157.411 114.084 157.584C114.09 157.757 114.139 157.925 114.225 158.075C114.324 158.262 114.474 158.415 114.659 158.516C114.843 158.618 115.053 158.662 115.263 158.644C115.472 158.626 115.672 158.547 115.837 158.415C116.001 158.284 116.124 158.107 116.189 157.907C116.249 157.745 116.268 157.57 116.245 157.399C116.221 157.227 116.156 157.065 116.054 156.925C115.851 156.661 115.569 156.469 115.249 156.378C115.249 156.378 115.352 156.341 115.533 156.378C115.794 156.448 116.026 156.6 116.194 156.813C116.325 156.972 116.412 157.162 116.448 157.365C116.484 157.568 116.467 157.778 116.399 157.972C116.322 158.216 116.175 158.432 115.976 158.592C115.777 158.752 115.535 158.849 115.281 158.871C115.027 158.893 114.773 158.838 114.55 158.713C114.327 158.589 114.146 158.401 114.03 158.173C113.928 157.994 113.875 157.791 113.875 157.584C113.875 157.378 113.928 157.175 114.03 156.995C114.158 156.757 114.359 156.567 114.602 156.453C114.789 156.392 114.896 156.392 114.9 156.406Z" fill="#F5F5F5"/>
<path d="M120.652 169.209C120.352 169.354 120.106 169.591 119.949 169.886C119.873 170.041 119.835 170.213 119.84 170.386C119.845 170.558 119.892 170.727 119.977 170.878C120.076 171.064 120.228 171.217 120.412 171.318C120.597 171.419 120.807 171.463 121.017 171.445C121.226 171.427 121.426 171.348 121.591 171.217C121.756 171.086 121.88 170.91 121.946 170.709C122.006 170.548 122.025 170.374 122.001 170.204C121.978 170.033 121.912 169.871 121.811 169.732C121.607 169.465 121.323 169.272 121.001 169.181C121.001 169.181 121.108 169.148 121.29 169.181C121.551 169.25 121.782 169.404 121.946 169.62C122.077 169.779 122.164 169.969 122.201 170.172C122.238 170.375 122.222 170.584 122.155 170.779C122.08 171.025 121.933 171.242 121.733 171.404C121.534 171.565 121.291 171.662 121.036 171.684C120.781 171.706 120.525 171.65 120.302 171.525C120.078 171.399 119.897 171.21 119.782 170.98C119.704 170.829 119.657 170.664 119.644 170.494C119.631 170.324 119.654 170.153 119.709 169.992C119.764 169.831 119.852 169.683 119.966 169.558C120.08 169.432 120.218 169.33 120.373 169.26C120.545 169.195 120.652 169.195 120.652 169.209Z" fill="#F5F5F5"/>
<path d="M138.283 149.819C138.261 149.896 138.226 149.969 138.181 150.034C138.106 150.175 137.99 150.376 137.832 150.628C137.375 151.346 136.82 151.996 136.184 152.559C135.231 153.419 134.007 153.916 132.727 153.961C131.284 154.013 129.771 153.527 128.226 153.064C125.554 152.314 122.929 151.402 120.366 150.334C119.389 149.908 118.617 149.52 118.091 149.24C117.83 149.099 117.625 148.978 117.495 148.898C117.424 148.863 117.356 148.819 117.295 148.768C117.373 148.786 117.449 148.816 117.518 148.856L118.133 149.156C118.668 149.413 119.45 149.773 120.432 150.175C123.007 151.193 125.632 152.081 128.296 152.835C129.846 153.302 131.33 153.77 132.722 153.737C133.955 153.704 135.139 153.243 136.073 152.433C136.71 151.884 137.275 151.256 137.753 150.563C138.083 150.091 138.264 149.81 138.283 149.819Z" fill="#2A2A30"/>
<path d="M104.269 189.649C104.098 189.745 103.961 189.893 103.879 190.071C103.796 190.249 103.772 190.449 103.809 190.643C103.846 190.836 103.943 191.012 104.086 191.147C104.228 191.282 104.41 191.368 104.604 191.393C106.611 191.542 108.627 191.248 110.51 190.533C114.233 189.177 113.958 190.687 113.958 190.687C113.958 190.687 112.618 193.024 108.569 197.699C106.452 200.149 98.745 194.997 98.8288 195.829C98.8753 196.273 98.8288 197.727 102.84 200.724C103.813 201.449 108.699 202.977 108.699 202.977C108.381 203.177 108.134 203.474 107.995 203.824C107.856 204.175 107.832 204.561 107.927 204.926C108.021 205.291 108.229 205.616 108.52 205.854C108.812 206.093 109.171 206.231 109.546 206.25C109.815 206.265 110.085 206.252 110.351 206.212C110.435 206.881 110.556 207.587 112.106 207.928C113.413 208.218 115.619 207.231 115.619 207.231C117.444 207.76 120.301 207.231 120.301 207.231C125.225 205.993 131.135 198.573 131.135 198.573C131.135 198.573 152.542 187.69 163.389 179.528C174.237 171.365 172.017 157.705 172.017 157.705L155.618 159.299L131.456 182.543C130.213 184.955 125.653 184.123 125.406 184.123C125.159 184.123 120.096 183.875 117.192 183.791C114.288 183.707 109.397 186.208 106.828 188.373L104.269 189.649Z" fill="#FFBE9D"/>
<path d="M119.543 205.016C118.921 205.627 118.198 206.125 117.407 206.488C116.651 206.92 115.828 207.22 114.973 207.376C114.95 207.306 116.039 206.909 117.3 206.273C118.561 205.637 119.501 204.955 119.543 205.016Z" fill="#EB996E"/>
<path d="M114.248 199.199C114.038 199.588 113.783 199.95 113.489 200.279C112.845 201.14 112.03 201.857 111.097 202.388C110.572 202.672 109.997 202.85 109.403 202.911C108.917 202.951 108.427 202.897 107.961 202.752C107.65 202.658 107.351 202.531 107.067 202.374C106.867 202.266 106.765 202.191 106.774 202.177C106.783 202.163 107.239 202.388 108.007 202.584C108.455 202.7 108.92 202.735 109.38 202.687C109.943 202.618 110.487 202.444 110.986 202.172C111.89 201.652 112.694 200.973 113.359 200.167C113.632 199.823 113.929 199.5 114.248 199.199Z" fill="#EB996E"/>
<path d="M116.147 203.688C115.966 203.952 115.739 204.182 115.476 204.365C114.277 205.335 112.821 205.928 111.288 206.072C110.98 206.126 110.665 206.126 110.357 206.072C111.408 205.931 112.441 205.679 113.438 205.319C114.397 204.874 115.305 204.327 116.147 203.688V203.688Z" fill="#EB996E"/>
<path d="M129.431 174.161C129.431 174.161 125.112 175.681 118.188 176.176C118.188 176.176 108.15 177.813 99.4566 176.494C90.7635 175.176 94.9332 163.984 94.9332 163.984L107.033 156.841L121.962 153.568C121.918 154.249 121.736 154.914 121.426 155.521C121.116 156.128 120.686 156.665 120.161 157.098L116.28 159.3L124.061 160.642L134.299 165.242C134.299 165.242 134.704 166.424 132.74 166.438C132.74 166.438 134.341 167.327 134.494 168.126C134.648 168.926 134.559 169.505 132.377 169.463C133.103 169.342 134.41 171.497 132.442 172.268C132.451 172.254 132.4 174.872 129.431 174.161Z" fill="#FFBE9D"/>
<path d="M118.191 176.176L118.392 176.148L118.992 176.087C119.513 176.04 120.29 175.956 121.286 175.82C122.282 175.685 123.501 175.502 124.911 175.222C126.511 174.909 128.091 174.503 129.644 174.006H129.677C130.286 174.087 130.905 174.018 131.482 173.805C131.772 173.686 132.007 173.462 132.143 173.179C132.27 172.885 132.303 172.558 132.236 172.244V172.169L132.301 172.132L132.674 171.931C132.79 171.851 132.902 171.762 133.013 171.678C133.226 171.5 133.366 171.248 133.404 170.972C133.404 170.685 133.304 170.407 133.12 170.187C132.933 169.947 132.71 169.738 132.46 169.565L132.222 169.397H132.511C132.94 169.376 133.366 169.319 133.786 169.229C133.987 169.188 134.177 169.102 134.34 168.976C134.404 168.906 134.449 168.819 134.469 168.725C134.49 168.632 134.485 168.534 134.456 168.443C134.456 168.34 134.423 168.2 134.41 168.107C134.386 168.01 134.343 167.919 134.284 167.84C134.145 167.668 133.989 167.512 133.818 167.373C133.468 167.073 133.094 166.801 132.702 166.559L132.39 166.363H132.757C133.117 166.369 133.473 166.301 133.805 166.162C133.967 166.098 134.099 165.975 134.175 165.817C134.251 165.659 134.265 165.479 134.214 165.311L134.275 165.376L124.036 160.781H124.069L120.346 160.141L116.283 159.444L115.948 159.388L116.246 159.22L120.123 157.018C120.634 156.596 121.053 156.073 121.356 155.482C121.658 154.891 121.837 154.245 121.882 153.582L122.026 153.694L107.088 156.966H107.116L98.241 162.155L95.8165 163.558L95.1836 163.918C95.0393 163.997 94.9648 164.03 94.9648 164.03C95.0305 163.981 95.0989 163.936 95.1696 163.895L95.7932 163.511L98.1899 162.067L107.032 156.812L121.947 153.451L122.096 153.418V153.563C122.05 154.263 121.861 154.946 121.541 155.569C121.221 156.193 120.776 156.743 120.234 157.186V157.186L116.358 159.393L116.321 159.168L120.383 159.865L124.106 160.505H124.125L134.363 165.138L134.414 165.161V165.204C134.483 165.426 134.466 165.666 134.368 165.877C134.271 166.082 134.106 166.247 133.902 166.344C133.539 166.498 133.147 166.573 132.753 166.564L132.809 166.358C133.213 166.609 133.597 166.89 133.958 167.2C134.14 167.356 134.303 167.531 134.447 167.723C134.524 167.829 134.578 167.95 134.605 168.079L134.652 168.415C134.67 168.539 134.67 168.665 134.652 168.789C134.628 168.924 134.559 169.046 134.456 169.135C134.269 169.286 134.049 169.389 133.814 169.434C133.382 169.529 132.943 169.585 132.502 169.603L132.548 169.416C132.818 169.6 133.057 169.828 133.255 170.089C133.472 170.351 133.586 170.683 133.577 171.024C133.533 171.352 133.367 171.651 133.111 171.861C132.985 171.954 132.865 172.048 132.739 172.127L132.348 172.342L132.399 172.23C132.478 172.59 132.438 172.965 132.287 173.301C132.133 173.621 131.866 173.873 131.538 174.006C130.934 174.233 130.283 174.305 129.644 174.217H129.709C128.148 174.707 126.558 175.102 124.949 175.4C123.552 175.671 122.31 175.867 121.314 175.965C120.318 176.063 119.536 176.152 118.987 176.185L118.392 176.222C118.324 176.211 118.257 176.195 118.191 176.176V176.176Z" fill="#EB996E"/>
<path d="M132.694 169.653C132.521 169.632 132.35 169.59 132.187 169.527L130.828 169.111C129.351 168.614 127.828 168.265 126.282 168.068C124.467 167.811 122.829 167.568 121.628 167.376L120.232 167.143C120.058 167.126 119.887 167.085 119.725 167.021C119.899 167.012 120.074 167.021 120.246 167.049L121.642 167.208C122.833 167.353 124.476 167.573 126.296 167.83C127.855 168.025 129.387 168.4 130.861 168.947C131.429 169.144 131.885 169.312 132.196 169.438C132.37 169.49 132.538 169.562 132.694 169.653V169.653Z" fill="#EB996E"/>
<path d="M132.324 172.21C132.324 172.243 131.7 172.065 130.704 171.817C129.708 171.57 128.326 171.256 126.777 171.023C125.227 170.789 123.812 170.672 122.788 170.616C122.233 170.61 121.679 170.575 121.127 170.513C121.279 170.473 121.436 170.456 121.592 170.462C121.881 170.462 122.295 170.438 122.812 170.462C124.158 170.485 125.501 170.598 126.832 170.798C128.162 171 129.478 171.291 130.769 171.668C131.263 171.817 131.663 171.944 131.933 172.046C132.07 172.082 132.202 172.137 132.324 172.21Z" fill="#EB996E"/>
<path d="M133.092 166.639C132.914 166.626 132.737 166.593 132.566 166.541C132.236 166.461 131.761 166.326 131.17 166.125C130.007 165.746 128.462 165.054 126.689 164.53C125.169 164.122 123.607 163.889 122.035 163.834L120.597 163.754C120.418 163.759 120.24 163.74 120.066 163.698C120.241 163.665 120.419 163.652 120.597 163.661C120.941 163.661 121.435 163.661 122.044 163.661C123.643 163.666 125.234 163.879 126.777 164.297C128.573 164.83 130.104 165.545 131.245 165.966C131.812 166.181 132.278 166.34 132.599 166.433C132.771 166.482 132.936 166.551 133.092 166.639V166.639Z" fill="#EB996E"/>
<path d="M48.0709 176.091L98.5309 161.865L106.787 173.478C106.787 173.478 80.6933 195.198 68.952 196.198C46.7725 198.087 48.0709 176.091 48.0709 176.091Z" fill="#FFBE9D"/>
<path d="M100.391 161.116C100.391 161.182 91.3024 163.879 80.0498 167.138C68.7972 170.396 59.6573 172.991 59.6387 172.925C59.6201 172.86 68.7274 170.167 79.98 166.904C91.2326 163.641 100.391 161.051 100.391 161.116Z" fill="#EB996E"/>
</g>
<defs>
<clipPath id="clip0">
<rect width="220" height="210" fill="white"/>
</clipPath>
</defs>
</svg>
