<svg width="272" height="56" viewBox="0 0 272 56" fill="none" xmlns="http://www.w3.org/2000/svg">
<path fill-rule="evenodd" clip-rule="evenodd" d="M116.332 24.7813V35.6876H111.285V27.57H101.582V35.6876H96.5349V17.3298H101.582V24.7813H116.332ZM111.285 17.3298H116.332V22.2862H111.273L111.285 17.3298ZM81.9116 34.107C82.6561 34.1111 83.3936 33.9651 84.078 33.678C84.7668 33.3849 85.372 32.9315 85.8411 32.357C86.4003 31.6611 86.8116 30.8627 87.051 30.0087C87.6658 27.7142 87.6658 25.3032 87.051 23.0087C86.8066 22.1566 86.3957 21.3591 85.8411 20.6604C85.372 20.086 84.7668 19.6325 84.078 19.3394C82.6936 18.783 81.1411 18.783 79.7567 19.3394C79.0638 19.6309 78.4544 20.0845 77.9821 20.6604C77.452 21.366 77.0612 22.1625 76.8297 23.0087C76.2307 25.3051 76.2307 27.7123 76.8297 30.0087C77.0551 30.8571 77.4465 31.6547 77.9821 32.357C78.4544 32.9329 79.0638 33.3865 79.7567 33.678C80.4375 33.9639 81.1709 34.1099 81.9116 34.107ZM81.9116 16.6185C83.4239 16.6072 84.9287 16.8281 86.3712 17.2733C87.6437 17.6731 88.8199 18.3223 89.8282 19.1814C90.8013 20.0417 91.5685 21.1019 92.0753 22.2862C93.166 25.0076 93.166 28.0324 92.0753 30.7538C91.5653 31.9298 90.7982 32.982 89.8282 33.8361C88.8227 34.6991 87.6456 35.3488 86.3712 35.7441C83.461 36.6175 80.3506 36.6175 77.4405 35.7441C76.1671 35.3464 74.9905 34.697 73.9834 33.8361C73.0134 32.982 72.2464 31.9298 71.7364 30.7538C70.6457 28.0324 70.6457 25.0076 71.7364 22.2862C72.2431 21.1019 73.0104 20.0417 73.9834 19.1814C74.9935 18.3246 76.1691 17.6757 77.4405 17.2733C78.8866 16.8266 80.3954 16.6056 81.9116 16.6185ZM170.942 17.3298V35.6876H165.883V21.9249H165.526L157.24 35.6876H150.787V17.3298H155.835V31.1038H156.192L164.489 17.3298H170.942ZM194.381 24.7813V35.6876H189.333V27.57H179.596V35.6876H174.549V17.3298H179.596V24.7813H194.381ZM189.333 17.3298H194.392V22.2862H189.333V17.3298ZM197.642 17.3298H217.485V20.7733H197.676L197.642 17.3298ZM197.642 32.2441H217.485V35.6876H197.676L197.642 32.2441ZM197.642 24.7813H217.485V28.2361H197.676L197.642 24.7813ZM55.6957 27.57V35.6876H50.6484V11.1992H55.6842V24.7474H59.8672L65.1104 17.2959H70.5149L64.2116 26.3281L70.8721 35.6763H65.1104L59.3487 27.5587L55.6957 27.57ZM140.785 17.3298C142.383 17.3298 143.916 17.9519 145.047 19.0592C146.177 20.1666 146.812 21.6685 146.812 23.2346V35.6538H141.799V24.0475C141.799 23.1821 141.448 22.3522 140.824 21.7403C140.199 21.1283 139.352 20.7846 138.469 20.7846H136.325V35.6989H131.313V20.7733H125.827V35.6876H120.792V17.3298H140.785ZM240.567 24.7813V35.6876H235.519V27.57H225.805V35.6876H220.758V17.3298H225.805V24.7813H240.567ZM235.519 17.3298H240.578V22.2862H235.519V17.3298ZM270.09 23.2346V35.6538H265.054V24.0475C265.051 23.1811 264.697 22.3511 264.071 21.7396C263.445 21.128 262.596 20.7846 261.712 20.7846H259.569V35.6989H254.614V20.7733H249.082V35.6876H244.035V17.3298H264.098C264.889 17.3283 265.674 17.48 266.406 17.7762C267.138 18.0725 267.803 18.5073 268.362 19.0559C268.922 19.6045 269.366 20.2561 269.669 20.9731C269.971 21.6902 270.126 22.4587 270.124 23.2346H270.09Z" fill="#00593B"/>
<path fill-rule="evenodd" clip-rule="evenodd" d="M30.6388 46.9436H28.5695V25.9174L30.6482 27.9676L30.6388 46.9436ZM27.9795 46.9436H25.9008V23.3063L27.9795 25.3565V46.9436ZM13.5033 46.9436H0.000976562V0H43.6543V46.9896H31.21V28.5008L33.2981 30.5511V44.5808H41.2759V2.28925H2.35125V44.5808H10.3291V21.4308L13.4753 24.5291L13.5033 46.9436ZM14.3742 46.9436V24.5291L17.5203 21.4308V46.9436H14.3742ZM18.3912 46.9436V20.585L21.5374 17.4958V46.9161L18.3912 46.9436Z" fill="#00593B"/>
<path fill-rule="evenodd" clip-rule="evenodd" d="M16.3115 21.4404V13.3223L18.6056 11.0606V19.1879L16.3115 21.4404ZM22.1731 47.7256V7.57613L24.4672 5.31445V47.7256H43.6533V56H0V47.7256H22.1731ZM19.2048 18.5628V10.4446L21.5083 8.18292V16.3103L19.2048 18.5628Z" fill="#50AD25"/>
<path fill-rule="evenodd" clip-rule="evenodd" d="M16.668 49.4255V54.4912H17.6043V50.2713H21.3498V49.4255H16.668ZM22.127 49.4255V54.4912H23.0633V52.2296H24.9361L26.3687 54.4912H27.4924L25.7133 51.7331L27.3613 49.3887H26.2283L24.8705 51.3561H23.0727V49.3887L22.127 49.4255Z" fill="white"/>
<path fill-rule="evenodd" clip-rule="evenodd" d="M51.5859 44.4502V45.3952H53.9832V50.1671H55.0205V45.3952H57.4294V44.4502H51.5859ZM58.2707 44.4502V50.1671H63.5033V49.2104H59.3311V47.717H62.9501V46.7836H59.3311V45.4069H63.342V44.4502H58.2707ZM64.4945 44.4502V50.1671H65.5433V48.8487H67.8484C68.147 48.8707 68.4469 48.8302 68.7294 48.7297C69.0118 48.6291 69.2708 48.4708 69.49 48.2644C69.7093 48.058 69.8842 47.8081 70.0038 47.5302C70.1234 47.2524 70.1851 46.9525 70.1851 46.6495C70.1851 46.3464 70.1234 46.0465 70.0038 45.7687C69.8842 45.4908 69.7093 45.2409 69.49 45.0345C69.2708 44.8282 69.0118 44.6698 68.7294 44.5692C68.4469 44.4687 68.147 44.4281 67.8484 44.4502H64.4945ZM65.5433 45.4069H67.7793C67.9508 45.3834 68.1253 45.3994 68.2899 45.4535C68.4545 45.5077 68.6049 45.5986 68.73 45.7197C68.8551 45.8407 68.9517 45.9887 69.0126 46.1527C69.0734 46.3167 69.0971 46.4925 69.0816 46.6669C69.083 46.8338 69.0491 46.999 68.982 47.1515C68.915 47.3039 68.8164 47.44 68.693 47.5506C68.5695 47.6611 68.4241 47.7437 68.2665 47.7925C68.1088 47.8413 67.9427 47.8554 67.7793 47.8337H65.5433V45.4069ZM71.0179 44.4502V50.1671H72.0668V48.8487H74.3719C74.6705 48.8707 74.9704 48.8302 75.2528 48.7297C75.5353 48.6291 75.7942 48.4708 76.0135 48.2644C76.2327 48.058 76.4076 47.8081 76.5272 47.5302C76.6468 47.2524 76.7085 46.9525 76.7085 46.6495C76.7085 46.3464 76.6468 46.0465 76.5272 45.7687C76.4076 45.4908 76.2327 45.2409 76.0135 45.0345C75.7942 44.8282 75.5353 44.6698 75.2528 44.5692C74.9704 44.4687 74.6705 44.4281 74.3719 44.4502H71.0179ZM72.0668 45.4069H74.3027C74.4742 45.3834 74.6487 45.3994 74.8133 45.4535C74.9779 45.5077 75.1283 45.5986 75.2534 45.7197C75.3786 45.8407 75.4751 45.9887 75.536 46.1527C75.5969 46.3167 75.6205 46.4925 75.6051 46.6669C75.6065 46.8338 75.5725 46.999 75.5055 47.1515C75.4384 47.3039 75.3398 47.44 75.2164 47.5506C75.093 47.6611 74.9475 47.7437 74.7899 47.7925C74.6323 47.8413 74.4661 47.8554 74.3027 47.8337H72.0668V45.4069ZM77.5414 44.4502V50.1671H78.5902L82.3475 45.8619V50.1671H83.3848V44.4502H82.3475L78.5672 48.7787V44.4502H77.5414ZM84.2262 44.4502V45.3952H86.635V50.1671H87.6723V45.3952H90.0696V44.4502H84.2262ZM91.8445 47.3203C91.8331 46.8934 91.9476 46.4728 92.1736 46.1122C92.3995 45.7516 92.7266 45.4673 93.1129 45.2958C93.4993 45.1244 93.9274 45.0735 94.3425 45.1496C94.7576 45.2257 95.1408 45.4254 95.4432 45.7232C95.7456 46.021 95.9534 46.4033 96.04 46.8213C96.1266 47.2392 96.0881 47.6738 95.9294 48.0695C95.7707 48.4652 95.4991 48.8039 95.1492 49.0425C94.7993 49.2811 94.3871 49.4086 93.9652 49.4087C93.6866 49.4287 93.4069 49.3889 93.1445 49.2918C92.8821 49.1947 92.643 49.0426 92.4427 48.8454C92.2425 48.6482 92.0857 48.4104 91.9826 48.1476C91.8795 47.8848 91.8325 47.6028 91.8445 47.3203ZM97.1232 47.3203C97.1648 46.678 97.0146 46.0378 96.6921 45.483C96.3695 44.9282 95.8896 44.4845 95.3147 44.2094C94.7397 43.9344 94.0963 43.8408 93.4681 43.9408C92.84 44.0408 92.256 44.3297 91.7922 44.7701C91.3284 45.2105 91.0061 45.782 90.8673 46.4102C90.7286 47.0384 90.7797 47.6943 91.0141 48.2928C91.2485 48.8912 91.6552 49.4044 92.1815 49.7657C92.7078 50.127 93.3293 50.3197 93.9652 50.3188C94.3704 50.346 94.7767 50.2886 95.159 50.1501C95.5413 50.0116 95.8914 49.7951 96.1876 49.5139C96.4837 49.2327 96.7196 48.8929 96.8805 48.5155C97.0415 48.1382 97.1241 47.7313 97.1232 47.3203ZM98.0798 44.4502V50.1671H99.1287V48.8487H101.434C101.732 48.8707 102.032 48.8302 102.315 48.7297C102.597 48.6291 102.856 48.4708 103.075 48.2644C103.295 48.058 103.47 47.8081 103.589 47.5302C103.709 47.2524 103.77 46.9525 103.77 46.6495C103.77 46.3464 103.709 46.0465 103.589 45.7687C103.47 45.4908 103.295 45.2409 103.075 45.0345C102.856 44.8282 102.597 44.6698 102.315 44.5692C102.032 44.4687 101.732 44.4281 101.434 44.4502H98.0798ZM99.1287 45.4069H101.365C101.538 45.3795 101.715 45.3925 101.882 45.4449C102.05 45.4973 102.204 45.5877 102.331 45.7092C102.459 45.8307 102.558 45.9801 102.62 46.1461C102.682 46.3121 102.706 46.4902 102.69 46.6669C102.692 46.8349 102.657 47.0013 102.59 47.1547C102.522 47.308 102.422 47.4448 102.298 47.5556C102.173 47.6663 102.026 47.7485 101.867 47.7965C101.708 47.8445 101.54 47.8572 101.376 47.8337H99.1402L99.1287 45.4069ZM104.603 44.4502V50.1671H105.652L109.409 45.8619V50.1671H110.447V44.4502H109.409L105.641 48.7787V44.4502H104.603ZM116.959 44.4502H113.639C113.341 44.4291 113.042 44.4711 112.76 44.5734C112.479 44.6758 112.221 44.8364 112.005 45.0449C111.788 45.2534 111.616 45.5052 111.501 45.7845C111.385 46.0638 111.329 46.3643 111.334 46.6669C111.318 47.0655 111.419 47.4599 111.624 47.8005C111.829 48.141 112.129 48.4124 112.487 48.5804L111.588 50.1671H112.74L113.478 48.8254H115.933V50.1671H116.982L116.959 44.4502ZM115.91 45.4069V47.8687H113.674C113.51 47.8904 113.344 47.8763 113.187 47.8275C113.029 47.7787 112.884 47.6961 112.76 47.5856C112.637 47.475 112.538 47.3389 112.471 47.1865C112.404 47.034 112.37 46.8688 112.371 46.7019C112.356 46.5275 112.38 46.3517 112.441 46.1877C112.501 46.0237 112.598 45.8757 112.723 45.7547C112.848 45.6336 112.999 45.5427 113.163 45.4885C113.328 45.4344 113.502 45.4184 113.674 45.4419L115.91 45.4069ZM121.039 44.4502L122.629 47.1103L120.843 50.1671H122.053L123.494 47.6353H124.877V50.1671H125.902V47.6353H127.285L128.726 50.1671H129.879L128.092 47.1103L129.694 44.4502H128.542L127.216 46.7019H125.879V44.4502H124.854V46.7019H123.505L122.283 44.4502H121.039ZM130.709 44.4502V50.1671H131.757L135.515 45.8619V50.1671H136.552V44.4502H135.515L131.746 48.7787V44.4502H130.709ZM139.191 44.4502L138.419 48.627C138.408 48.7121 138.38 48.794 138.337 48.8682C138.295 48.9424 138.238 49.0073 138.171 49.0593C138.103 49.1113 138.026 49.1494 137.944 49.1713C137.862 49.1932 137.777 49.1986 137.693 49.1871H137.267V50.1671H137.831C138.238 50.2028 138.641 50.0744 138.954 49.8099C139.267 49.5454 139.464 49.1664 139.503 48.7554L140.125 45.3952H142.649V50.1671H143.698V44.4502H139.191ZM144.712 44.4502V50.1671H145.749L149.518 45.8619V50.1671H150.544V44.4502H149.518L145.738 48.7787V44.4502H144.712ZM159.315 50.1671L159.396 51.3338H160.318V49.2337H159.695V44.4502H158.669V49.2221H156.168V44.4502H155.154V49.2221H152.665V44.4502H151.639V50.1671H159.315ZM161.101 44.4502V50.1671H162.139V47.682H165.769V50.1671H166.806V44.4502H165.769V46.7836H162.139V44.4502H161.101ZM168.823 47.3203C168.812 46.8929 168.927 46.4718 169.153 46.1109C169.38 45.75 169.707 45.4658 170.094 45.2947C170.481 45.1236 170.91 45.0733 171.326 45.1504C171.741 45.2275 172.124 45.4284 172.426 45.7274C172.728 46.0263 172.935 46.4097 173.02 46.8284C173.106 47.2471 173.065 47.6821 172.905 48.0776C172.745 48.4731 172.471 48.811 172.12 49.0482C171.768 49.2854 171.355 49.4109 170.933 49.4087C170.655 49.427 170.376 49.3859 170.115 49.288C169.854 49.1902 169.617 49.0378 169.418 48.8408C169.219 48.6438 169.063 48.4066 168.961 48.1446C168.858 47.8826 168.811 47.6018 168.823 47.3203ZM174.091 47.3203C174.132 46.678 173.982 46.0378 173.659 45.483C173.337 44.9282 172.857 44.4845 172.282 44.2094C171.707 43.9344 171.064 43.8408 170.435 43.9408C169.807 44.0408 169.223 44.3297 168.76 44.7701C168.296 45.2105 167.973 45.782 167.835 46.4102C167.696 47.0384 167.747 47.6943 167.981 48.2928C168.216 48.8912 168.623 49.4044 169.149 49.7657C169.675 50.127 170.297 50.3197 170.933 50.3188C171.338 50.346 171.744 50.2886 172.126 50.1501C172.509 50.0116 172.859 49.7951 173.155 49.5139C173.451 49.2327 173.687 48.8929 173.848 48.5155C174.009 48.1382 174.091 47.7313 174.091 47.3203ZM175.07 44.4502V50.1671H176.108V45.3952H180.222V44.4502H175.07ZM181.986 47.3203C181.974 46.8934 182.089 46.4728 182.315 46.1122C182.541 45.7516 182.868 45.4673 183.254 45.2958C183.64 45.1244 184.068 45.0735 184.483 45.1496C184.899 45.2257 185.282 45.4254 185.584 45.7232C185.887 46.021 186.094 46.4033 186.181 46.8213C186.268 47.2392 186.229 47.6738 186.07 48.0695C185.912 48.4652 185.64 48.8039 185.29 49.0425C184.94 49.2811 184.528 49.4086 184.106 49.4087C183.828 49.4287 183.548 49.3889 183.286 49.2918C183.023 49.1947 182.784 49.0426 182.584 48.8454C182.383 48.6482 182.227 48.4104 182.124 48.1476C182.021 47.8848 181.973 47.6028 181.986 47.3203ZM187.264 47.3203C187.306 46.678 187.156 46.0378 186.833 45.483C186.511 44.9282 186.031 44.4845 185.456 44.2094C184.881 43.9344 184.237 43.8408 183.609 43.9408C182.981 44.0408 182.397 44.3297 181.933 44.7701C181.469 45.2105 181.147 45.782 181.008 46.4102C180.87 47.0384 180.921 47.6943 181.155 48.2928C181.389 48.8912 181.796 49.4044 182.322 49.7657C182.849 50.127 183.47 50.3197 184.106 50.3188C184.511 50.346 184.918 50.2886 185.3 50.1501C185.682 50.0116 186.032 49.7951 186.329 49.5139C186.625 49.2327 186.861 48.8929 187.022 48.5155C187.183 48.1382 187.265 47.7313 187.264 47.3203ZM191.333 44.4502V50.1671H194.894C195.147 50.1765 195.398 50.1343 195.634 50.043C195.87 49.9516 196.086 49.813 196.267 49.6355C196.449 49.4579 196.594 49.2451 196.693 49.0097C196.791 48.7743 196.842 48.5211 196.842 48.2653C196.843 48.0121 196.792 47.7614 196.692 47.529C196.593 47.2965 196.447 47.0873 196.264 46.9143C196.082 46.7413 195.866 46.6083 195.63 46.5236C195.394 46.4389 195.144 46.4043 194.894 46.4219H192.335V45.3952H196.127V44.4502H191.333ZM192.37 47.3553H194.825C195.551 47.3553 195.839 47.7403 195.839 48.2653C195.851 48.3991 195.833 48.534 195.786 48.6596C195.739 48.7852 195.664 48.8983 195.568 48.9905C195.471 49.0826 195.355 49.1514 195.228 49.1915C195.102 49.2316 194.968 49.2421 194.836 49.2221H192.37V47.3553ZM199.285 44.4502L198.513 48.627C198.502 48.7121 198.474 48.794 198.431 48.8682C198.389 48.9424 198.332 49.0073 198.265 49.0593C198.197 49.1113 198.12 49.1494 198.038 49.1713C197.956 49.1932 197.871 49.1986 197.787 49.1871H197.28V50.1671H197.856C198.057 50.1863 198.26 50.1649 198.452 50.1041C198.645 50.0433 198.823 49.9443 198.978 49.8129C199.132 49.6816 199.259 49.5204 199.352 49.3389C199.444 49.1573 199.5 48.959 199.516 48.7554L200.15 45.3952H202.674V50.1671H203.723V44.4502H199.285ZM207.699 45.3952H208.344L209.497 48.3353H206.454L207.699 45.3952ZM207.077 44.4502L204.599 50.1671H205.751L206.131 49.2804H209.993L210.373 50.1671H211.468L209.07 44.4502H207.077ZM212.321 44.4502V50.1671H213.358V45.3952H217.461V44.4502H212.321ZM219.236 47.3203C219.222 46.8902 219.336 46.4658 219.562 46.1015C219.788 45.7372 220.117 45.4496 220.506 45.2758C220.895 45.102 221.326 45.0498 221.744 45.126C222.163 45.2021 222.549 45.4031 222.854 45.7032C223.159 46.0033 223.368 46.3887 223.454 46.81C223.541 47.2312 223.502 47.6692 223.341 48.0675C223.18 48.4658 222.905 48.8063 222.551 49.0453C222.198 49.2843 221.782 49.4108 221.357 49.4087C221.078 49.4287 220.798 49.3889 220.536 49.2918C220.274 49.1947 220.034 49.0426 219.834 48.8454C219.634 48.6482 219.477 48.4104 219.374 48.1476C219.271 47.8848 219.224 47.6028 219.236 47.3203ZM224.515 47.3203C224.563 46.6751 224.418 46.03 224.098 45.4698C223.778 44.9096 223.299 44.4604 222.722 44.1812C222.145 43.902 221.499 43.8058 220.867 43.9053C220.235 44.0048 219.648 44.2954 219.183 44.7388C218.717 45.1822 218.395 45.7577 218.258 46.3898C218.121 47.022 218.177 47.6812 218.417 48.2809C218.657 48.8806 219.071 49.3928 219.604 49.7502C220.136 50.1077 220.764 50.2937 221.403 50.2838C221.808 50.311 222.214 50.2536 222.597 50.1151C222.979 49.9766 223.329 49.7601 223.625 49.4789C223.921 49.1977 224.157 48.8579 224.318 48.4805C224.479 48.1032 224.562 47.6963 224.561 47.2853L224.515 47.3203ZM225.483 44.4502V50.1671H226.52V45.3952H229.978V50.1671H231.003V44.4502H225.483ZM233.02 47.3203C233.009 46.8934 233.124 46.4728 233.35 46.1122C233.575 45.7516 233.902 45.4673 234.289 45.2958C234.675 45.1244 235.103 45.0735 235.518 45.1496C235.934 45.2257 236.317 45.4254 236.619 45.7232C236.922 46.021 237.129 46.4033 237.216 46.8213C237.303 47.2392 237.264 47.6738 237.105 48.0695C236.947 48.4652 236.675 48.8039 236.325 49.0425C235.975 49.2811 235.563 49.4086 235.141 49.4087C234.863 49.4287 234.583 49.3889 234.32 49.2918C234.058 49.1947 233.819 49.0426 233.619 48.8454C233.418 48.6482 233.262 48.4104 233.159 48.1476C233.055 47.8848 233.008 47.6028 233.02 47.3203ZM238.299 47.3203C238.341 46.678 238.191 46.0378 237.868 45.483C237.546 44.9282 237.066 44.4845 236.491 44.2094C235.916 43.9344 235.272 43.8408 234.644 43.9408C234.016 44.0408 233.432 44.3297 232.968 44.7701C232.504 45.2105 232.182 45.782 232.043 46.4102C231.905 47.0384 231.956 47.6943 232.19 48.2928C232.424 48.8912 232.831 49.4044 233.357 49.7657C233.884 50.127 234.505 50.3197 235.141 50.3188C235.546 50.346 235.953 50.2886 236.335 50.1501C236.717 50.0116 237.067 49.7951 237.363 49.5139C237.66 49.2327 237.896 48.8929 238.056 48.5155C238.217 48.1382 238.3 47.7313 238.299 47.3203ZM240.835 44.4502L240.051 48.627C240.041 48.7116 240.015 48.7933 239.973 48.8674C239.932 48.9415 239.876 49.0065 239.81 49.0586C239.743 49.1107 239.667 49.1489 239.586 49.171C239.505 49.193 239.42 49.1985 239.336 49.1871H238.829V50.1671H239.406C239.811 50.2027 240.213 50.074 240.524 49.8092C240.836 49.5445 241.03 49.1654 241.065 48.7554L241.688 45.3952H244.212V50.1671H245.261V44.4502H240.835ZM246.044 44.4502L246.966 47.1336C247.053 47.4796 247.256 47.7846 247.539 47.9972C247.823 48.2097 248.17 48.3168 248.522 48.3003H250.009L249.836 48.8371C249.783 48.9781 249.688 49.099 249.564 49.1827C249.44 49.2663 249.294 49.3087 249.145 49.3037H247.681V50.1905H249.214C249.562 50.1907 249.902 50.0774 250.182 49.8673C250.462 49.6572 250.668 49.3615 250.77 49.0237L252.268 44.4619H251.219L250.286 47.3553H248.58C248.449 47.358 248.321 47.3188 248.213 47.2434C248.106 47.168 248.024 47.0602 247.981 46.9353L247.116 44.4619L246.044 44.4502ZM253.04 44.4502V46.6553C253.024 46.9503 253.069 47.2455 253.172 47.5219C253.275 47.7982 253.435 48.0495 253.64 48.2595C253.846 48.4696 254.092 48.6337 254.364 48.7412C254.636 48.8487 254.927 48.8972 255.219 48.8837H257.466V50.1671H258.515V44.4502H257.466V47.9503H255.426C255.241 47.9845 255.051 47.9723 254.871 47.9148C254.692 47.8573 254.529 47.7562 254.397 47.6205C254.265 47.4847 254.168 47.3183 254.115 47.1358C254.061 46.9534 254.052 46.7603 254.089 46.5736V44.4502H253.04ZM259.621 44.4502V50.1671H260.659L264.427 45.8619V50.1671H265.453V44.4502H264.427L260.647 48.7787V44.4502H259.621ZM271.965 44.4502H268.657C268.359 44.4291 268.06 44.4711 267.778 44.5734C267.497 44.6758 267.24 44.8364 267.023 45.0449C266.806 45.2534 266.634 45.5052 266.519 45.7845C266.403 46.0638 266.347 46.3643 266.352 46.6669C266.339 47.0649 266.441 47.4581 266.646 47.7981C266.851 48.138 267.149 48.41 267.505 48.5804L266.617 50.1671H267.77L268.496 48.8254H270.962V50.1671H272L271.965 44.4502ZM270.928 45.4069V47.8687H268.657C268.494 47.8904 268.328 47.8763 268.17 47.8275C268.013 47.7787 267.867 47.6961 267.744 47.5856C267.62 47.475 267.522 47.3389 267.455 47.1865C267.388 47.034 267.354 46.8688 267.355 46.7019C267.34 46.5275 267.363 46.3517 267.424 46.1877C267.485 46.0237 267.581 45.8757 267.707 45.7547C267.832 45.6336 267.982 45.5427 268.147 45.4885C268.311 45.4344 268.486 45.4184 268.657 45.4419L270.928 45.4069Z" fill="#50AD25"/>
</svg>
