<svg width="141" height="190" viewBox="0 0 141 190" fill="none" xmlns="http://www.w3.org/2000/svg">
<path d="M51.4779 120.761C51.4779 120.761 49.6991 116.708 49.3619 115.819C48.4598 113.39 42.6176 97.1166 44.0255 94.6625C50.4915 83.2633 55.5076 75.1984 68.2626 75.1984L90.7969 75.0461C90.7969 75.0461 112.142 70.6794 127.191 119.424L51.4779 120.761Z" fill="#59B039"/>
<path d="M3.94786 124.84L33.454 118.459L68.1363 100.155L68.2628 75.1647C63.0613 73.7261 53.0882 77.3481 35.1738 86.5131L8.54237 100.316C6.40989 101.419 4.55639 102.996 3.12304 104.927C1.6897 106.859 0.714323 109.093 0.271223 111.459C-0.171877 113.826 -0.0710055 116.263 0.566135 118.585C1.20328 120.907 2.35988 123.052 3.94786 124.857V124.84Z" fill="#59B039"/>
<path d="M70.3453 173.215C69.9154 171.81 70.2105 170.904 72.2506 171.598C76.7524 173.113 80.7737 172.614 81.7516 171.742C82.7295 170.871 81.8359 169.203 80.369 169.33C78.7673 169.326 77.1736 169.104 75.6312 168.67C74.379 168.371 73.1852 167.865 72.0989 167.172C71.1547 166.572 70.3454 166.005 69.6288 165.48C69.6288 165.48 65.4726 162.467 64.1744 160.047L49.9355 166.165L52.2286 173.325C52.5009 174.58 53.085 175.746 53.9267 176.713C54.7683 177.681 55.8401 178.419 57.0423 178.859C61.1141 180.188 67.5886 179.706 67.5886 179.706C68.7773 178.927 73.355 185.579 74.746 187.923C76.137 190.267 77.7809 190.563 78.3204 189.133C78.683 188.151 74.6111 180.865 73.1948 178.572C72.0516 176.891 71.0961 175.088 70.3453 173.198" fill="#FFBE9D"/>
<path d="M60.7011 179.705C60.7011 179.755 60.3471 179.705 59.8581 179.501C59.2258 179.179 58.7056 178.671 58.3659 178.046C58.0172 177.426 57.8561 176.717 57.9023 176.006C57.9528 175.465 58.1215 175.16 58.172 175.16C58.1087 176.079 58.3143 176.996 58.7637 177.799C59.2131 178.602 59.8865 179.256 60.7011 179.679V179.705Z" fill="#EB996E"/>
<path d="M65.2188 179.915C65.2188 179.966 64.8815 179.915 64.4263 179.687C63.8356 179.354 63.3528 178.857 63.0353 178.257C62.7094 177.659 62.5575 176.982 62.5969 176.302C62.6475 175.785 62.7908 175.455 62.8498 175.515C62.8758 176.391 63.0735 177.254 63.4315 178.053C63.9046 178.782 64.511 179.414 65.2188 179.915Z" fill="#EB996E"/>
<path d="M3.10449 123.854C3.10449 123.854 48.3079 176 48.2489 175.137C48.1898 174.274 68.4816 159.058 68.4816 159.058L24.1972 106.082L3.10449 123.854Z" fill="#59B039"/>
<path d="M30.5215 113.629C30.5215 113.629 30.6395 113.722 30.8418 113.934L31.6849 114.881L34.7198 118.402C37.2489 121.381 40.7643 125.527 44.6085 130.123C48.4528 134.718 51.9177 138.898 54.4046 141.97L57.3299 145.584L58.1139 146.582C58.2825 146.811 58.3753 146.938 58.3584 146.946C58.2421 146.858 58.1373 146.756 58.0465 146.642L57.2035 145.694C56.4363 144.847 55.4162 143.62 54.1686 142.173C51.6395 139.194 48.1156 135.048 44.2713 130.453C40.4271 125.857 36.9707 121.677 34.4753 118.605L31.55 114.991C31.2381 114.594 30.9767 114.264 30.7744 113.993C30.6761 113.882 30.5912 113.76 30.5215 113.629Z" fill="#263238"/>
<path d="M49.514 79.5064C49.514 79.5064 49.7416 79.3879 50.1716 79.1933C50.6015 78.9986 51.2675 78.7532 52.1274 78.4824C53.1824 78.1566 54.2667 77.9355 55.3647 77.8223C56.8327 77.6624 58.3178 77.8005 59.7316 78.2285C61.4453 78.7752 62.9841 79.768 64.1912 81.1058C65.5631 82.6705 66.4995 84.5709 66.9058 86.615C67.4154 88.8331 67.5606 91.1199 67.3357 93.3851C67.067 95.8179 66.1977 98.1449 64.8066 100.155C63.3373 102.1 61.5012 103.736 59.4028 104.97C57.4217 106.223 55.4321 107.238 53.5437 108.237L43.5032 113.535L36.7589 117.063L34.9043 118.003C34.6928 118.124 34.4697 118.223 34.2383 118.299C34.4376 118.158 34.646 118.031 34.8621 117.918L36.6747 116.903L43.4189 113.247L53.4004 107.873C55.2804 106.866 57.2784 105.834 59.2258 104.59C61.2714 103.382 63.0637 101.787 64.5031 99.8928C65.8484 97.9335 66.6831 95.667 66.9311 93.3004C67.1506 91.093 67.0169 88.8646 66.5349 86.6996C66.1659 84.7351 65.2944 82.9008 64.0058 81.3766C62.8537 80.0693 61.3755 79.0937 59.7232 78.5501C58.3617 78.121 56.9298 77.9629 55.508 78.0847C54.4215 78.1778 53.3461 78.3733 52.296 78.6686C51.453 78.914 50.7701 79.134 50.3233 79.2948C50.0631 79.3981 49.7913 79.4691 49.514 79.5064Z" fill="#263238"/>
<path d="M105.33 61.9668C104.371 60.7931 103.682 59.4201 103.316 57.947C103.164 57.4731 103.147 56.9663 103.265 56.483C103.325 56.24 103.466 56.0244 103.663 55.8709C103.86 55.7174 104.103 55.635 104.352 55.6367C104.858 55.6367 105.196 56.153 105.474 56.5846C106.298 57.83 106.993 59.1571 107.548 60.5451C107.711 60.9244 107.794 61.3336 107.792 61.7468C107.79 61.9531 107.736 62.1554 107.634 62.3346C107.532 62.5139 107.386 62.664 107.21 62.7707C107.003 62.861 106.775 62.8929 106.551 62.8631C106.326 62.8333 106.114 62.7429 105.937 62.6015C105.598 62.3127 105.313 61.9661 105.094 61.5775" fill="#EB996E"/>
<path d="M107.497 61.0272L105.272 56.3389C105.02 55.8906 104.862 55.3952 104.808 54.8833C104.787 54.6262 104.844 54.3686 104.972 54.1448C105.1 53.9211 105.293 53.7418 105.525 53.6309C105.74 53.5688 105.967 53.5658 106.184 53.6224C106.401 53.679 106.598 53.793 106.756 53.9524C107.073 54.2681 107.327 54.6414 107.506 55.0526L108.56 57.109C108.872 57.654 109.105 58.2411 109.251 58.8523C109.323 59.1603 109.329 59.48 109.269 59.7905C109.21 60.1011 109.086 60.3956 108.905 60.6548C108.712 60.9053 108.44 61.0815 108.133 61.1539C107.826 61.2264 107.503 61.1906 107.219 61.0526" fill="#EB996E"/>
<path d="M97.5934 75.5239C97.5934 75.5239 94.491 71.4872 94.2212 69.3631C93.9515 67.239 96.5396 63.4393 102.112 62.593C104.145 62.3787 106.105 61.7076 107.845 60.6297C108.187 60.3964 108.438 60.0518 108.556 59.654C108.675 59.2562 108.653 58.8296 108.494 58.4463C107.76 56.6607 106.445 53.3687 106.546 52.9033C106.808 51.7608 107.55 51.7862 109.472 54.5958C111.394 57.4054 113.628 60.2996 113.198 61.6029C112.768 62.9061 105.973 66.9428 105.973 66.9428L107.828 69.947L97.5934 75.5239Z" fill="#FFBE9D"/>
<path d="M116.021 117.022L94.6328 74.9542L108.408 67.2109L137.341 113.248C137.341 113.248 138.867 116.193 141 119.637H116.746" fill="#59B039"/>
<path d="M108.215 67.2109C108.215 67.2109 108.139 67.2786 107.979 67.3802L107.254 67.8202L104.489 69.4366L94.5413 75.1235L94.6172 74.8696C96.6995 79.1009 99.4056 84.0515 102.129 89.4084C106.184 97.3209 109.716 104.573 112.161 109.854C113.392 112.494 114.369 114.644 115.035 116.125C115.347 116.844 115.6 117.411 115.786 117.817C115.886 118.011 115.965 118.216 116.022 118.427C115.896 118.246 115.788 118.054 115.701 117.851C115.499 117.428 115.221 116.87 114.858 116.159L111.857 109.947C109.328 104.709 105.771 97.4817 101.741 89.5692C99.0178 84.2208 96.3285 79.2871 94.28 75.005L94.2041 74.8357L94.3643 74.7427L104.388 69.1996L107.212 67.6679L107.962 67.2786C108.043 67.2449 108.128 67.2221 108.215 67.2109Z" fill="#263238"/>
<path d="M51.4772 120.763C49.6306 117.747 48.4171 114.383 47.9111 110.879C48.046 110.879 48.6277 113.13 49.5972 115.846C50.5667 118.563 51.5952 120.704 51.4772 120.763Z" fill="#263238"/>
<path d="M98.5859 58.7474C100.285 59.4393 102.163 59.556 103.934 59.0799C105.706 58.6038 107.274 57.5609 108.402 56.1093C109.53 54.6576 110.155 52.8765 110.184 51.0358C110.212 49.1952 109.641 47.3955 108.559 45.9096C113.39 44.6826 116.399 39.0888 115.421 34.1805C114.443 29.2721 110.085 25.447 105.212 24.3892C103.349 23.9408 101.402 23.9904 99.5638 24.5331C98.6502 24.8146 97.8043 25.2824 97.0791 25.907C96.3538 26.5317 95.7647 27.2999 95.3486 28.1635" fill="#263238"/>
<path d="M101.564 34.4447C103.323 34.3443 105.004 33.6838 106.364 32.5589C107.724 31.4341 108.691 29.9034 109.125 28.1893C109.559 26.4751 109.438 24.6667 108.778 23.0265C108.119 21.3863 106.956 19.9998 105.458 19.0681C106.184 17.0263 106.251 14.807 105.651 12.7246C105.051 10.6422 103.813 8.80202 102.114 7.46461C100.414 6.12719 98.3383 5.36028 96.1805 5.27242C94.0226 5.18457 91.8919 5.78022 90.09 6.97506C88.7198 4.53621 86.6386 2.57697 84.1262 1.3608C81.6138 0.144621 78.7907 -0.270171 76.0365 0.172194C73.2822 0.614558 70.729 1.89287 68.72 3.83523C66.711 5.7776 65.3427 8.29088 64.799 11.0371C62.3296 10.0124 59.6086 9.76392 56.9955 10.3246C54.3825 10.8854 52.0004 12.2289 50.1643 14.1775C48.3281 16.1262 47.1242 18.5883 46.7117 21.2385C46.2992 23.8887 46.6975 26.6021 47.854 29.0202C45.1509 29.2513 42.6499 30.551 40.9014 32.6332C39.1528 34.7154 38.2998 37.4096 38.5301 40.1231C38.7604 42.8366 40.0551 45.3472 42.1294 47.1024C44.2036 48.8577 46.8875 49.7139 49.5907 49.4828C49.0445 51.2733 49.0647 53.1898 49.6486 54.9683C50.2324 56.7468 51.3512 58.2998 52.8508 59.4136C54.3505 60.5273 56.1572 61.1469 58.0223 61.1871C59.8873 61.2273 61.7188 60.686 63.2647 59.6379C64.2522 61.2357 65.6718 62.5188 67.358 63.3376C69.0442 64.1564 70.9275 64.4771 72.7884 64.2625C74.6493 64.0478 76.4111 63.3066 77.8683 62.1252C79.3255 60.9438 80.4182 59.3709 81.0189 57.5899" fill="#263238"/>
<path d="M91.4115 74.1519C91.5885 70.0306 91.8077 66.2986 91.8077 66.2986C91.8077 66.2986 100.988 65.1392 101.385 55.7372C101.781 46.3353 100.845 24.6879 100.845 24.6879L83.9844 16.5469L65.8086 31.238L68.658 74.3973C68.8577 77.3876 70.2167 80.1804 72.4435 82.1768C74.6702 84.1732 77.5876 85.2144 80.5701 85.0771C83.4087 84.9406 86.0942 83.7445 88.0998 81.7234C90.1054 79.7023 91.2865 77.0019 91.4115 74.1519Z" fill="#FFBE9D"/>
<path d="M100.399 40.7835C100.248 40.9442 99.3708 40.2084 98.1147 40.1576C96.8586 40.1069 95.9228 40.7497 95.7963 40.5805C95.6699 40.4114 95.8807 40.2168 96.2853 39.9123C96.8294 39.5306 97.4854 39.343 98.1484 39.3795C98.8132 39.4066 99.4504 39.6534 99.9609 40.0815C100.34 40.4198 100.467 40.7159 100.399 40.7835Z" fill="#263238"/>
<path d="M86.4728 40.7835C86.3211 40.9442 85.4528 40.2084 84.1882 40.1576C82.9237 40.1069 82.0048 40.7497 81.8699 40.5805C81.735 40.4114 81.9542 40.2168 82.3588 39.9123C82.9029 39.5306 83.559 39.343 84.2219 39.3795C84.8867 39.4066 85.5239 39.6534 86.0345 40.0815C86.4138 40.4198 86.5403 40.7159 86.4728 40.7835Z" fill="#263238"/>
<path d="M91.1924 50.2702C91.8576 50.0712 92.547 49.9659 93.241 49.9571C93.5614 49.9571 93.8648 49.8725 93.9239 49.644C93.9579 49.2884 93.8907 48.9303 93.73 48.6115C93.4377 47.7653 93.1342 46.8767 92.8195 45.9458C91.5549 42.1461 90.6529 39.0319 90.7962 38.9811C90.9395 38.9303 92.0692 41.9684 93.3253 45.7512L94.1683 48.4338C94.3582 48.8614 94.4084 49.3384 94.3117 49.7963C94.263 49.9118 94.1893 50.015 94.096 50.0985C94.0027 50.1819 93.892 50.2434 93.7721 50.2787C93.5962 50.325 93.4144 50.345 93.2326 50.3379C92.5526 50.4066 91.8665 50.3838 91.1924 50.2702Z" fill="#263238"/>
<path d="M91.8083 66.3069C87.4576 66.1926 83.2351 64.8042 79.6602 62.3125C79.6602 62.3125 82.518 69.1588 91.6481 68.6171L91.8083 66.3069Z" fill="#EB996E"/>
<path d="M78.7756 17.0709C77.3133 19.1901 76.5439 21.7134 76.5741 24.2911C76.6043 26.8689 77.4326 29.3733 78.9442 31.4573C80.3099 33.2514 82.3669 34.7155 84.6178 34.6308C86.8687 34.5462 89.0438 32.4136 88.5632 30.2049C88.3442 30.8982 88.2895 31.6332 88.4034 32.3515C88.5173 33.0698 88.7967 33.7514 89.2194 34.3421C89.6421 34.9329 90.1963 35.4164 90.838 35.7541C91.4797 36.0919 92.1911 36.2746 92.9155 36.2876C93.6399 36.3007 94.3574 36.1438 95.0107 35.8294C95.6641 35.5149 96.2352 35.0517 96.6788 34.4766C97.1223 33.9015 97.4259 33.2304 97.5655 32.5167C97.705 31.803 97.6766 31.0664 97.4825 30.3657C97.6578 31.3808 98.0148 32.3556 98.5363 33.243C98.8032 33.6857 99.1851 34.0472 99.641 34.2887C100.097 34.5302 100.61 34.6426 101.124 34.6139C102.532 34.4277 103.35 32.9214 103.654 31.5081C104.09 29.4058 103.99 27.2269 103.364 25.1735C102.737 23.1201 101.605 21.2587 100.071 19.762C98.5127 18.2964 96.6674 17.1729 94.6527 16.4633C92.638 15.7537 90.498 15.4736 88.3693 15.6407C84.0872 16.0191 80.0487 17.8037 76.8788 20.7183" fill="#263238"/>
<path d="M79.9632 20.3867C81.1509 23.0522 81.7931 25.93 81.8516 28.8493C81.9021 31.7849 80.8138 34.6253 78.8167 36.7703C77.806 37.8145 76.5208 38.5493 75.1106 38.8894C73.7003 39.2294 72.2229 39.1608 70.85 38.6914C71.2197 39.9512 71.3071 41.2776 71.1059 42.5753C70.9048 43.8731 70.4201 45.1101 69.6866 46.1977C68.1186 48.288 65.0331 49.2865 62.7485 48.0256C60.6746 46.8916 59.781 44.3698 59.4944 42.0172C59.1501 39.1617 59.4478 36.265 60.3657 33.5403C61.2836 30.8155 62.7983 28.332 64.7983 26.2723C66.7984 24.2126 69.233 22.6292 71.923 21.6385C74.613 20.6478 77.4901 20.275 80.3426 20.5475" fill="#263238"/>
<path d="M68.3811 42.7904C67.1334 42.0119 65.4305 42.6466 64.4357 43.7383C63.6525 44.6014 63.1687 45.6957 63.0564 46.8578C62.9442 48.0198 63.2096 49.1871 63.813 50.1852C64.4164 51.1833 65.3253 51.9585 66.404 52.3951C67.4827 52.8316 68.6731 52.906 69.7974 52.6071" fill="#FFBE9D"/>
<path d="M68.0943 49.7857C68.0943 49.8364 67.6812 49.8957 67.0321 49.718C66.6022 49.6062 66.2045 49.3949 65.8707 49.101C65.5369 48.8071 65.2763 48.4387 65.11 48.0254C64.9397 47.5345 64.9577 46.9974 65.1606 46.5191C65.331 46.1467 65.5991 45.8278 65.9362 45.5967C66.5179 45.2158 66.9562 45.2243 66.9647 45.2751C66.9731 45.3259 66.5853 45.4528 66.1216 45.8505C65.8271 46.0872 65.6119 46.4086 65.5049 46.7718C65.3978 47.1349 65.4042 47.5222 65.5231 47.8816C65.6704 48.2393 65.8893 48.5628 66.1663 48.8321C66.4433 49.1014 66.7724 49.3108 67.1333 49.4472C67.7487 49.6587 68.1028 49.718 68.0943 49.7857Z" fill="#EB996E"/>
<path d="M87.2467 36.8655C87.1287 37.2292 85.7546 37.0939 84.1275 37.17C82.5005 37.2461 81.1432 37.4491 80.9999 37.0939C80.8566 36.7386 82.1801 35.8844 84.0769 35.8167C85.9738 35.749 87.3732 36.5187 87.2467 36.8655Z" fill="#263238"/>
<path d="M100.366 36.6023C100.223 36.7292 99.9449 36.6023 99.6162 36.56C99.241 36.4694 98.8528 36.4465 98.4696 36.4923C97.9807 36.4923 97.4412 36.6276 97.0281 36.6192C96.615 36.6107 96.3283 36.5261 96.2778 36.3401C96.2272 36.154 96.4126 35.9341 96.7583 35.6973C97.2389 35.3894 97.7845 35.1983 98.3516 35.139C98.6828 35.0957 99.0196 35.1313 99.3345 35.243C99.6494 35.3546 99.9337 35.5393 100.164 35.7818C100.476 36.1625 100.501 36.4839 100.366 36.6023Z" fill="#263238"/>
<path d="M89.0101 52.6743C89.3569 52.4489 89.7485 52.3018 90.1575 52.2434C90.5666 52.1849 90.9834 52.2165 91.3791 52.3358C91.7702 52.4716 92.1017 52.7407 92.3157 53.0963C92.5298 53.4518 92.613 53.8715 92.5509 54.2822C92.4359 54.7231 92.1665 55.1077 91.7921 55.3655C91.519 55.5776 91.2044 55.7294 90.8688 55.8111C90.5333 55.8928 90.1843 55.9024 89.8447 55.8394C89.5045 55.7714 89.1891 55.6119 88.9322 55.3779C88.6753 55.1438 88.4866 54.8441 88.3863 54.5107C88.3027 54.1735 88.3325 53.8179 88.4713 53.4995C88.6101 53.1811 88.8499 52.9177 89.1535 52.7505" fill="#EB996E"/>
<path d="M93.6132 53.6815C93.6132 53.6815 93.3097 53.9438 92.7112 54.0708C91.9139 54.237 91.0852 54.1573 90.3338 53.8423C89.5843 53.5245 88.945 52.9917 88.496 52.3105C88.1588 51.7943 88.0914 51.4135 88.142 51.3881C88.1925 51.3627 88.378 51.6843 88.7489 52.1244C89.2278 52.6862 89.8273 53.1318 90.5024 53.4276C91.187 53.7027 91.9255 53.8156 92.6606 53.7576C93.2339 53.7153 93.5879 53.6138 93.6132 53.6815Z" fill="#263238"/>
<path d="M100.357 16.0898C100.438 16.0954 100.518 16.1155 100.593 16.1491C100.813 16.236 101.013 16.3654 101.183 16.5299C101.501 16.8478 101.737 17.2397 101.867 17.6709C101.998 18.102 102.021 18.5589 101.933 19.001C101.755 19.6726 101.382 20.2764 100.864 20.7369C100.345 21.1975 99.7024 21.4944 99.0165 21.5905C97.2817 21.7996 95.5297 21.3794 94.0764 20.4058L92.3397 19.3987L94.245 20.025C94.5726 20.1414 94.8657 20.3389 95.097 20.5993C95.3284 20.8596 95.4906 21.1744 95.5685 21.5144C95.66 21.8526 95.6832 22.2057 95.6369 22.553C95.5905 22.9003 95.4756 23.2348 95.2987 23.5369C94.9127 24.1446 94.3093 24.5807 93.6127 24.7556C92.9103 24.9334 92.173 24.9159 91.4798 24.7048C89.9279 24.0977 88.6305 22.9746 87.8042 21.5228L86.5228 19.7626L88.074 21.2774C88.4754 21.6936 88.7638 22.2063 88.9114 22.7664C89.059 23.3265 89.0609 23.9152 88.917 24.4763C88.8046 24.989 88.5777 25.4693 88.2536 25.8812C87.9294 26.2932 87.5163 26.6259 87.0455 26.8543C86.2728 27.2227 85.4119 27.3634 84.5628 27.26C83.7136 27.1567 82.9111 26.8135 82.2486 26.2704C81.3742 25.5568 80.729 24.6001 80.3939 23.52C80.3055 23.2434 80.2379 22.9605 80.1916 22.6738C80.1822 22.5724 80.1822 22.4704 80.1916 22.3691C80.2338 22.3691 80.2844 22.7753 80.5541 23.4777C80.9272 24.4772 81.5657 25.3552 82.4004 26.0165C83.0274 26.5019 83.7767 26.8026 84.5643 26.8848C85.352 26.967 86.1469 26.8275 86.86 26.4819C87.2761 26.2733 87.6399 25.9733 87.9245 25.6041C88.2091 25.2349 88.4072 24.806 88.5039 24.3493C88.6268 23.8596 88.624 23.3465 88.4957 22.8581C88.3675 22.3697 88.1179 21.922 87.7705 21.5567L88.0993 21.2774C88.8737 22.6359 90.0829 23.6916 91.5304 24.2732C92.1217 24.4928 92.7673 24.5177 93.3736 24.3443C93.9799 24.1708 94.5154 23.808 94.9025 23.3085C95.5095 22.3099 95.147 20.7697 94.1185 20.4227L94.2871 20.0419C95.6488 20.9809 97.2961 21.4093 98.9407 21.252C99.5765 21.1764 100.176 20.9146 100.665 20.4993C101.154 20.084 101.51 19.5334 101.689 18.9164C101.777 18.5085 101.769 18.0855 101.665 17.6814C101.561 17.2773 101.364 16.9033 101.09 16.5891C100.87 16.3894 100.623 16.2214 100.357 16.0898Z" fill="#455A64"/>
<path d="M77.8649 31.2119C77.8649 31.2119 77.8649 31.2712 77.7553 31.3727C77.6339 31.5234 77.5014 31.6649 77.3591 31.7959C76.8139 32.2938 76.1746 32.6765 75.4791 32.9214C74.3898 33.302 73.2072 33.3198 72.107 32.9722C71.3782 32.7431 70.7035 32.3677 70.1238 31.8687C69.5441 31.3697 69.0715 30.7576 68.7349 30.0695L69.0889 30.0187C68.9522 30.8757 68.6146 31.6877 68.1038 32.3879C67.593 33.0881 66.9238 33.6564 66.1512 34.0459C65.3786 34.4354 64.5248 34.635 63.6603 34.6282C62.7958 34.6214 61.9453 34.4084 61.1789 34.0068C60.4125 33.6051 59.7522 33.0264 59.2524 32.3182C58.7526 31.61 58.4277 30.7928 58.3044 29.9338C58.1812 29.0748 58.2631 28.1987 58.5434 27.3777C58.8237 26.5567 59.2944 25.8144 59.9167 25.212L60.2118 25.5251C59.2164 26.3551 57.965 26.8127 56.6711 26.8198C55.4966 26.8427 54.3405 26.5254 53.3411 25.9059C52.4477 25.3492 51.7493 24.5269 51.3431 23.5533C51.0123 22.7236 50.8712 21.83 50.93 20.9383C51.0009 19.6714 51.487 18.4634 52.3126 17.5025C52.6011 17.1597 52.9496 16.8729 53.3411 16.6563C53.3411 16.6562 52.9617 16.944 52.4306 17.6125C51.6766 18.5832 51.246 19.7675 51.1998 20.9976C51.1648 21.8443 51.3174 22.6883 51.6466 23.4686C52.0404 24.3655 52.6997 25.119 53.535 25.6266C54.4746 26.2051 55.5607 26.499 56.6626 26.4729C57.8571 26.4561 59.0105 26.0324 59.9336 25.2712L60.2202 25.5843C59.5033 26.3225 59.0192 27.2567 58.8288 28.2698C58.6383 29.2829 58.7499 30.3299 59.1496 31.2796C59.6391 32.3165 60.4577 33.1608 61.477 33.68C62.4962 34.1992 63.6584 34.364 64.781 34.1485C65.7643 33.916 66.6596 33.4033 67.3595 32.6722C68.0595 31.9411 68.5341 31.0226 68.7264 30.0272L68.8192 29.4348L69.0805 29.9764C69.3876 30.623 69.8202 31.2016 70.3529 31.6783C70.8856 32.1549 71.5078 32.52 72.1829 32.7521C73.2364 33.1038 74.375 33.1038 75.4285 32.7521C76.1099 32.5416 76.745 32.2027 77.3001 31.7535C77.7047 31.3981 77.8649 31.195 77.8649 31.2119Z" fill="#455A64"/>
<path d="M61.1818 46.2606C60.9698 46.456 60.7202 46.6058 60.4484 46.7006C59.7105 47.0088 58.9094 47.1336 58.1132 47.0645C56.881 46.9731 55.731 46.4095 54.9012 45.4905C54.3782 44.9091 53.9922 44.217 53.7719 43.4654C53.5515 42.7139 53.5024 41.9223 53.6282 41.1492L54.016 41.3184C53.1836 42.425 52.0997 43.3157 50.8547 43.9164C49.8945 44.374 48.8401 44.5973 47.7776 44.568C46.7876 44.5401 45.8188 44.2731 44.9534 43.7895C44.206 43.4031 43.5678 42.8337 43.0977 42.1341C42.6277 41.4344 42.341 40.6271 42.2642 39.7867C42.1638 38.6622 42.4624 37.5382 43.1072 36.6132C43.2892 36.3721 43.5017 36.1559 43.7395 35.97C43.8179 35.8969 43.9094 35.8395 44.0092 35.8008C44.0092 35.8008 43.6805 36.0885 43.2505 36.7147C42.6861 37.6236 42.4426 38.6967 42.5592 39.7613C42.6468 40.5473 42.9307 41.2984 43.3847 41.9449C43.8386 42.5914 44.4478 43.1124 45.1558 43.4594C46.0018 43.9088 46.9421 44.15 47.8991 44.1632C48.8562 44.1765 49.8027 43.9613 50.6608 43.5356C51.8421 42.9701 52.8734 42.1321 53.6704 41.0899L54.2184 40.3791L54.0582 41.2253C53.9388 41.9356 53.9774 42.6635 54.1712 43.357C54.3651 44.0505 54.7094 44.6924 55.1794 45.2366C55.9403 46.1092 56.9988 46.6646 58.1469 46.7937C58.9048 46.8829 59.673 46.8049 60.3978 46.5652C60.9036 46.3875 61.1649 46.2352 61.1818 46.2606Z" fill="#455A64"/>
<path d="M108.922 27.9297C109.126 28.4246 109.19 28.9662 109.108 29.4953C109.008 30.7966 108.462 32.023 107.563 32.9658C106.663 33.9085 105.467 34.5093 104.176 34.6659C103.655 34.7765 103.114 34.7354 102.616 34.5474C102.616 34.4713 103.215 34.5474 104.125 34.3528C105.315 34.1277 106.405 33.534 107.241 32.6551C108.077 31.7762 108.618 30.6563 108.787 29.453C108.939 28.5305 108.846 27.9382 108.922 27.9297Z" fill="#455A64"/>
<path d="M114.116 36.7891C114.231 36.9861 114.303 37.2053 114.327 37.4322C114.428 38.055 114.367 38.6934 114.15 39.2855C113.996 39.7469 113.728 40.1618 113.371 40.4916C113.014 40.8215 112.581 41.0557 112.11 41.1727C111.545 41.2888 110.959 41.2359 110.424 41.0204C110.124 40.9064 109.85 40.732 109.619 40.5079C109.389 40.2838 109.206 40.0147 109.083 39.7171L109.505 39.5733C109.582 39.8486 109.619 40.1336 109.615 40.4195C109.59 41.0732 109.376 41.7057 109.001 42.2404C108.625 42.775 108.104 43.189 107.499 43.4322C106.958 43.6311 106.369 43.6577 105.812 43.5084C105.343 43.3734 104.911 43.1333 104.548 42.806C104.013 42.3502 103.652 41.722 103.528 41.0288C103.452 40.5465 103.528 40.2757 103.528 40.2841C103.528 40.2926 103.528 40.5465 103.671 40.995C103.855 41.6124 104.223 42.1586 104.725 42.5606C105.077 42.8636 105.503 43.0678 105.959 43.1525C106.415 43.2372 106.885 43.1994 107.322 43.0429C107.841 42.8219 108.287 42.4571 108.608 41.9911C108.929 41.5251 109.112 40.9771 109.134 40.4111C109.139 40.1763 109.107 39.9423 109.041 39.7171L109.471 39.5733C109.698 40.0298 110.069 40.3974 110.528 40.6181C110.986 40.8388 111.504 40.9 112 40.7919C112.413 40.6962 112.797 40.5004 113.117 40.2215C113.438 39.9427 113.685 39.5894 113.838 39.1924C114.062 38.6576 114.163 38.0792 114.133 37.4999C114.116 37.026 114.04 36.7975 114.116 36.7891Z" fill="#455A64"/>
<path d="M88.3697 49.3828C88.4288 49.3828 88.4625 49.5774 88.3697 49.8649C88.2547 50.2363 88.0337 50.5656 87.734 50.8122C87.4343 51.0587 87.0691 51.2117 86.6837 51.2521C86.3886 51.2521 86.2116 51.2013 86.22 51.1421C86.2284 51.0829 86.8691 50.956 87.4424 50.457C88.0157 49.958 88.2433 49.3828 88.3697 49.3828Z" fill="#263238"/>
</svg>
